<?xml version="1.0" standalone="no"?>
<!DOCTYPE svg PUBLIC "-//W3C//DTD SVG 20010904//EN"
 "http://www.w3.org/TR/2001/REC-SVG-20010904/DTD/svg10.dtd">
<svg version="1.0" xmlns="http://www.w3.org/2000/svg"
 width="1280.000000pt" height="1280.000000pt" viewBox="0 0 1280.000000 1280.000000"
 preserveAspectRatio="xMidYMid meet">
<metadata>
Created by potrace 1.15, written by Peter Selinger 2001-2017
</metadata>
<g transform="translate(0.000000,1280.000000) scale(0.100000,-0.100000)"
fill="#000000" stroke="none">
<path d="M6616 12162 c-37 -25 -121 -69 -185 -98 -114 -50 -117 -52 -159 -115
-45 -67 -45 -66 -26 -160 4 -19 -5 -38 -35 -76 l-41 -51 39 -163 c36 -156 37
-164 19 -173 -32 -16 -23 -76 28 -178 25 -51 58 -104 73 -118 21 -19 31 -45
45 -113 13 -59 30 -107 53 -145 l35 -57 -7 -96 c-6 -83 -9 -96 -23 -92 -12 3
-25 -11 -44 -45 -15 -27 -33 -54 -40 -60 -7 -6 -186 -98 -398 -206 l-385 -195
-514 -586 c-282 -322 -515 -585 -517 -585 -7 0 -1079 701 -1092 715 -8 7 -19
58 -27 113 -7 55 -25 136 -39 179 -23 70 -34 86 -95 147 -75 75 -99 81 -133
35 -19 -25 -19 -25 10 -91 18 -38 27 -70 22 -78 -10 -16 -46 -12 -285 29 -99
17 -277 40 -396 51 -118 10 -223 22 -232 26 -13 5 -17 0 -17 -20 0 -21 10 -33
45 -54 42 -25 45 -30 45 -68 l0 -40 178 -34 177 -33 190 -94 c185 -92 192 -97
282 -185 75 -75 90 -95 82 -109 -7 -14 14 -47 111 -171 287 -368 547 -640 824
-860 111 -89 274 -201 292 -201 6 0 282 176 613 392 330 215 607 394 614 397
8 3 23 -25 44 -83 89 -245 132 -475 154 -822 13 -208 9 -529 -8 -539 -5 -4
-41 -99 -78 -211 -49 -149 -77 -216 -101 -248 -51 -67 -59 -107 -58 -298 1
-216 14 -302 154 -1020 198 -1013 246 -1281 284 -1578 43 -335 65 -620 81
-1047 l6 -155 -103 -65 c-129 -80 -202 -151 -219 -211 -7 -24 -13 -45 -14 -47
-1 -1 -44 5 -96 14 -116 20 -220 15 -257 -13 -71 -53 -95 -150 -73 -299 23
-166 67 -248 127 -236 26 5 27 4 20 -34 -4 -21 -34 -126 -66 -234 -32 -107
-65 -223 -74 -256 -20 -78 -20 -192 -1 -269 20 -80 114 -266 170 -337 67 -85
83 -93 193 -94 l94 -1 14 33 c18 42 47 222 78 484 l24 205 137 225 c76 124
139 227 141 229 2 2 26 -15 53 -37 27 -23 53 -42 58 -42 4 0 46 27 93 60 47
33 88 60 91 60 6 0 -14 -151 -30 -222 -9 -38 -7 -44 19 -75 47 -53 104 -142
148 -229 38 -75 43 -81 67 -76 l26 5 -16 -39 c-113 -263 -186 -486 -192 -590
-8 -125 22 -166 141 -191 80 -17 147 -16 241 2 101 19 173 53 234 110 60 56
76 97 66 171 -6 52 -5 54 19 64 59 22 56 89 -15 369 -34 132 -37 155 -25 165
8 6 42 62 76 124 l61 113 -91 479 c-49 264 -90 488 -90 499 0 11 210 307 467
658 257 351 467 645 467 653 0 8 -7 195 -14 415 -21 655 -9 992 61 1620 26
233 35 288 54 326 13 25 28 64 34 87 12 41 12 42 35 26 l24 -15 50 128 c134
346 200 624 223 940 26 364 -34 916 -192 1787 l-50 279 -66 131 c-119 239
-196 336 -324 410 -26 15 -197 87 -380 161 -183 75 -334 137 -336 139 -2 2 -9
33 -15 70 -7 41 -16 66 -24 66 -17 0 -27 100 -28 290 -1 146 0 157 22 187 31
43 89 174 97 215 20 117 1 582 -26 627 -24 40 -130 111 -254 172 -111 54 -311
130 -338 128 -7 0 -43 -21 -81 -47z m1294 -4247 c6 -132 22 -433 35 -669 22
-391 23 -430 8 -452 -8 -13 -19 -24 -22 -24 -4 0 -27 27 -51 60 -35 48 -52 88
-82 188 l-37 127 49 575 c27 316 55 627 62 690 l13 115 7 -185 c3 -102 12
-293 18 -425z m-896 -2902 c9 -38 21 -111 26 -163 6 -52 17 -117 25 -145 7
-27 17 -79 21 -115 3 -36 10 -75 15 -88 5 -12 13 -48 18 -80 5 -31 13 -71 16
-88 6 -26 1 -37 -26 -68 -17 -21 -51 -50 -75 -67 l-43 -29 -12 21 c-17 33 -30
212 -19 271 6 28 10 179 11 335 0 228 3 283 14 283 8 0 19 -26 29 -67z"/>
</g>
</svg>
