<?xml version="1.0" encoding="UTF-8" standalone="no"?>
<svg
   xmlns:dc="http://purl.org/dc/elements/1.1/"
   xmlns:cc="http://creativecommons.org/ns#"
   xmlns:rdf="http://www.w3.org/1999/02/22-rdf-syntax-ns#"
   xmlns:svg="http://www.w3.org/2000/svg"
   xmlns="http://www.w3.org/2000/svg"
   xmlns:sodipodi="http://sodipodi.sourceforge.net/DTD/sodipodi-0.dtd"
   xmlns:inkscape="http://www.inkscape.org/namespaces/inkscape"
   inkscape:version="1.0 (4035a4fb49, 2020-05-01)"
   sodipodi:docname="mern.svg"
   id="svg8"
   version="1.1"
   viewBox="0 0 489.25125 112.91658"
   height="112.91658mm"
   width="489.25125mm">
  <defs
     id="defs2" />
  <sodipodi:namedview
     inkscape:window-maximized="1"
     inkscape:window-y="-8"
     inkscape:window-x="-8"
     inkscape:window-height="837"
     inkscape:window-width="1600"
     showgrid="false"
     inkscape:document-rotation="0"
     inkscape:current-layer="g1221"
     inkscape:document-units="mm"
     inkscape:cy="240.35324"
     inkscape:cx="584.0017"
     inkscape:zoom="1.4142136"
     inkscape:pageshadow="2"
     inkscape:pageopacity="0.0"
     borderopacity="1.0"
     bordercolor="#666666"
     pagecolor="#ffffff"
     id="base" />
  <metadata
     id="metadata5">
    <rdf:RDF>
      <cc:Work
         rdf:about="">
        <dc:format>image/svg+xml</dc:format>
        <dc:type
           rdf:resource="http://purl.org/dc/dcmitype/StillImage" />
        <dc:title></dc:title>
      </cc:Work>
    </rdf:RDF>
  </metadata>
  <g
     transform="translate(139.60125,-341.30628)"
     id="layer1"
     inkscape:groupmode="layer"
     inkscape:label="Layer 1">
    <g
       style="stroke-width:1.24568"
       transform="matrix(0.83928571,0,0,0.76785279,-49.309019,273.99889)"
       id="g1221">
      <path
         sodipodi:nodetypes="sssscccssssscssssssssssssssssscssscccsssssccssssccsssscsscccc"
         id="path1279"
         d="m 91.180453,187.97861 c 3.436246,-0.72145 6.984731,-2.58021 9.795817,-5.13121 1.91899,-1.74145 2.65565,-2.73107 3.75415,-5.0433 0.75166,-1.5822 1.46626,-3.31328 1.58799,-3.84686 l 0.22132,-0.97014 h -3.51799 -3.517993 l -0.728811,1.64759 c -2.13468,4.82581 -7.467314,7.89026 -13.697264,7.87129 -6.180063,-0.0188 -11.541618,-2.73787 -14.505117,-7.35608 -1.435792,-2.23749 -2.04754,-4.08781 -2.516427,-7.61128 -0.655416,-4.92514 -2.895907,-4.4293 20.013781,-4.4293 h 19.618801 l -0.23354,-3.03816 c -0.79019,-10.28021 -4.50085,-17.63889 -11.151855,-22.11546 -3.459466,-2.32846 -5.764533,-2.89221 -11.82564,-2.89221 -6.430885,0 -8.944864,0.64914 -12.988702,3.35382 -3.882764,2.59695 -6.282937,5.37699 -8.321954,9.63901 -2.564278,5.35995 -3.001034,7.27689 -2.987593,13.11273 0.01647,7.15268 1.461343,12.72273 4.578843,17.65161 2.674193,4.228 8.213711,8.06501 13.193017,9.1383 3.065226,0.66071 10.125844,0.6712 13.229167,0.0197 z M 68.496842,157.04155 c -0.554891,-0.55489 -0.530024,-2.14314 0.06877,-4.39202 2.066837,-7.76248 9.726595,-12.74446 17.596305,-11.44481 7.043211,1.16316 12.048186,6.31791 13.441986,13.84423 0.461327,2.49114 0.952737,2.41593 -15.786424,2.41593 -11.116419,0 -15.004742,-0.10744 -15.320634,-0.42333 z m 59.901668,20.66894 c 3.97757,-5.92897 7.42275,-10.93846 7.65597,-11.13219 0.23321,-0.19373 0.67201,-0.29944 0.97512,-0.23491 0.3031,0.0645 3.86357,5.03857 7.91215,11.05343 l 7.36106,10.93612 5.01537,0.0981 5.01538,0.0981 -1.5546,-2.21476 c -0.85503,-1.21812 -5.39479,-7.56115 -10.08836,-14.09564 -5.41498,-7.53885 -8.52909,-12.18024 -8.52098,-12.7 0.008,-0.50765 3.3615,-5.30272 8.81945,-12.6104 4.84366,-6.48521 8.80666,-11.84302 8.80666,-11.90625 0,-0.0632 -2.02406,-0.11425 -4.49792,-0.11338 l -4.49792,0.002 -6.64425,9.34702 c -5.23541,7.36507 -6.80628,9.34451 -7.40834,9.33519 -0.58237,-0.009 -1.57653,-1.20446 -4.18061,-5.02708 -1.8791,-2.75839 -4.7366,-6.95274 -6.35,-9.32077 l -2.93346,-4.30552 -4.8507,-0.016 c -2.66788,-0.009 -4.85069,0.0759 -4.85069,0.18833 0,0.11239 2.6482,3.80333 5.88489,8.20208 3.23669,4.39876 6.68819,9.10899 7.67,10.46719 0.98181,1.35819 2.38174,3.23776 3.11095,4.17681 0.7292,0.93906 1.32461,1.97094 1.32312,2.29306 -0.002,0.53568 -2.09931,3.63117 -7.92422,11.69818 -7.19868,9.96942 -11.47585,16.06751 -11.47585,16.36131 0,0.12049 2.02406,0.21482 4.49792,0.20963 l 4.49791,-0.009 7.23195,-10.77995 z"
         style="fill:#d5dae1;stroke-width:1.24568" />
      <path
         id="path1269"
         d="m 520.51099,356.07877 c 0.11991,-0.19403 0.28805,-0.35278 0.3736,-0.35278 0.0856,0 0.15557,0.15875 0.15557,0.35278 0,0.19403 -0.16813,0.35278 -0.37359,0.35278 -0.20549,0 -0.27549,-0.15875 -0.15558,-0.35278 z M 406.91655,234.83748 c -1.4037,-0.31169 -3.43715,-1.20929 -5.75229,-2.53918 -17.34474,-9.96326 -17.86311,-10.29724 -17.99191,-11.59213 -0.10132,-1.01868 0.009,-1.13089 1.76389,-1.78993 1.02958,-0.38671 3.25734,-1.36584 4.95057,-2.17583 2.09359,-1.00153 3.31646,-1.39724 3.82199,-1.23679 0.40887,0.12977 2.1191,1.03694 3.80058,2.01593 8.59698,5.00544 10.85871,6.26023 11.29012,6.26373 0.60484,0.005 7.55195,-3.79951 14.57438,-7.98132 1.0964,-0.65289 2.07606,-1.18708 2.17706,-1.18708 0.10097,0 1.58518,-0.80998 3.29819,-1.79996 1.71306,-0.98998 5.17839,-2.95474 7.70076,-4.36614 4.92615,-2.75645 5.2379,-2.93315 10.58333,-5.99883 1.94028,-1.11278 4.55965,-2.58309 5.82083,-3.26736 1.26118,-0.68427 2.68993,-1.51423 3.175,-1.84435 0.48507,-0.33012 1.14529,-0.69489 1.46713,-0.81059 0.32188,-0.11571 1.64776,-0.85592 2.94647,-1.64491 1.29872,-0.78899 2.47922,-1.43453 2.62333,-1.43453 0.14414,0 0.52479,-0.29031 0.84589,-0.64514 0.53393,-0.58998 0.58385,-3.29101 0.58385,-31.5968 0,-20.1078 -0.1245,-31.18427 -0.35532,-31.6156 -0.19544,-0.36516 -1.98138,-1.57158 -3.96875,-2.68092 -1.98741,-1.10935 -5.49787,-3.10201 -7.80108,-4.42816 -2.30318,-1.32613 -4.24222,-2.41115 -4.309,-2.41115 -0.0667,0 -1.27794,-0.68676 -2.69152,-1.52612 -1.41358,-0.83937 -4.07829,-2.36864 -5.92155,-3.39838 -7.52338,-4.20293 -12.24104,-6.87268 -22.07955,-12.49493 -4.28562,-2.44904 -8.14723,-4.4528 -8.58136,-4.4528 -0.43416,0 -1.84898,0.61588 -3.14409,1.36862 -2.62777,1.52732 -15.41689,8.77849 -22.46306,12.73611 -6.92499,3.88956 -19.85578,11.22105 -22.04861,12.5011 -1.06715,0.62295 -2.69085,1.51717 -3.60821,1.98716 -0.91736,0.46999 -2.26674,1.26118 -2.99861,1.7582 l -1.33068,0.90368 -0.0901,31.13522 c -0.0562,19.40057 0.0375,31.37375 0.24857,31.76807 0.38333,0.71626 14.89071,8.88661 17.26018,9.72068 3.47497,1.22322 6.61053,0.47023 8.67805,-2.08397 l 1.06719,-1.31836 0.17639,-32.10147 0.17639,-32.10147 0.83284,-0.67428 c 0.70993,-0.57478 1.42,-0.67429 4.8116,-0.67429 3.39193,0 4.10161,0.0995 4.81161,0.67441 l 0.83284,0.67441 v 32.39851 c 0,35.37955 0.0159,35.07809 -2.03571,39.0085 -3.81896,7.317 -13.85721,9.97948 -23.54276,6.24434 -1.54295,-0.59502 -3.88024,-1.68012 -5.19399,-2.41132 -1.31377,-0.73121 -4.61115,-2.56325 -7.32754,-4.07121 -8.7503,-4.8576 -9.99317,-5.97357 -11.48634,-10.31355 -0.65804,-1.91263 -0.68449,-3.23994 -0.68449,-34.33464 0,-30.93056 0.0296,-32.43085 0.67454,-34.30568 1.10762,-3.21938 2.82085,-5.38681 5.49907,-6.95702 3.5046,-2.0547 5.80047,-3.362 7.76111,-4.41928 1.16416,-0.62779 5.92666,-3.32534 10.58333,-5.99457 4.65667,-2.66923 11.32417,-6.44703 14.81667,-8.39511 3.4925,-1.94809 7.85812,-4.41561 9.70138,-5.48338 1.84327,-1.06777 5.17702,-2.96552 7.40834,-4.21723 2.23132,-1.25171 4.21569,-2.39526 4.40972,-2.54122 0.45092,-0.33921 3.53593,-1.29238 5.01886,-1.55067 1.50763,-0.26257 4.84001,0.3751 6.61162,1.26519 1.2094,0.60763 12.14113,6.75556 19.94313,11.21588 6.13255,3.50593 10.6336,6.04071 12.87639,7.25137 1.35819,0.73316 3.58069,1.99489 4.93889,2.80385 1.35819,0.80895 6.31557,3.6496 11.01636,6.31255 9.11088,5.16118 9.88561,5.78464 11.66224,9.38476 l 0.95751,1.94028 0.10142,32.80833 c 0.0707,22.87395 -0.0155,33.28903 -0.28448,34.39584 -0.57785,2.37717 -2.42111,5.17452 -4.40305,6.68211 -0.97014,0.73795 -3.98639,2.58152 -6.70278,4.09682 -6.32129,3.52625 -20.94354,11.7907 -22.75417,12.86059 -0.29104,0.17198 -2.43416,1.37314 -4.7625,2.66926 -2.32833,1.29612 -6.21771,3.50477 -8.64305,4.9081 -2.42535,1.40334 -5.28285,3.02992 -6.35,3.61463 -1.06715,0.58471 -3.26214,1.81373 -4.87772,2.73116 -4.62301,2.62522 -7.37175,3.37747 -10.11534,2.76826 z m -301.87106,-1.53912 c -24.72671,-2.05589 -46.72603,-17.34137 -58.29953,-40.50745 -8.05034,-16.11397 -9.15163,-38.16482 -2.78993,-55.86197 1.18113,-3.2857 4.60164,-10.12636 6.71128,-13.42183 7.20984,-11.26254 18.04919,-20.93718 29.92981,-26.71379 20.58088,-10.00687 46.79064,-9.10455 66.30329,2.2826 22.89972,13.36378 36.53326,36.64982 36.53113,62.39509 -0.002,19.81151 -7.10223,36.91345 -21.18278,51.01916 -11.26975,11.28988 -24.44758,18.00233 -39.81714,20.28184 -4.49126,0.6661 -12.71195,0.91498 -17.38613,0.52635 z m 16.04698,-44.52445 c 0.32446,-0.24254 3.8507,-5.28285 7.83607,-11.2007 4.69718,-6.97479 7.45488,-10.75972 7.83954,-10.75972 0.38394,0 3.02751,3.61294 7.489,10.23513 3.79258,5.62931 7.17644,10.62994 7.51969,11.1125 0.60229,0.84672 0.78061,0.88043 5.10369,0.96503 4.42993,0.0867 5.73749,-0.0479 5.73749,-0.59074 0,-0.15353 -4.52437,-6.59604 -10.05417,-14.31667 -5.52979,-7.72064 -10.05416,-14.32932 -10.05416,-14.68597 0,-0.35665 4.07211,-6.08751 9.04914,-12.73525 l 9.04913,-12.08681 -4.87601,-0.0985 c -2.86294,-0.0579 -5.01911,0.0446 -5.22263,0.24808 -0.19064,0.19064 -3.21949,4.3604 -6.73076,9.26613 -3.51129,4.90573 -6.63926,8.96855 -6.95106,9.02849 -0.39535,0.076 -2.51167,-2.72491 -6.99351,-9.25578 l -6.4266,-9.36477 h -5.26552 c -2.89603,0 -5.26551,0.0974 -5.26551,0.21648 0,0.11906 4.1275,5.82206 9.17222,12.67333 5.04472,6.85127 9.17222,12.63154 9.17222,12.84505 0,0.21352 -4.38145,6.52439 -9.73655,14.02417 -5.3551,7.49978 -9.81286,13.83483 -9.90613,14.07789 -0.20769,0.54123 0.9881,0.71077 5.55234,0.78718 2.2288,0.0373 3.57217,-0.0931 3.96208,-0.38451 z m -29.30045,-0.59332 c 5.3818,-1.37643 10.0311,-4.64407 12.74747,-8.95921 0.74283,-1.18005 2.33957,-5.32 2.33957,-6.06594 0,-0.42766 -0.68746,-0.52112 -3.83352,-0.52112 h -3.83351 l -0.72296,1.73962 c -2.2749,5.47404 -9.02048,8.57935 -16.32424,7.51481 -8.17566,-1.19161 -13.15806,-6.77733 -13.84298,-15.51923 -0.0815,-1.04002 0.0258,-2.08601 0.24413,-2.38066 0.33538,-0.45257 3.08456,-0.53791 19.79225,-0.61436 l 19.40278,-0.0888 -0.0649,-3.22093 c -0.15893,-7.88398 -3.36387,-15.58631 -8.39474,-20.17485 -3.75142,-3.42159 -6.7584,-4.74168 -12.20668,-5.35887 -14.028,-1.58912 -25.47613,8.16869 -27.2369,23.21537 -0.70333,6.01028 0.62876,13.58787 3.36137,19.12123 2.72507,5.51809 7.89837,9.6568 14.10264,11.28231 3.63225,0.95164 10.80968,0.96683 14.47025,0.0306 z M 68.86726,156.87846 c -1.11979,-0.45184 0.089,-5.56346 2.03158,-8.59064 3.21899,-5.01637 9.16575,-7.65293 15.16255,-6.7225 6.74546,1.04659 11.73621,6.0202 13.03912,12.99431 0.49812,2.66631 1.16439,2.55612 -15.26539,2.52462 -7.98979,-0.0153 -14.72532,-0.10792 -14.96786,-0.20579 z m -107.15624,69.19782 c -1.93917,-0.59758 -10.95365,-4.83605 -14.81667,-6.96656 -4.15552,-2.29183 -9.03095,-5.33248 -11.51168,-7.17947 -1.09268,-0.81353 -2.34288,-1.66978 -2.77823,-1.90277 -1.43135,-0.76603 -9.6272,-7.78368 -13.34071,-11.42289 -6.273859,-6.14833 -12.721448,-14.22301 -16.370923,-20.50221 -6.459187,-11.11352 -10.063857,-24.74155 -10.684137,-40.39306 -0.59172,-14.93089 2.12134,-29.05431 6.76004,-35.19084 3.243825,-4.29124 19.021606,-10.37076 32.40342,-12.48574 5.12525,-0.81004 15.33688,-1.70571 21.32629,-1.87055 3.58029,-0.0985 9.23237,-0.35429 12.56017,-0.56835 5.42526,-0.34897 6.703,-0.31434 12.36398,0.3351 3.4724,0.39835 8.21845,0.89255 10.54678,1.09821 14.68154,1.2968 33.49662,7.3807 39.09876,12.64267 2.9367,2.75837 5.42246,9.80978 6.98405,19.81173 0.61421,3.93409 0.6077,20.17012 -0.01,24.51805 -1.46895,10.34241 -2.7915,15.59636 -5.87921,23.35571 -5.67939,14.27217 -18.6311,29.63099 -34.7257,41.17954 -4.76132,3.41645 -10.53006,7.05296 -13.75796,8.67278 -1.26098,0.63279 -2.67428,1.40055 -3.14068,1.70614 -0.46639,0.30559 -1.65718,0.90087 -2.6462,1.32285 -0.98902,0.42197 -3.38572,1.4721 -5.32599,2.33361 -4.20613,1.86757 -5.19645,2.07897 -7.05556,1.50605 z m 3.52227,-22.32992 c -0.20523,-0.50702 -0.29094,-0.46829 -0.57003,0.25755 -0.23467,0.61033 -0.19939,0.9351 0.12353,1.13724 0.53699,0.33612 0.80644,-0.5056 0.4465,-1.39479 z m 261.59021,19.88871 c -2.44863,-0.68134 -4.33458,-1.7771 -5.74435,-3.33753 -5.21402,-5.77131 -6.5382,-16.5036 -3.9104,-31.69308 0.30985,-1.79094 0.48109,-3.47066 0.38051,-3.73272 -0.10058,-0.26206 -1.42843,-0.91229 -2.95081,-1.44497 -5.7755,-2.02079 -11.67211,-4.79736 -15.79122,-7.43567 -3.47666,-2.22683 -7.70709,-6.55765 -9.23644,-9.45565 -1.27681,-2.41946 -1.34337,-2.70848 -1.35768,-5.89557 -0.0139,-3.10089 0.073,-3.53057 1.16273,-5.74867 1.47054,-2.99322 5.19884,-6.81072 9.3475,-9.57115 3.65182,-2.42982 10.56891,-5.75057 15.12616,-7.26173 1.87092,-0.62039 3.48287,-1.33956 3.58211,-1.59816 0.0992,-0.2586 -0.22754,-2.82177 -0.72616,-5.69593 -1.07089,-6.17287 -1.30486,-14.82306 -0.51654,-19.09763 1.15567,-6.26652 4.19665,-11.27989 7.94188,-13.09292 3.74907,-1.8149 9.89591,-1.68393 14.51077,0.30918 6.58297,2.84312 13.78186,7.47771 18.51677,11.92098 0.87535,0.82144 1.83403,1.49621 2.13036,1.4995 0.29633,0.003 0.9368,-0.43059 1.42328,-0.96416 1.08934,-1.19487 2.42295,-2.28544 6.50092,-5.31607 4.83679,-3.5946 9.35087,-6.07459 14.29117,-7.85142 1.88616,-0.67837 3.01293,-0.82744 6.35,-0.84008 3.9183,-0.0148 4.13801,0.0253 6.42927,1.1752 4.3567,2.18643 7.16389,7.13692 8.0216,14.14603 0.57637,4.71005 0.43381,10.73068 -0.39391,16.63695 -1.15052,8.20982 -1.54566,7.17355 3.40554,8.93125 8.64249,3.06815 17.68087,8.50765 21.24685,12.78685 2.6991,3.23899 3.6831,5.43863 3.87953,8.67253 0.14281,2.35149 0.0377,3.29053 -0.55573,4.96677 -0.72866,2.058 -2.79943,5.10613 -4.81489,7.08745 -3.97411,3.90679 -11.99977,8.47658 -19.55694,11.13566 -2.21897,0.78078 -4.11261,1.49772 -4.20811,1.5932 -0.17413,0.17415 0.25273,3.58886 1.18932,9.51387 1.22107,7.7246 0.32181,17.05949 -2.14101,22.225 -1.6601,3.48186 -2.95063,4.87703 -5.85561,6.33034 -2.37021,1.18577 -2.69974,1.25438 -6.02432,1.25438 -2.82144,0 -4.12013,-0.18708 -6.56717,-0.94603 -5.32585,-1.65181 -12.03071,-5.56785 -17.92848,-10.47131 -3.51279,-2.92056 -4.52508,-3.54476 -5.14922,-3.17505 -0.23851,0.1413 -1.78304,1.39532 -3.43228,2.78672 -5.61767,4.73943 -10.46624,7.76927 -16.1036,10.06302 -5.00704,2.03731 -9.02458,2.54971 -12.4714,1.59062 z m 5.99723,-6.22092 c 4.54176,-0.73363 11.35722,-4.3819 17.26056,-9.23949 3.21526,-2.64568 4.25888,-3.64837 4.25888,-4.09183 0,-0.18346 -1.88221,-2.55438 -4.18271,-5.26871 -2.3005,-2.71434 -4.91631,-5.88851 -5.81293,-7.05372 -1.79299,-2.33015 -2.46846,-2.61489 -7.29047,-3.07324 -2.53295,-0.24077 -7.26024,-1.06925 -10.17711,-1.78359 -2.0694,-0.50679 -2.75544,-0.39541 -3.02934,0.49182 -0.76588,2.48078 -1.61008,10.02447 -1.61015,14.38802 -1e-4,7.33955 1.2029,11.88626 3.79621,14.34754 1.69146,1.60538 3.12021,1.87551 6.78706,1.2832 z m 59.15063,-0.66181 c 1.44505,-0.88112 2.77114,-3.17086 3.71997,-6.42323 1.06906,-3.6644 1.07996,-12.74577 0.0226,-18.8008 -0.77579,-4.44281 -1.29879,-5.38813 -2.74461,-4.961 -1.51052,0.44623 -9.70171,1.9009 -13.0502,2.31757 -3.21688,0.40031 -3.61499,0.53419 -4.55196,1.53086 -0.56473,0.60071 -1.28027,1.50138 -1.59008,2.0015 -0.58078,0.9375 -1.76851,2.35684 -6.47234,7.73445 -1.50372,1.7191 -2.73403,3.42295 -2.73403,3.78633 0,0.742 1.22114,1.9594 4.58611,4.57212 5.05806,3.9273 10.31688,6.93244 14.46389,8.26538 2.73283,0.87838 6.89098,0.86684 8.35064,-0.0232 z m -28.6355,-21.55808 c 2.00681,-2.29199 3.33594,-4.10003 3.22555,-4.3877 -0.14873,-0.38757 -1.56707,-0.51241 -6.82187,-0.60043 -6.75432,-0.11315 -8.10856,0.0542 -7.61238,0.94061 0.79632,1.42257 6.7081,7.93282 7.20908,7.93886 0.32248,0.004 2.12231,-1.74722 3.99962,-3.89134 z m 8.74557,-11.8007 c 0.82487,-0.34256 8.01152,-11.38763 8.01152,-12.3128 0,-0.15279 0.29852,-0.69918 0.66336,-1.2142 1.06345,-1.50117 4.6283,-8.62496 4.6283,-9.24893 0,-0.83118 -3.0583,-6.94227 -5.81494,-11.61942 -4.10252,-6.96073 -6.89973,-10.92335 -7.91175,-11.20817 -0.50249,-0.14141 -6.25863,-0.2571 -12.79147,-0.2571 h -11.87789 l -0.94918,0.88194 c -1.00753,0.93618 -4.04033,5.46541 -5.4331,8.11389 -0.45914,0.87312 -1.02887,1.82562 -1.26605,2.11667 -0.64463,0.79103 -5.81166,10.64572 -6.02734,11.49547 -0.22677,0.89338 3.24121,8.04778 6.43216,13.26946 3.20798,5.24962 4.32071,6.95906 5.507,8.46016 l 1.31886,1.66883 2.56169,0.14497 c 4.05787,0.22963 22.25079,-7.1e-4 22.94883,-0.29077 z M 255.04572,173.0475 c -2.62276,-0.97555 -3.69065,-1.69397 -5.56267,-3.74225 -1.28587,-1.40697 -1.98381,-2.57083 -2.49618,-4.16267 -1.14914,-3.57003 -1.21497,-4.36444 -0.59323,-7.15899 0.79498,-3.57329 2.75858,-6.4951 5.59858,-8.33069 2.84184,-1.83676 4.12898,-2.1654 7.84264,-2.00243 3.87241,0.16995 6.27493,1.18226 8.6813,3.65793 2.45603,2.52674 3.55293,5.01658 3.74304,8.49642 0.31902,5.83807 -2.44775,10.40087 -7.76891,12.81225 -2.02314,0.9168 -2.77826,1.07155 -5.11528,1.04825 -1.63103,-0.0163 -3.38493,-0.26656 -4.32929,-0.61782 z m -18.15965,8.74545 c 0.12453,-0.20151 -0.55136,-1.66994 -1.50196,-3.26319 -0.95063,-1.59325 -2.5116,-4.28484 -3.46882,-5.9813 -1.6516,-2.92713 -2.29479,-3.55175 -2.80582,-2.7249 -0.12379,0.20033 -0.90967,2.38314 -1.74636,4.8507 -0.99617,2.93777 -1.4194,4.67913 -1.22608,5.04464 0.27048,0.5115 2.1112,1.00218 7.74203,2.06381 2.25044,0.4243 2.75004,0.426 3.00701,0.0102 z m 50.42679,-0.51805 c 2.51573,-0.48431 4.78871,-1.09524 5.05107,-1.35761 0.40086,-0.40086 0.21841,-1.26839 -1.14264,-5.43289 -0.91261,-2.79238 -1.84387,-5.04189 -2.13322,-5.15291 -0.51283,-0.1968 -0.68834,0.0685 -4.75265,7.18339 -0.83125,1.45521 -1.75627,3.05566 -2.05553,3.55656 -0.51675,0.86491 -0.40916,2.09009 0.18323,2.08596 0.15162,-0.001 2.33398,-0.39818 4.84974,-0.8825 z m -66.2729,-7.75863 c 0.79661,-2.32833 1.8803,-5.34458 2.4082,-6.70278 0.5279,-1.35819 1.28556,-3.32686 1.68363,-4.37481 l 0.7238,-1.90537 -1.79575,-4.44463 c -0.98763,-2.44455 -2.29432,-6.03213 -2.90378,-7.97241 -1.38042,-4.39493 -1.46505,-4.56062 -2.40037,-4.69964 -1.9256,-0.28621 -11.85884,4.07437 -16.97941,7.45376 -2.45593,1.62082 -5.61091,4.83183 -6.55456,6.67096 -2.12248,4.13663 -0.0125,8.17199 6.66576,12.74839 3.98134,2.72827 7.88691,4.60346 15.41102,7.39929 0.29105,0.10814 0.92605,0.16601 1.41111,0.1286 0.79753,-0.0615 1.02063,-0.4733 2.33035,-4.30136 z m 80.60799,4.01832 c 10.90916,-3.56066 20.51784,-10.03337 22.29672,-15.01976 0.62032,-1.73889 0.6187,-1.83448 -0.0648,-3.77927 -0.78578,-2.23566 -1.82774,-3.62628 -4.22818,-5.64298 -3.8165,-3.20636 -10.99686,-7.06791 -17.09445,-9.19327 -2.60389,-0.9076 -2.79658,-0.92813 -3.41962,-0.36431 -0.36311,0.32861 -0.76422,1.09696 -0.89133,1.70743 -0.30557,1.46751 -1.84516,5.80503 -3.83748,10.81134 -0.88794,2.23132 -1.61477,4.23453 -1.61515,4.45159 -3.6e-4,0.21705 0.93309,2.75705 2.07433,5.64444 1.14127,2.88739 2.43484,6.36105 2.87461,7.71925 1.25536,3.87717 1.34602,4.05694 2.04572,4.05694 0.36329,0 1.20012,-0.17613 1.85967,-0.3914 z m -70.37588,-27.56624 c 0.51297,-1.01864 2.03937,-3.73355 3.39199,-6.03313 1.64966,-2.8046 2.34244,-4.29791 2.10432,-4.53602 -0.19523,-0.19523 -1.04426,-0.27757 -1.88673,-0.18297 -1.8918,0.21243 -7.89164,1.52354 -8.39466,1.83444 -0.78751,0.48671 -0.37472,2.33852 1.92472,8.63468 0.31521,0.86299 0.65176,1.69643 0.74796,1.85208 0.44856,0.72578 1.26044,0.12274 2.1124,-1.56908 z m 59.64029,-2.58592 c 0.80895,-2.31278 1.48364,-4.64502 1.4993,-5.18275 0.0332,-1.14358 -0.34022,-1.33475 -4.20483,-2.15188 -4.05285,-0.85692 -6.22434,-1.06334 -6.49964,-0.61783 -0.20804,0.33657 1.94345,4.34196 4.6144,8.59054 0.4548,0.72345 0.82691,1.4561 0.82691,1.62812 0,0.57931 1.48456,2.20611 1.89068,2.07185 0.2213,-0.0731 1.06426,-2.02528 1.87318,-4.33805 z m -64.24108,-12.99508 c 0.95684,-0.27486 2.61285,-0.61209 3.68,-0.74939 1.06715,-0.1373 2.3005,-0.38589 2.7408,-0.55242 0.44027,-0.16653 2.65698,-0.491 4.92605,-0.72104 4.68023,-0.47449 4.27683,-0.22807 7.67898,-4.69068 1.16417,-1.52703 3.60282,-4.49998 5.4192,-6.60655 3.85787,-4.47417 3.9086,-3.89774 -0.67169,-7.6329 -4.85673,-3.96061 -9.95719,-7.10094 -13.81524,-8.50595 -9.28708,-3.38216 -13.08452,-0.69417 -14.41442,10.20313 -0.47202,3.86765 -0.2485,8.07884 0.76771,14.46389 0.4844,3.04341 0.8811,4.54635 1.28044,4.85069 0.31821,0.24254 0.59881,0.44097 0.6235,0.44097 0.0247,0 0.82783,-0.22489 1.78467,-0.49975 z m 68.05665,-0.19723 c 0.11698,-0.18931 0.54741,-2.53087 0.95649,-5.20347 1.7248,-11.26882 0.43437,-21.26778 -3.10395,-24.05101 -3.56302,-2.80269 -10.37234,-1.31244 -18.48475,4.0455 -4.24222,2.80182 -9.66057,7.22344 -9.81138,8.0065 -0.0683,0.35441 0.86593,1.65467 2.29041,3.188 1.32313,1.42422 3.96557,4.59763 5.87213,7.05203 2.90748,3.74302 3.64694,4.4909 4.58611,4.63851 0.61581,0.0968 2.54843,0.34548 4.29468,0.55265 3.12039,0.3702 10.0893,1.69559 10.37756,1.97368 0.30578,0.29505 2.81929,0.12675 3.0227,-0.20239 z m -28.13935,-3.76831 c 0.0747,-0.22458 -0.54716,-1.19451 -1.38197,-2.15538 -0.83482,-0.96087 -2.36062,-2.72181 -3.39073,-3.91319 -1.03067,-1.19208 -2.16524,-2.16614 -2.5231,-2.16614 -0.38823,0 -2.02078,1.57666 -4.05208,3.91338 -2.76782,3.18396 -3.32397,4.00724 -2.9839,4.41701 0.34121,0.41113 1.68339,0.4861 7.30695,0.40815 4.8291,-0.0669 6.92961,-0.21758 7.02483,-0.50383 z m 150.47023,61.26163 c -6.26858,-0.87891 -12.32708,-3.49723 -15.64012,-6.75923 -2.6349,-2.59434 -4.42419,-6.21996 -4.96027,-10.05116 -0.66386,-4.74412 0.0188,-5.41373 5.51924,-5.41373 4.66351,0 4.9172,0.14077 5.84035,3.24047 2.04022,6.85069 5.41037,8.49799 17.44299,8.526 7.10949,0.0166 9.65651,-0.30818 12.35089,-1.57467 4.10397,-1.9291 5.38977,-7.5326 2.18196,-9.50898 -2.53982,-1.56484 -7.90716,-2.72599 -17.07684,-3.69434 -13.49918,-1.42556 -20.33101,-4.32409 -23.00785,-9.76149 -1.54418,-3.13672 -2.00307,-5.95028 -1.54114,-9.44914 1.45238,-11.00057 12.67763,-16.86824 29.77913,-15.56612 8.73326,0.66495 14.15158,2.6233 18.15278,6.56099 2.55362,2.51306 4.06841,5.44673 4.89645,9.48277 0.58702,2.86126 0.50102,3.83709 -0.4318,4.89938 -0.4579,0.52145 -1.17905,0.61736 -4.64227,0.61736 -4.89585,0 -5.33781,-0.21658 -6.22995,-3.05283 -1.91216,-6.07934 -5.65891,-7.89044 -16.29784,-7.87807 -6.59289,0.008 -11.09698,1.2779 -12.1902,3.43783 -1.19232,2.35578 -1.36821,3.51567 -0.73533,4.84934 0.32981,0.69503 1.0148,1.47703 1.5222,1.73777 1.67859,0.86255 6.82371,1.95683 14.15175,3.00982 14.04246,2.01782 18.75162,3.3557 22.6677,6.43991 1.37933,1.08631 3.46816,3.96586 4.11851,5.67753 0.59591,1.56841 0.83308,6.55735 0.4276,8.99492 -1.20492,7.24345 -7.27079,12.53493 -16.88744,14.73154 -2.81785,0.64364 -15.9778,0.98543 -19.4105,0.50413 z"
         style="fill:#6ddafb;fill-opacity:1;stroke-width:1.24568" />
      <path
         id="path1263"
         d="m 520.51099,356.07877 c 0.11991,-0.19403 0.28805,-0.35278 0.3736,-0.35278 0.0856,0 0.15557,0.15875 0.15557,0.35278 0,0.19403 -0.16813,0.35278 -0.37359,0.35278 -0.20549,0 -0.27549,-0.15875 -0.15558,-0.35278 z M 406.91655,234.83748 c -1.4037,-0.31169 -3.43715,-1.20929 -5.75229,-2.53918 -17.34474,-9.96326 -17.86311,-10.29724 -17.99191,-11.59213 -0.10132,-1.01868 0.009,-1.13089 1.76389,-1.78993 1.02958,-0.38671 3.25734,-1.36584 4.95057,-2.17583 2.09359,-1.00153 3.31646,-1.39724 3.82199,-1.23679 0.40887,0.12977 2.1191,1.03694 3.80058,2.01593 8.59698,5.00544 10.85871,6.26023 11.29012,6.26373 0.60484,0.005 7.55195,-3.79951 14.57438,-7.98132 1.0964,-0.65289 2.07606,-1.18708 2.17706,-1.18708 0.10097,0 1.58518,-0.80998 3.29819,-1.79996 1.71306,-0.98998 5.17839,-2.95474 7.70076,-4.36614 4.92615,-2.75645 5.2379,-2.93315 10.58333,-5.99883 1.94028,-1.11278 4.55965,-2.58309 5.82083,-3.26736 1.26118,-0.68427 2.68993,-1.51423 3.175,-1.84435 0.48507,-0.33012 1.14529,-0.69489 1.46713,-0.81059 0.32188,-0.11571 1.64776,-0.85592 2.94647,-1.64491 1.29872,-0.78899 2.47922,-1.43453 2.62333,-1.43453 0.14414,0 0.52479,-0.29031 0.84589,-0.64514 0.53393,-0.58998 0.58385,-3.29101 0.58385,-31.5968 0,-20.1078 -0.1245,-31.18427 -0.35532,-31.6156 -0.19544,-0.36516 -1.98138,-1.57158 -3.96875,-2.68092 -1.98741,-1.10935 -5.49787,-3.10201 -7.80108,-4.42816 -2.30318,-1.32613 -4.24222,-2.41115 -4.309,-2.41115 -0.0667,0 -1.27794,-0.68676 -2.69152,-1.52612 -1.41358,-0.83937 -4.07829,-2.36864 -5.92155,-3.39838 -7.52338,-4.20293 -12.24104,-6.87268 -22.07955,-12.49493 -4.28562,-2.44904 -8.14723,-4.452796 -8.58136,-4.452796 -0.43416,0 -1.84898,0.615879 -3.14409,1.368619 -2.62777,1.527317 -15.41689,8.778487 -22.46306,12.736107 -6.92499,3.88956 -19.85578,11.22105 -22.04861,12.5011 -1.06715,0.62295 -2.69085,1.51717 -3.60821,1.98716 -0.91736,0.46999 -2.26674,1.26118 -2.99861,1.7582 l -1.33068,0.90368 -0.0901,31.13522 c -0.0562,19.40057 0.0375,31.37375 0.24857,31.76807 0.38333,0.71626 14.89071,8.88661 17.26018,9.72068 3.47497,1.22322 6.61053,0.47023 8.67805,-2.08397 l 1.06719,-1.31836 0.17639,-32.10147 0.17639,-32.10147 0.83284,-0.67428 c 0.70993,-0.57478 1.42,-0.67429 4.8116,-0.67429 3.39193,0 4.10161,0.0995 4.81161,0.67441 l 0.83284,0.67441 v 32.39851 c 0,35.37955 0.0159,35.07809 -2.03571,39.0085 -3.81896,7.317 -13.85721,9.97948 -23.54276,6.24434 -1.54295,-0.59502 -3.88024,-1.68012 -5.19399,-2.41132 -1.31377,-0.73121 -4.61115,-2.56325 -7.32754,-4.07121 -8.7503,-4.8576 -9.99317,-5.97357 -11.48634,-10.31355 -0.65804,-1.91263 -0.68449,-3.23994 -0.68449,-34.33464 0,-30.93056 0.0296,-32.43085 0.67454,-34.30568 1.10762,-3.21938 2.82085,-5.38681 5.49907,-6.95702 3.5046,-2.0547 5.80047,-3.362 7.76111,-4.41928 1.16416,-0.62779 5.92666,-3.32534 10.58333,-5.99457 4.65667,-2.66923 11.32417,-6.44703 14.81667,-8.39511 3.4925,-1.948086 7.85812,-4.415605 9.70138,-5.483378 1.84327,-1.06777 5.17702,-2.965524 7.40834,-4.217233 2.23132,-1.251708 4.21569,-2.395252 4.40972,-2.541213 0.45092,-0.339217 3.53593,-1.292384 5.01886,-1.55067 1.50763,-0.262576 4.84001,0.375101 6.61162,1.265188 1.2094,0.607624 12.14113,6.75556 19.94313,11.215878 6.13255,3.505928 10.6336,6.040708 12.87639,7.251368 1.35819,0.73316 3.58069,1.99489 4.93889,2.80385 1.35819,0.80895 6.31557,3.6496 11.01636,6.31255 9.11088,5.16118 9.88561,5.78464 11.66224,9.38476 l 0.95751,1.94028 0.10142,32.80833 c 0.0707,22.87395 -0.0155,33.28903 -0.28448,34.39584 -0.57785,2.37717 -2.42111,5.17452 -4.40305,6.68211 -0.97014,0.73795 -3.98639,2.58152 -6.70278,4.09682 -6.32129,3.52625 -20.94354,11.7907 -22.75417,12.86059 -0.29104,0.17198 -2.43416,1.37314 -4.7625,2.66926 -2.32833,1.29612 -6.21771,3.50477 -8.64305,4.9081 -2.42535,1.40334 -5.28285,3.02992 -6.35,3.61463 -1.06715,0.58471 -3.26214,1.81373 -4.87772,2.73116 -4.62301,2.62522 -7.37175,3.37747 -10.11534,2.76826 z m -301.87106,-1.53912 c -24.726719,-2.05589 -46.726039,-17.34137 -58.299531,-40.50745 -8.05034,-16.11397 -9.151634,-38.16482 -2.789933,-55.86197 1.181132,-3.2857 4.601644,-10.12636 6.711276,-13.42183 7.209846,-11.26254 18.04919,-20.93718 29.929818,-26.713792 20.58088,-10.006866 46.79064,-9.104548 66.30329,2.282603 22.89972,13.363779 36.53326,36.649819 36.53113,62.395089 -0.002,19.81151 -7.10223,36.91345 -21.18278,51.01916 -11.26975,11.28988 -24.44758,18.00233 -39.81714,20.28184 -4.49126,0.6661 -12.71195,0.91498 -17.38613,0.52635 z m 16.04698,-44.52445 c 0.32446,-0.24254 3.8507,-5.28285 7.83607,-11.2007 4.69718,-6.97479 7.45488,-10.75972 7.83954,-10.75972 0.38394,0 3.02751,3.61294 7.489,10.23513 3.79258,5.62931 7.17644,10.62994 7.51969,11.1125 0.60229,0.84672 0.78061,0.88043 5.10369,0.96503 4.42993,0.0867 5.73749,-0.0479 5.73749,-0.59074 0,-0.15353 -4.52437,-6.59604 -10.05417,-14.31667 -5.52979,-7.72064 -10.05416,-14.32932 -10.05416,-14.68597 0,-0.35665 4.07211,-6.08751 9.04914,-12.73525 l 9.04913,-12.08681 -4.87601,-0.0985 c -2.86294,-0.0579 -5.01911,0.0446 -5.22263,0.24808 -0.19064,0.19064 -3.21949,4.3604 -6.73076,9.26613 -3.51129,4.90573 -6.63926,8.96855 -6.95106,9.02849 -0.39535,0.076 -2.51167,-2.72491 -6.99351,-9.25578 l -6.4266,-9.36477 h -5.26552 c -2.89603,0 -5.26551,0.0974 -5.26551,0.21648 0,0.11906 4.1275,5.82206 9.17222,12.67333 5.04472,6.85127 9.17222,12.63154 9.17222,12.84505 0,0.21352 -4.38145,6.52439 -9.73655,14.02417 -5.3551,7.49978 -9.81286,13.83483 -9.90613,14.07789 -0.20769,0.54123 0.9881,0.71077 5.55234,0.78718 2.2288,0.0373 3.57217,-0.0931 3.96208,-0.38451 z m -29.300456,-0.59332 c 5.381798,-1.37643 10.031106,-4.64407 12.747476,-8.95921 0.74283,-1.18005 2.33957,-5.32 2.33957,-6.06594 0,-0.42766 -0.68746,-0.52112 -3.83352,-0.52112 h -3.833519 l -0.722955,1.73962 c -2.274905,5.47404 -9.020485,8.57935 -16.324237,7.51481 -8.175667,-1.19161 -13.158061,-6.77733 -13.842982,-15.51923 -0.08149,-1.04002 0.02579,-2.08601 0.244133,-2.38066 0.335375,-0.45257 3.084554,-0.53791 19.79225,-0.61436 l 19.40278,-0.0888 -0.0649,-3.22093 c -0.15893,-7.88398 -3.36387,-15.58631 -8.394747,-20.17485 -3.751414,-3.42159 -6.7584,-4.74168 -12.206675,-5.35887 -14.028003,-1.58912 -25.476136,8.16869 -27.236902,23.21537 -0.703326,6.01028 0.628759,13.58787 3.361372,19.12123 2.725071,5.51809 7.898363,9.6568 14.102637,11.28231 3.632253,0.95164 10.809679,0.96683 14.470249,0.0306 z M 68.867259,156.87846 c -1.119791,-0.45184 0.08904,-5.56346 2.031573,-8.59064 3.218998,-5.01637 9.165755,-7.65293 15.162554,-6.7225 6.745457,1.04659 11.736214,6.0202 13.039118,12.99431 0.498122,2.66631 1.164396,2.55612 -15.265389,2.52462 -7.989785,-0.0153 -14.725321,-0.10792 -14.967856,-0.20579 z m -107.156246,69.19782 c -1.939163,-0.59758 -10.953644,-4.83605 -14.816667,-6.96656 -4.155521,-2.29183 -9.030952,-5.33248 -11.511681,-7.17947 -1.092677,-0.81353 -2.342879,-1.66978 -2.778228,-1.90277 -1.431349,-0.76603 -9.627202,-7.78368 -13.340714,-11.42289 -6.273856,-6.14833 -12.721445,-14.22301 -16.37092,-20.50221 -6.459183,-11.11352 -10.063853,-24.74155 -10.684133,-40.39306 -0.59172,-14.93089 2.12134,-29.05431 6.76004,-35.19084 3.243821,-4.29124 19.021602,-10.370762 32.403415,-12.485735 5.125247,-0.810038 15.336876,-1.705709 21.326291,-1.870551 3.580292,-0.09853 9.232367,-0.354295 12.560169,-0.56835 5.425256,-0.348971 6.702999,-0.314339 12.363985,0.335097 3.472392,0.398356 8.218442,0.892552 10.546775,1.098211 14.6815417,1.296801 33.496616,7.380697 39.098762,12.642668 2.936695,2.75837 5.422462,9.80978 6.984044,19.81173 0.614218,3.93409 0.607702,20.17012 -0.0098,24.51805 -1.468949,10.34241 -2.791499,15.59636 -5.879207,23.35571 -5.679387,14.27217 -18.6311005,29.63099 -34.7257006,41.17954 -4.7613214,3.41645 -10.5300564,7.05296 -13.7579624,8.67278 -1.260976,0.63279 -2.674278,1.40055 -3.140671,1.70614 -0.466394,0.30559 -1.657184,0.90087 -2.646204,1.32285 -0.989019,0.42197 -3.385717,1.4721 -5.325995,2.33361 -4.206127,1.86757 -5.196448,2.07897 -7.055555,1.50605 z m 3.522277,-22.32992 c -0.205232,-0.50702 -0.290949,-0.46829 -0.570032,0.25755 -0.234671,0.61033 -0.199393,0.9351 0.123529,1.13724 0.536984,0.33612 0.806439,-0.5056 0.446503,-1.39479 z m 451.82552,-12.06292 c -6.26858,-0.87891 -12.32708,-3.49723 -15.64012,-6.75923 -2.6349,-2.59434 -4.42419,-6.21996 -4.96027,-10.05116 -0.66386,-4.74412 0.0188,-5.41373 5.51924,-5.41373 4.66351,0 4.9172,0.14077 5.84035,3.24047 2.04022,6.85069 5.41037,8.49799 17.44299,8.526 7.10949,0.0166 9.65651,-0.30818 12.35089,-1.57467 4.10397,-1.9291 5.38977,-7.5326 2.18196,-9.50898 -2.53982,-1.56484 -7.90716,-2.72599 -17.07684,-3.69434 -13.49918,-1.42556 -20.33101,-4.32409 -23.00785,-9.76149 -1.54418,-3.13672 -2.00307,-5.95028 -1.54114,-9.44914 1.45238,-11.00057 12.67763,-16.86824 29.77913,-15.56612 8.73326,0.66495 14.15158,2.6233 18.15278,6.56099 2.55362,2.51306 4.06841,5.44673 4.89645,9.48277 0.58702,2.86126 0.50102,3.83709 -0.4318,4.89938 -0.4579,0.52145 -1.17905,0.61736 -4.64227,0.61736 -4.89585,0 -5.33781,-0.21658 -6.22995,-3.05283 -1.91216,-6.07934 -5.65891,-7.89044 -16.29784,-7.87807 -6.59289,0.008 -11.09698,1.2779 -12.1902,3.43783 -1.19232,2.35578 -1.36821,3.51567 -0.73533,4.84934 0.32981,0.69503 1.0148,1.47703 1.5222,1.73777 1.67859,0.86255 6.82371,1.95683 14.15175,3.00982 14.04246,2.01782 18.75162,3.3557 22.6677,6.43991 1.37933,1.08631 3.46816,3.96586 4.11851,5.67753 0.59591,1.56841 0.83308,6.55735 0.4276,8.99492 -1.20492,7.24345 -7.27079,12.53493 -16.88744,14.73154 -2.81785,0.64364 -15.9778,0.98543 -19.4105,0.50413 z"
         style="fill:#90c53f;stroke-width:1.24568;fill-opacity:1" />
      <path
         id="path1243"
         d="m 104.15914,231.97102 c -10.710288,-0.98671 -21.122608,-4.44947 -30.091338,-10.0073 -10.8196,-6.70479 -20.98499,-17.76479 -26.61419,-28.95642 -5.14774,-10.23442 -7.32363,-19.71993 -7.32363,-31.92639 0,-9.39476 1.30638,-17.13568 4.22408,-25.02947 6.04902,-16.36556 19.98168,-31.52254 36.16897,-39.347292 12.48368,-6.034465 26.974498,-8.101916 41.804158,-5.964326 14.86922,2.143291 28.7389,9.357528 39.72694,20.663728 13.48925,13.87985 20.24528,30.45762 20.24528,49.67736 0,19.73677 -6.94498,36.31325 -21.14016,50.45795 -9.69852,9.66403 -19.74208,15.43369 -32.56582,18.70788 -6.30044,1.60865 -17.27957,2.38342 -24.43429,1.72428 z M 89.737242,188.40615 c 7.58231,-1.31705 14.122078,-6.52678 16.360628,-13.03325 0.85225,-2.4771 0.89426,-3.56134 0.14908,-3.8473 -1.06614,-0.40911 -7.046618,-0.23122 -7.625898,0.22684 -0.30672,0.24254 -0.74443,1.03079 -0.9727,1.75168 -0.64656,2.04187 -3.25644,4.67744 -5.94019,5.99865 -2.15574,1.06127 -2.67989,1.16776 -6.31594,1.28323 -4.81708,0.15297 -7.73706,-0.59141 -10.73167,-2.73581 -3.08091,-2.20619 -4.82597,-4.90514 -5.77548,-8.93248 -0.447,-1.89596 -0.7224,-5.39389 -0.44468,-5.64807 0.0485,-0.0444 8.89882,-0.16346 19.66736,-0.26458 l 19.579168,-0.18387 0.10237,-2.69724 c 0.12521,-3.29895 -0.97445,-9.02411 -2.37304,-12.35475 -1.97177,-4.69564 -5.17131,-8.67718 -9.112418,-11.33962 -6.23389,-4.21135 -15.72898,-4.56362 -23.36552,-0.86687 -2.46109,1.19137 -3.57012,2.02557 -6.18682,4.65364 -3.54061,3.556 -5.46221,6.86442 -6.87992,11.84512 -2.14683,7.54226 -0.70319,18.98506 3.23649,25.65351 4.96333,8.40109 15.27462,12.46346 26.62918,10.49117 z m -21.219,-32.98643 c -0.12561,-0.20323 -0.0354,-1.19542 0.20034,-2.20486 1.09232,-4.67617 3.97423,-8.47365 7.96972,-10.50165 2.30991,-1.17245 2.51802,-1.21146 6.46214,-1.21146 3.83651,0 4.21231,0.0649 6.41195,1.10709 2.74449,1.30036 4.78799,3.04833 6.2542,5.34972 1.17014,1.83668 2.52172,5.55506 2.52172,6.93761 v 0.89308 h -14.79585 c -9.93036,0 -14.87095,-0.12152 -15.02422,-0.36953 z m 59.975568,22.32994 c 4.07074,-6.06336 7.5942,-11.0243 7.82991,-11.0243 0.23572,0 2.36775,2.89719 4.73786,6.43819 6.76513,10.10729 10.30139,15.23515 10.70416,15.52188 0.20414,0.14533 2.75242,0.2247 5.66284,0.17639 4.72234,-0.0784 5.29167,-0.15273 5.29167,-0.69089 0,-0.33166 -4.34748,-6.66664 -9.66107,-14.07773 -5.31358,-7.41108 -9.90171,-13.89402 -10.19585,-14.40652 -0.53113,-0.92543 -0.47346,-1.01404 8.40185,-12.90977 4.91515,-6.58787 9.00585,-12.33513 9.09045,-12.77169 0.15357,-0.79251 0.14615,-0.79375 -4.75877,-0.79375 -3.37666,0 -5.09915,0.13787 -5.50928,0.44097 -0.32817,0.24254 -3.43006,4.40972 -6.89308,9.26042 -3.46302,4.85069 -6.52267,8.86385 -6.79923,8.91813 -0.31218,0.0613 -2.88347,-3.38294 -6.78143,-9.08362 -4.23714,-6.19674 -6.5285,-9.24409 -7.0472,-9.37233 -0.42274,-0.10452 -2.99111,-0.1444 -5.7075,-0.0886 -4.24046,0.0871 -4.93339,0.18015 -4.9,0.65813 0.0214,0.30619 4.05638,6.02119 8.96665,12.7 4.91027,6.67881 8.98839,12.4608 9.0625,12.84885 0.0925,0.4843 -2.86793,4.90938 -9.44047,14.11111 -5.26635,7.37306 -9.72651,13.68665 -9.91145,14.03021 -0.64157,1.19185 -0.0238,1.33656 5.27918,1.23671 l 5.17692,-0.0975 z m -169.161278,36.32919 c -11.32058,-4.94953 -24.81215,-14.42966 -33.95691,-23.86054 -8.61997,-8.88967 -14.38905,-17.49521 -17.668872,-26.35606 -1.3944,-3.76714 -3.84359,-13.25067 -4.40815,-17.06884 -0.8914,-6.02865 -1.21354,-14.07521 -0.77822,-19.43897 0.23459,-2.89051 0.57949,-6.1286 0.76644,-7.19575 0.64548,-3.6846 2.1606,-9.05532 3.08993,-10.95309 0.82365,-1.68192 1.22042,-2.05859 3.401842,-3.22945 6.08396,-3.26552 14.29821,-5.72469 24.60625,-7.366582 1.11566,-0.177705 3.02066,-0.481775 4.23333,-0.675711 8.11459,-1.297717 29.21311,-1.876192 38.69868,-1.061028 5.37957,0.462304 10.40283,1.033522 12.36591,1.406183 0.87312,0.165749 3.175,0.568046 5.11527,0.893998 8.46248,1.42162 17.1316,4.19715 21.97417,7.0353 2.56515,1.5034 2.89354,1.94632 4.06573,5.48371 1.52899,4.61414 2.16874,8.43931 2.71403,16.22778 0.33827,4.83156 0.31518,6.90005 -0.13586,12.17084 -1.57916,18.45354 -6.07823,30.29884 -16.41304,43.21272 -6.74239,8.42497 -18.09675,18.26042 -27.72725,24.01809 -7.37054,4.40654 -14.76843,8.0894 -16.22778,8.07861 -0.38805,-0.003 -2.06003,-0.59741 -3.7155,-1.32121 z m 6.36134,-13.47969 c 0,-3.73773 0.13936,-5.28005 0.57563,-6.37039 0.56504,-1.41217 0.55973,-1.45612 -0.28852,-2.38839 -0.47529,-0.52236 -1.13486,-1.38631 -1.46571,-1.91988 -0.82905,-1.33702 -1.19799,-1.21932 -1.65874,0.52916 -0.2173,0.82462 -0.63585,1.87464 -0.9301,2.33339 -0.43276,0.67467 -0.46234,1.1129 -0.15477,2.29305 0.66911,2.56736 1.09999,5.58696 1.09999,7.70875 0,1.80994 0.0974,2.10241 0.79375,2.38229 2.02037,0.81209 2.02847,0.79387 2.02847,-4.56798 z m -2.82222,-84.08584 c 0,-4.13926 -0.0989,-7.6248 -0.21972,-7.74564 -0.22096,-0.22096 -3.48445,2.84586 -3.48445,3.27447 0,0.12619 -0.28329,0.51273 -0.62954,0.85897 -0.67498,0.67499 -0.45116,1.24516 0.87934,2.24014 0.33658,0.2517 0.51055,0.69047 0.3941,0.99394 -0.11467,0.29882 -0.0102,0.91382 0.23216,1.36667 0.24236,0.45285 0.36274,1.03745 0.2675,1.29912 -0.0952,0.26166 0.11158,1.03138 0.45956,1.71048 0.34799,0.6791 0.84309,1.75066 1.10021,2.38125 0.25713,0.63059 0.58751,1.14653 0.73417,1.14653 0.14667,0 0.26667,-3.38667 0.26667,-7.52593 z"
         style="fill:#8db468;stroke-width:1.24568" />
      <path
         id="path1235"
         d="M 104.74165,232.23884 C 85.09652,230.52447 69.09942,222.09991 55.96472,206.55142 47.61569,196.66807 42.35075,184.84449 40.49145,171.80281 c -0.75785,-5.31579 -0.75539,-15.41738 0.005,-20.59205 2.34542,-15.96089 9.46888,-29.57208 21.45899,-41.00284 3.94665,-3.76254 6.19658,-5.53495 11.11449,-8.75556 13.64393,-8.93506 31.35793,-12.51173 48.99554,-9.89279 20.72183,3.07689 39.57374,16.28316 50.66513,35.49228 8.61723,14.92414 11.05845,35.01076 6.44633,53.04124 -6.40862,25.0537 -28.82044,46.19824 -54.00948,50.9555 -6.35123,1.19952 -14.72688,1.68758 -20.42582,1.19025 z M 91.30039,188.7456 c 5.89647,-1.50875 11.11922,-5.64523 13.69763,-10.84869 0.96443,-1.9463 1.45679,-3.41917 1.47709,-4.41859 l 0.0304,-1.49912 -4.31312,-0.099 -4.31312,-0.099 -1.01004,2.21565 c -2.45079,5.37616 -8.23744,8.03125 -15.32061,7.02956 -7.01663,-0.99228 -11.66732,-5.25135 -12.96085,-11.86946 -0.22754,-1.16417 -0.36163,-2.75167 -0.29798,-3.52778 l 0.11572,-1.41111 19.57917,-0.17639 19.57916,-0.17639 -0.0301,-3.52778 c -0.0842,-9.882 -4.49759,-18.82476 -11.56156,-23.42712 -2.88004,-1.87642 -5.57741,-2.81258 -9.49303,-3.29469 -11.95768,-1.47229 -22.76914,5.50721 -26.68946,17.22979 -1.83291,5.48077 -2.17562,9.73602 -1.26871,15.75267 1.98802,13.18894 9.11925,21.00812 20.82061,22.82918 3.03315,0.47205 8.7155,0.1481 11.95874,-0.68176 z M 68.3466,155.72502 c -0.29694,-0.77381 0.79677,-4.55218 1.90951,-6.59667 1.20825,-2.21997 3.88028,-4.67854 6.27754,-5.77604 3.8778,-1.77532 9.05274,-1.72449 12.86217,0.12634 4.05686,1.97104 7.74812,7.09772 7.8799,10.94417 l 0.0576,1.68138 -14.38525,0.0922 c -12.90486,0.0827 -14.40749,0.0342 -14.60148,-0.47134 z m 52.74587,33.04893 c 0.51441,-0.56128 3.95154,-5.55644 7.63807,-11.10034 3.68653,-5.5439 6.87088,-10.08529 7.07634,-10.09198 0.20546,-0.007 3.53921,4.70305 7.40833,10.46607 3.86912,5.76303 7.31259,10.76365 7.65213,11.1125 0.53791,0.55264 1.27201,0.63428 5.70379,0.63428 2.79753,0 5.33753,-0.0964 5.64444,-0.21414 0.86392,-0.33151 0.67198,-1.13093 -0.74316,-3.09512 -12.37312,-17.17375 -19.15993,-26.76242 -19.15993,-27.06993 0,-0.20943 3.95569,-5.66958 8.79042,-12.13365 4.83473,-6.46407 8.96425,-12.07765 9.17671,-12.47464 0.31705,-0.59242 0.26318,-0.78767 -0.30056,-1.08938 -0.86889,-0.46502 -9.3808,-0.4844 -10.24232,-0.0233 -0.3538,0.18935 -3.53322,4.39623 -7.06539,9.34861 -3.53218,4.9524 -6.60571,9.00313 -6.83008,9.00164 -0.22437,-0.001 -3.15948,-4.05104 -6.52246,-8.99899 -3.36298,-4.94796 -6.40848,-9.15361 -6.76778,-9.3459 -1.05834,-0.56641 -10.31003,-0.44654 -11.11771,0.14405 -0.80039,0.58526 -1.69983,-0.77216 10.18311,15.36824 l 8.05533,10.94141 -4.21373,5.91293 c -2.31755,3.2521 -6.85526,9.62013 -10.0838,14.15118 -3.22854,4.53103 -5.87007,8.44686 -5.87007,8.70184 0,0.73273 0.57861,0.81773 5.76749,0.84731 l 4.88555,0.0278 0.93528,-1.02052 z M -44.34801,212.2658 c -22.55301,-11.42786 -40.31748,-29.12934 -47.54593,-47.37736 -3.41613,-8.62393 -5.68097,-21.05642 -5.6811,-31.18563 -6e-5,-3.82971 0.72595,-11.64065 1.42635,-15.34583 0.61707,-3.26438 2.37124,-8.44416 3.22895,-9.53456 1.4719,-1.87122 10.49768,-5.60557 17.56835,-7.26879 11.56996,-2.72157 22.56,-3.83192 37.94128,-3.8333 13.03614,-0.001 19.81291,0.52019 30.46109,2.34346 11.29482,1.934 22.32289,5.76467 24.97258,8.67439 2.43504,2.67401 4.68317,14.65757 4.6834,24.96463 2.6e-4,12.2305 -2.57263,24.80974 -7.07592,34.59516 -1.91417,4.15937 -2.99082,6.02454 -5.79044,10.03123 -6.86188,9.8204 -16.84204,19.35228 -28.042,26.78244 -7.54369,5.00456 -17.28937,10.08284 -19.34988,10.08284 -0.57496,0 -3.52902,-1.27289 -6.79673,-2.92868 z m 9.91884,-11.53521 c 0.11018,-3.4158 0.34189,-5.75726 0.61736,-6.23862 0.59832,-1.0455 0.55443,-2.04749 -0.11398,-2.60223 -2.41495,-2.00423 -3.67691,-10.4985 -2.61736,-17.61749 0.18771,-1.26118 0.42551,-14.43588 0.52844,-29.27712 0.17404,-25.09318 0.23046,-27.02737 0.80518,-27.60209 0.33992,-0.33992 1.0359,-0.65262 1.54661,-0.69489 l 0.92859,-0.0769 -0.75923,-0.93214 c -0.41757,-0.51268 -0.95766,-0.85924 -1.2002,-0.77012 -0.24253,0.0891 -0.4434,-0.0534 -0.44637,-0.31668 -0.004,-0.38044 -0.0717,-0.37386 -0.32854,0.0321 -0.25412,0.40166 -0.37309,0.31175 -0.55698,-0.42093 -0.30601,-1.21925 0.0687,-1.86059 0.75446,-1.29143 0.89979,0.74676 0.90045,0.0843 10e-4,-1.24075 -0.4816,-0.70969 -1.14602,-1.9983 -1.47647,-2.86359 -0.33063,-0.8653 -0.72524,-1.57325 -0.87708,-1.57325 -0.15184,0 -0.59706,0.51935 -0.98936,1.15411 -0.3923,0.63476 -2.00836,2.17421 -3.59123,3.42099 -11.13168,8.76811 -18.57025,23.27457 -19.72967,38.47618 -0.45947,6.02436 -0.0588,9.62394 1.72358,15.48502 0.20237,0.66546 0.55174,1.32351 0.77638,1.46235 0.22464,0.13883 0.44848,0.76151 0.49742,1.38372 0.049,0.62221 0.93962,2.78629 1.97927,4.80905 3.13853,6.10641 9.97787,14.04368 15.68974,18.20846 1.47173,1.0731 1.84427,1.56124 2.01755,2.64354 0.11689,0.73008 0.45538,2.51803 0.7522,3.97324 0.29681,1.45521 0.53985,3.63295 0.54008,4.83943 3.5e-4,2.02833 0.0735,2.23378 0.97056,2.72699 0.53357,0.29336 1.28763,0.49687 1.67569,0.45224 0.6631,-0.0763 0.71617,-0.41017 0.88194,-5.54921 z"
         style="fill:#69924c;stroke-width:1.24568" />
      <path
         id="path1231"
         d="M 105.23338,231.67383 C 85.58824,229.95946 69.59114,221.5349 56.45644,205.98641 48.10741,196.10306 42.84247,184.27948 40.98317,171.2378 c -0.75785,-5.31579 -0.75539,-15.41738 0.005,-20.59205 2.34542,-15.96089 9.46888,-29.57208 21.45899,-41.00284 3.94665,-3.76254 6.19658,-5.53495 11.11449,-8.75556 13.64393,-8.935055 31.35794,-12.511724 48.99555,-9.89279 20.72183,3.076896 39.57374,16.28316 50.66512,35.49228 8.61724,14.92414 11.05845,35.01076 6.44633,53.04124 -6.40862,25.0537 -28.82043,46.19824 -54.00947,50.9555 -6.35124,1.19952 -14.72689,1.68758 -20.42583,1.19025 z M 91.79212,188.18059 c 5.89646,-1.50875 11.11922,-5.64523 13.69762,-10.84869 0.96443,-1.9463 1.4568,-3.41917 1.4771,-4.41859 l 0.0304,-1.49912 -4.31312,-0.099 -4.31313,-0.099 -1.01003,2.21565 c -2.4508,5.37616 -8.23744,8.03125 -15.32061,7.02956 -7.01664,-0.99228 -11.66733,-5.25135 -12.96086,-11.86946 -0.22754,-1.16417 -0.36163,-2.75167 -0.29798,-3.52778 l 0.11573,-1.41111 19.57916,-0.17639 19.57917,-0.17639 -0.0301,-3.52778 c -0.0842,-9.882 -4.49759,-18.82476 -11.56157,-23.42712 -2.88004,-1.87642 -5.57741,-2.81258 -9.49303,-3.29469 -11.95768,-1.47229 -22.76913,5.50721 -26.68946,17.22979 -1.8329,5.48077 -2.17562,9.73602 -1.26871,15.75267 1.98803,13.18894 9.11926,21.00812 20.82061,22.82918 3.03315,0.47205 8.71551,0.1481 11.95874,-0.68176 z m -22.9538,-33.02058 c -0.29694,-0.77381 0.79677,-4.55218 1.90952,-6.59667 1.20824,-2.21997 3.88027,-4.67854 6.27753,-5.77604 3.8778,-1.77532 9.05274,-1.72449 12.86217,0.12634 4.05686,1.97104 7.74812,7.09772 7.8799,10.94417 l 0.0576,1.68138 -14.38525,0.0922 c -12.90486,0.0827 -14.40749,0.0342 -14.60148,-0.47134 z m 52.74588,33.04893 c 0.51441,-0.56128 3.95154,-5.55644 7.63807,-11.10034 3.68653,-5.5439 6.87088,-10.08529 7.07633,-10.09198 0.20546,-0.007 3.53922,4.70305 7.40834,10.46607 3.86912,5.76303 7.31259,10.76365 7.65213,11.1125 0.53791,0.55264 1.27201,0.63428 5.70379,0.63428 2.79752,0 5.33752,-0.0964 5.64444,-0.21414 0.86392,-0.33151 0.67198,-1.13093 -0.74316,-3.09512 -12.37313,-17.17375 -19.15993,-26.76242 -19.15993,-27.06993 0,-0.20943 3.95569,-5.66958 8.79042,-12.13365 4.83473,-6.46407 8.96425,-12.07765 9.17671,-12.47464 0.31705,-0.59242 0.26318,-0.78767 -0.30056,-1.08938 -0.86889,-0.46502 -9.3808,-0.4844 -10.24232,-0.0233 -0.35381,0.18935 -3.53322,4.39623 -7.0654,9.34861 -3.53217,4.9524 -6.6057,9.00313 -6.83007,9.00164 -0.22437,-0.001 -3.15948,-4.05104 -6.52246,-8.99899 -3.36298,-4.94796 -6.40848,-9.15361 -6.76779,-9.3459 -1.05833,-0.56641 -10.31002,-0.44654 -11.1177,0.14405 -0.80039,0.58526 -1.69984,-0.77216 10.18311,15.36824 l 8.05532,10.94141 -4.21372,5.91293 c -2.31756,3.2521 -6.85527,9.62013 -10.0838,14.15118 -3.22854,4.53103 -5.87008,8.44686 -5.87008,8.70184 0,0.73273 0.57862,0.81773 5.76749,0.84731 l 4.88556,0.0278 0.93527,-1.02052 z m -163.81193,23.64587 c -12.86124,-6.26969 -24.9243,-15.15622 -33.77574,-24.88169 -11.50294,-12.63878 -16.59451,-23.20576 -19.39561,-40.25338 -1.04048,-6.33243 -1.12387,-20.29212 -0.15593,-26.10555 0.78729,-4.72854 1.68002,-8.06121 2.83533,-10.58475 0.82771,-1.80796 1.02918,-1.98326 3.98603,-3.4681 7.6161,-3.8246 18.97188,-6.65173 32.21842,-8.021082 6.8527,-0.708392 28.28669,-0.819319 36.07101,-0.186676 13.81249,1.122568 24.46001,3.404468 33.05893,7.084958 5.60255,2.39799 6.25119,3.13707 7.78882,8.87493 1.88116,7.01975 2.73535,16.53071 2.12853,23.69994 -1.2827,15.1544 -4.55488,26.64058 -10.16759,35.69072 -7.87122,12.69187 -20.37069,24.52758 -35.31552,33.44012 -4.33279,2.58392 -13.27323,7.13888 -13.98501,7.12505 -0.19403,-0.004 -2.57528,-1.09028 -5.29167,-2.41449 z m 8.2964,-11.51284 c 0.22285,-6.46162 0.51606,-7.10411 4.66887,-10.23056 8.76142,-6.59605 15.2854,-16.98594 17.43859,-27.77212 0.79085,-3.96173 0.78585,-12.85581 -0.009,-16.56517 -0.95813,-4.46955 -2.30175,-8.33494 -4.50694,-12.96583 -3.25527,-6.83605 -5.91908,-10.51911 -12.60348,-17.42594 -4.34533,-4.48992 -6.13132,-6.5978 -6.8568,-8.09265 -0.53956,-1.11174 -1.13165,-2.02135 -1.31575,-2.02135 -0.18411,0 -0.65289,0.62363 -1.04174,1.38585 -0.38885,0.76221 -1.61922,2.15127 -2.73416,3.0868 -3.48112,2.92097 -7.51864,6.8969 -9.46591,9.3215 -10.79907,13.44619 -14.90969,32.03399 -10.36333,46.86196 1.40429,4.58009 5.05724,11.30169 8.3517,15.36751 1.96945,2.43057 6.83181,7.15265 9.86547,9.58084 2.95131,2.36229 3.30248,2.77282 3.80508,4.44831 0.30453,1.01522 0.63579,3.11585 0.73614,4.66807 0.10034,1.55222 0.25625,3.31518 0.34647,3.9177 0.18179,1.21414 1.20309,1.91525 2.62065,1.79904 l 0.88194,-0.0723 z"
         style="fill:#4c4c4c;stroke-width:1.24568" />
      <path
         id="path1225"
         d="m -41.463987,212.36199 c -7.261924,-3.52146 -14.518968,-8.05347 -20.990277,-13.10841 -11.813551,-9.22792 -21.79007,-21.08924 -26.295692,-31.26358 -4.591279,-10.36777 -6.861337,-21.66569 -6.863919,-34.16123 -0.0018,-9.2881 1.47901,-18.73892 3.630175,-23.16667 0.645721,-1.32909 1.13798,-1.73201 3.759143,-3.07693 3.897948,-2.00003 7.007712,-3.09654 13.564221,-4.78275 10.725936,-2.75851 21.94604,-3.898467 38.372078,-3.89858 15.833559,-1.1e-4 27.134703,1.13662 37.5103804,3.77299 6.2068566,1.57711 10.0852746,2.9371 14.0408266,4.92346 3.576546,1.79605 3.820294,2.16868 5.355375,8.187 1.032143,4.04654 1.389291,6.36077 1.989021,12.88831 0.780531,8.49542 -0.767193,21.21812 -3.798919,31.22811 -5.490288,18.12756 -20.500061,35.16994 -42.446461,48.19454 -3.764029,2.23384 -12.339718,6.53496 -12.964131,6.50213 -0.151642,-0.008 -2.33946,-1.01525 -4.861821,-2.23839 z m 8.304184,-11.15267 c 0.225107,-6.46836 0.460562,-7.03766 3.939395,-9.525 5.205049,-3.72156 10.812653,-10.33429 13.96093,-16.46333 3.693967,-7.1914 4.820803,-12.02534 4.796994,-20.57833 -0.01877,-6.74585 -0.371228,-8.9834 -2.305265,-14.6352 -3.358825,-9.81541 -7.526563,-16.29759 -15.786784,-24.55353 -3.934305,-3.93227 -5.439505,-5.69934 -6.383066,-7.49356 -0.709302,-1.34876 -1.46752,-2.34914 -1.781785,-2.35085 -0.300888,-0.002 -0.887465,0.69767 -1.30351,1.55402 -0.50988,1.04948 -1.596429,2.22104 -3.333489,3.59428 -13.224503,10.45466 -21.093228,26.56589 -21.174917,43.35567 -0.02519,5.17633 0.54713,8.71991 2.213084,13.70263 2.848176,8.51864 9.555652,17.52862 17.801381,23.91213 3.113218,2.41013 3.401572,2.73957 3.91215,4.46956 0.303163,1.02721 0.667378,3.49532 0.809371,5.48468 0.14199,1.98936 0.383057,3.81911 0.535707,4.0661 0.40415,0.65392 1.637923,1.08792 2.851175,1.00293 l 1.058333,-0.0741 z"
         style="fill:#403325;stroke-width:1.24568" />
      <path
         id="path1223"
         d="m -37.054265,214.02408 c -0.576337,-0.19856 -7.074323,-3.41231 -8.410046,-4.15941 -0.517211,-0.28928 -0.658519,-0.51721 -0.378513,-0.61055 0.86475,-0.28825 -0.08736,-0.98924 -1.343617,-0.98924 -1.356251,0 -5.29686,-2.08947 -8.896128,-4.71708 -1.601826,-1.1694 -1.809933,-1.43876 -1.260513,-1.63148 0.574336,-0.20147 0.585699,-0.25861 0.08929,-0.4491 -0.312826,-0.12004 -0.630827,-0.0321 -0.706671,0.19543 -0.135777,0.40733 -0.557406,0.17604 -3.077305,-1.68805 -3.557683,-2.63179 -4.471888,-3.39891 -4.912755,-4.12231 -0.451943,-0.74158 -0.445262,-0.77329 0.07274,-0.34523 0.87576,0.72368 1.392544,0.14351 0.58843,-0.6606 -0.795648,-0.79565 -1.277102,-0.87974 -1.483953,-0.25918 -0.103494,0.31048 -0.437194,0.23658 -1.175925,-0.26042 -0.996396,-0.67035 -1.004467,-0.69789 -0.237673,-0.81082 0.620363,-0.0914 0.79375,-0.3476 0.79375,-1.17305 0,-0.97904 -0.0837,-1.04808 -1.146528,-0.9456 -0.686361,0.0662 -1.11113,0.28753 -1.058333,0.55152 0.04851,0.24253 -0.01439,0.44097 -0.139806,0.44097 -0.437413,0 -3.847084,-3.36563 -6.25089,-6.17015 -1.332068,-1.55412 -2.602068,-2.98443 -2.822222,-3.17846 -0.401366,-0.35374 -2.055012,-2.47856 -3.046109,-3.91405 -2.673086,-3.87164 -4.765248,-7.19681 -5.182408,-8.23664 -0.276885,-0.69018 -0.948083,-2.12799 -1.491552,-3.19514 -0.543471,-1.06716 -1.505232,-3.52778 -2.137247,-5.46806 -0.632012,-1.94028 -1.279317,-3.84528 -1.438448,-4.23333 -0.844631,-2.05968 -1.684782,-6.18304 -2.30016,-11.28889 -1.269171,-10.53039 -1.427914,-13.29172 -0.978991,-17.02941 0.192801,-1.60525 0.313158,-1.83147 0.878879,-1.65192 0.519871,0.165 0.655483,0.025 0.655483,-0.67686 0,-0.9797 -0.54409,-1.53474 -0.823962,-0.84054 -0.638091,1.58272 0.287704,-7.36589 1.03082,-9.96377 1.189972,-4.16006 1.393797,-4.71523 1.776698,-4.83935 0.21783,-0.0706 0.51247,0.23529 0.654752,0.67978 0.24433,0.76329 0.268531,0.76899 0.435659,0.10262 0.09732,-0.38805 0.32058,-0.88293 0.496122,-1.09972 0.353286,-0.4363 -0.475696,-1.34791 -0.868521,-0.95509 -0.127667,0.12767 -0.232124,-0.0284 -0.232124,-0.34677 0,-0.59227 1.669051,-1.65536 2.598917,-1.65536 0.284508,0 0.605272,0.19844 0.712809,0.44097 0.107537,0.24254 0.160454,0.12347 0.117591,-0.26458 -0.0565,-0.51159 0.101526,-0.67482 0.574834,-0.59377 0.359022,0.0615 0.559206,-0.0396 0.444856,-0.22461 -0.114349,-0.18502 -0.0095,-0.50108 0.233045,-0.70236 0.75916,-0.63004 8.524981,-3.16761 9.882441,-3.2292 0.152348,-0.007 0.107076,0.30494 -0.100605,0.69299 -0.342367,0.63972 -0.269462,0.70451 0.78134,0.69434 0.637416,-0.006 1.467093,-0.2443 1.843725,-0.52917 0.376633,-0.28487 1.041951,-0.51794 1.478485,-0.51794 1.049514,0 1.446565,-0.70243 0.703979,-1.24542 -0.670462,-0.49026 -0.998379,-0.37135 3.659138,-1.32685 3.506163,-0.7193 4.708856,-0.9073 7.231944,-1.13049 1.164166,-0.10299 2.513541,-0.26297 2.998611,-0.35553 0.485069,-0.0926 3.959331,-0.330189 7.720584,-0.528076 4.950318,-0.260448 6.968179,-0.252289 7.307773,0.02956 0.417111,0.34617 13.014268,0.238577 17.427197,-0.148844 2.692418,-0.236372 17.2024566,1.18719 20.2847218,1.99011 2.0005427,0.52113 0.6037439,0.749 -1.6406953,0.26765 -1.3422806,-0.28786 -1.925962,-0.28206 -2.2933095,0.0228 -0.876543,0.72746 -0.4605725,0.83125 5.8742825,1.46562 0.4850694,0.0486 1.1200694,0.23055 1.4111111,0.40439 0.2910416,0.17383 0.1443073,-0.10641 -0.326076,-0.62277 -0.4703869,-0.51638 -0.769867,-0.93885 -0.6655118,-0.93885 1.5740662,0 4.05737473,0.86326 4.8201579,1.6756 0.7798223,0.83049 0.9291178,0.88129 1.036588,0.35265 0.1488405,-0.73215 0.5139267,-0.67357 5.3587084,0.85985 3.8062459,1.20472 5.4047419,1.94602 5.1355269,2.38162 -0.219174,0.35463 0.626174,0.7275 1.649346,0.7275 0.747751,0 3.078846,1.2673 3.534734,1.92166 0.142314,0.20427 0.15953,0.91294 0.03826,1.57483 -0.182905,0.99827 -0.126379,1.16732 0.331572,0.99159 0.597623,-0.22933 1.311695,1.2775 1.311695,2.76792 0,0.44039 0.274831,1.27958 0.610736,1.86486 0.339929,0.59229 0.474941,1.19157 0.304482,1.3515 -0.168441,0.15805 -0.377126,0.0889 -0.463747,-0.15361 -0.08662,-0.24253 -0.399369,-0.44097 -0.695001,-0.44097 -0.345203,0 -0.4609,0.19964 -0.323381,0.55802 0.117775,0.30691 0.214133,1.25941 0.214133,2.11667 0,1.32346 0.106461,1.55864 0.705556,1.55864 0.529166,0 0.705555,-0.23518 0.705555,-0.94074 0,-1.90349 0.318774,-0.54356 0.542488,2.31435 0.163974,2.09472 0.118995,2.87413 -0.156055,2.70414 -0.232265,-0.14355 -0.386433,0.051 -0.386433,0.48754 0,0.39951 0.148054,0.72638 0.329004,0.72638 0.522005,0 0.839428,1.44212 0.411597,1.86995 -0.213304,0.21331 -0.382775,0.71326 -0.376605,1.11102 0.01104,0.71172 0.01944,0.71233 0.529167,0.0384 0.467829,-0.61853 0.517832,-0.37957 0.516742,2.46944 -0.0014,3.78353 -0.629127,10.85412 -1.057949,11.91743 -0.168977,0.41899 -0.317295,0.56337 -0.329593,0.32083 -0.0123,-0.24253 -0.260488,-0.44097 -0.55153,-0.44097 -0.369577,0 -0.529166,0.37238 -0.529166,1.23472 0,1.38043 0.220708,1.5251 0.941828,0.61736 0.427313,-0.53789 0.459991,-0.347 0.253852,1.48295 -0.385914,3.42585 -1.64707,7.77747 -2.254013,7.77747 -0.291042,0 -0.579897,0.35719 -0.641897,0.79375 -0.062,0.43656 0.05706,0.79375 0.264583,0.79375 0.617516,0 0.439148,1.11909 -0.707909,4.44146 -1.648265,4.77408 -5.776915,12.9326 -8.0786139,15.96393 -0.6938362,0.91379 -1.0477499,1.10676 -1.7202431,0.93798 -0.7675774,-0.19265 -0.8293594,-0.12188 -0.6612643,0.75745 0.1937843,1.01371 -0.2062974,1.6944 -3.0276975,5.15126 -1.3452334,1.64822 -2.1811791,2.18597 -1.7823109,1.14653 0.2680405,-0.6985 -0.3804038,-0.67634 -1.0941262,0.0374 -0.4465919,0.44659 -0.4773647,0.67399 -0.1453444,1.07405 0.3414113,0.41138 0.1607467,0.77424 -0.95373468,1.91558 -0.75621795,0.77443 -1.42975537,1.24361 -1.49675492,1.04261 -0.067,-0.201 -0.4377267,-0.36545 -0.8238419,-0.36545 -0.4848437,0 -0.6602554,0.19099 -0.5670091,0.61736 0.074256,0.33955 0.3240193,0.57767 0.5550323,0.52917 0.5702511,-0.11974 0.527812,0.10639 -0.1465227,0.78072 -0.3546687,0.35467 -0.7174759,0.44912 -0.9701389,0.25254 -0.6159923,-0.47924 -1.9910953,-0.74367 -1.9910953,-0.38288 0,0.17587 -0.3175,0.31975 -0.7055556,0.31975 -0.4077511,0 -0.7055555,0.23519 -0.7055555,0.5572 0,0.42207 0.235271,0.50778 0.9701388,0.35341 1.796475,-0.37738 2.0463298,0.28903 0.5658873,1.50933 -1.744479,1.43795 -2.373457,1.45303 -2.0651928,0.0495 0.1817123,-0.82733 0.1108287,-1.05833 -0.324746,-1.05833 -0.322012,0 -0.5571984,0.2978 -0.5571984,0.70555 0,0.38806 -0.15875,0.70556 -0.3527777,0.70556 -0.5856252,0 -0.3961342,0.99734 0.2645833,1.39258 0.567062,0.33921 0.5428897,0.43405 -0.2967002,1.16405 -0.5027366,0.43712 -2.1428497,1.66788 -3.6446957,2.73503 -1.501849,1.06716 -3.295163,2.37684 -3.98514,2.91042 -1.35491,1.04778 -1.914242,1.21861 -1.774853,0.54208 0.04851,-0.23543 -0.270439,-0.5912 -0.708773,-0.7906 -0.438333,-0.19939 -0.885592,-0.64176 -0.993912,-0.98305 -0.215925,-0.68032 -1.381443,-0.84288 -1.751404,-0.24426 -0.308642,0.49939 0.01714,0.78568 0.984818,0.86538 0.635981,0.0524 0.773412,0.25085 0.69203,0.99937 -0.07059,0.64927 0.06384,0.934 0.440972,0.934 0.849605,0 0.637529,0.53759 -0.427619,1.08398 -0.533577,0.27372 -1.922639,1.04693 -3.086806,1.71826 -1.164167,0.67132 -2.513542,1.22827 -2.998611,1.23765 -0.615904,0.0119 -0.913426,0.23723 -0.98631,0.74698 -0.134035,0.9374 -5.000364,3.33305 -6.774801,3.33517 -1.555633,0.002 -2.822222,0.33331 -2.822222,0.73855 0,0.17139 0.277813,0.31668 0.617361,0.32285 0.55861,0.0102 0.552193,0.0605 -0.06743,0.52916 -0.729365,0.55167 -0.789295,0.5621 -1.608268,0.27993 z m 7.748513,-3.85435 c 0.44776,-0.42797 0.368886,-0.49374 -0.592166,-0.49374 -0.956705,0 -2.217458,0.73228 -2.217458,1.28795 0,0.3446 2.297673,-0.30489 2.809624,-0.79421 z m -14.274902,-2.96318 c 0.119916,-0.19403 -0.02946,-0.35278 -0.331957,-0.35278 -0.302493,0 -0.549987,0.15875 -0.549987,0.35278 0,0.19402 0.14938,0.35277 0.331957,0.35277 0.182576,0 0.430071,-0.15875 0.549987,-0.35277 z m 15.698441,-0.0109 c 9.6e-5,-0.10298 -0.488547,-0.37171 -1.085867,-0.59717 -0.799991,-0.30197 -1.311035,-0.30742 -1.940278,-0.0207 -1.397374,0.63668 -0.980045,0.97836 1.085868,0.88902 1.067061,-0.0461 1.940186,-0.16815 1.940277,-0.27113 z m -4.861768,-4.75163 c -0.10929,-5.04072 0.178326,-6.76287 1.10212,-6.59912 0.678759,0.12031 0.721558,-0.0709 0.223954,-1.00071 -0.281164,-0.52536 -0.203253,-0.83189 0.352778,-1.38792 0.677594,-0.6776 2.008089,-1.02831 1.639683,-0.43221 -0.09566,0.15478 -0.03016,0.51197 0.145528,0.79375 0.24131,0.38699 0.467797,0.41986 0.925862,0.13434 0.916735,-0.57141 0.988063,-1.23288 0.156404,-1.45036 -0.408499,-0.10683 -0.742725,-0.31503 -0.742725,-0.46267 0,-0.40449 0.944418,-1.10609 1.622944,-1.20568 0.329826,-0.0484 1.182843,-0.7719 1.895595,-1.60776 l 1.295915,-1.51974 0.944164,0.61864 c 1.046261,0.68554 1.247916,0.39953 0.388136,-0.55052 -0.512205,-0.56598 -0.460325,-0.72106 0.658418,-1.96805 2.129994,-2.37418 6.383037,-8.67219 7.703685,-11.40783 0.702511,-1.4552 1.644587,-3.75708 2.093497,-5.11527 0.877379,-2.65455 1.705913,-3.99872 1.786187,-2.89782 0.02427,0.33262 0.06925,0.8032 0.1,1.04573 0.03076,0.24254 -0.09161,0.54401 -0.271893,0.66996 -0.180287,0.12593 -0.221548,0.50584 -0.09169,0.84424 0.129854,0.33839 0.343662,0.5077 0.475125,0.37623 0.320502,-0.3205 0.7241253,-4.08837 0.4176673,-3.89896 -0.1323203,0.0818 -0.4339593,-0.0843 -0.6703133,-0.36912 -0.338744,-0.40816 -0.328535,-0.91152 0.04823,-2.37736 0.6329397,-2.46257 0.6424083,-12.75034 0.01439,-15.6179 -0.254966,-1.16417 -0.691529,-3.02709 -0.970139,-4.13982 -0.591908,-2.36401 -0.619647,-2.79396 -0.125525,-1.9456 0.571683,0.98152 1.030076,0.71987 1.030076,-0.58796 0,-1.39773 -0.702398,-1.83604 -1.279783,-0.79861 -0.388419,0.6979 -0.403838,0.69459 -0.651407,-0.13993 -0.139464,-0.47011 -0.793874,-2.01175 -1.454246,-3.42585 -0.660389,-1.4141 -1.200693,-2.69689 -1.200693,-2.85063 0,-0.4662 -1.528826,-3.28038 -2.899911,-5.33799 -1.560399,-2.34172 -2.034384,-3.88056 -1.195278,-3.88056 0.312078,0 0.567412,0.28575 0.567412,0.635 0,0.74533 0.65146,1.48167 1.310879,1.48167 0.292464,0 0.436037,-0.36982 0.388056,-0.99954 -0.08226,-1.07959 -0.08783,-1.08249 -2.319531,-1.20861 -1.245976,-0.0704 -1.612703,-0.26562 -2.14769,-1.14324 -0.354831,-0.58208 -0.909003,-1.27621 -1.231488,-1.5425 -0.675047,-0.55742 -0.770053,-1.33608 -0.186746,-1.53051 0.562666,-0.18756 0.02949,-1.68949 -0.599754,-1.68949 -0.277964,0 -0.505393,0.32505 -0.505393,0.72233 0,0.56523 -0.537076,0.19371 -2.469444,-1.70825 -2.576276,-2.53573 -2.81685,-2.89464 -1.940278,-2.89464 0.329258,0 0.529167,-0.33317 0.529167,-0.88194 0,-0.74854 -0.163241,-0.88195 -1.079155,-0.88195 -0.593534,0 -0.98782,0.14779 -0.87619,0.32841 0.111633,0.18062 0.03761,0.4306 -0.164504,0.5555 -0.7253,0.44826 -4.725123,-4.56869 -5.402767,-6.77666 -0.38554,-1.25621 -1.255522,-1.99393 -1.862268,-1.57916 -0.193071,0.13199 -0.683993,1.03372 -1.090944,2.00386 -0.462629,1.10287 -1.183276,2.06531 -1.923013,2.56821 -4.216216,2.86638 -11.434793,10.85448 -14.405733,15.94143 -0.793005,1.35782 -1.747978,2.6326 -2.122159,2.83285 -0.377723,0.20216 -0.595312,0.58565 -0.489193,0.86219 0.10512,0.27394 -0.153945,1.26371 -0.575698,2.19947 -1.027681,2.28016 -1.68753,4.06843 -2.515292,6.81668 -2.277819,7.56261 -3.102916,17.80661 -1.875342,23.28334 0.326179,1.4552 0.712925,3.20145 0.859438,3.88055 0.146515,0.6791 0.684713,2.32519 1.195994,3.65798 1.054823,2.74965 1.138382,3.39758 0.438182,3.39758 -0.504476,0 -0.919689,0.72973 -0.919689,1.61635 0,0.82539 1.000245,0.5638 1.121993,-0.29344 0.062,-0.43656 0.332013,-0.79375 0.600022,-0.79375 0.455785,0 1.079115,1.01551 2.869148,4.67431 0.403437,0.82462 0.871224,1.4993 1.03953,1.4993 0.168307,0 0.771712,0.75407 1.340905,1.6757 0.569193,0.92163 2.368748,3.0814 3.999008,4.7995 3.26687,3.44286 3.441121,3.70432 2.752418,4.12996 -0.370279,0.22885 -0.326394,0.34967 0.200431,0.55184 0.414069,0.15889 0.728334,0.0974 0.813907,-0.15936 0.143415,-0.43024 0.908759,0.0606 3.537522,2.26881 0.717356,0.60259 1.622266,1.26189 2.010914,1.4651 1.120581,0.58592 2.291979,5.44017 2.291979,9.49792 0,1.94288 0.124393,2.38533 0.884266,3.1452 0.756843,0.75685 1.150814,0.86891 2.734028,0.77772 l 1.849762,-0.10655 z m -18.583278,1.56403 c 0.332994,-0.5388 0.0693,-0.68407 -0.819693,-0.4516 -0.425908,0.11138 -0.687419,0.34321 -0.581138,0.51517 0.266598,0.43136 1.118849,0.39268 1.400831,-0.0636 z m 40.025771,-5.79737 1.5874996,-0.85006 -1.4111106,-0.005 c -1.434515,-0.005 -2.645834,0.60623 -2.645834,1.33465 0,0.60191 0.705094,0.4649 2.469445,-0.47986 z m -49.992317,-0.52881 c 0.222652,-0.85143 -0.214514,-1.18253 -1.163617,-0.8813 -0.692841,0.2199 -0.925555,0.89297 -0.467212,1.35132 0.487123,0.48712 1.453353,0.20865 1.630829,-0.47002 z m 20.711762,-2.11702 c 0,-0.19403 -0.15875,-0.35278 -0.352778,-0.35278 -0.194027,0 -0.352777,0.15875 -0.352777,0.35278 0,0.19403 0.15875,0.35278 0.352777,0.35278 0.194028,0 0.352778,-0.15875 0.352778,-0.35278 z m 14.048782,-0.58813 c -0.06273,-0.32347 -0.300006,-0.65003 -0.527272,-0.7257 -0.262858,-0.0875 -0.34416,0.12649 -0.223439,0.58813 0.225485,0.86226 0.915793,0.98876 0.750711,0.13757 z m -15.81562,-1.8906 c -0.681637,-0.43095 -1.408162,-0.4352 -1.408162,-0.008 0,0.18438 0.277813,0.49199 0.617361,0.68358 0.806009,0.45478 1.559941,-0.18907 0.790801,-0.67534 z m 34.0460037,-2.48473 c 0,-0.27221 -0.2778125,-0.54843 -0.6173611,-0.61383 -0.6080972,-0.1171 -0.8594866,0.63146 -0.3748264,1.11612 0.3697852,0.36978 0.9921875,0.0547 0.9921875,-0.50229 z m 5.8208331,-2.02154 c 0,-0.36512 -0.7637709,-1.12889 -1.1288888,-1.12889 -0.1552223,0 -0.2822222,0.3175 -0.2822222,0.70556 0,0.47037 0.2351863,0.70555 0.7055555,0.70555 0.3880555,0 0.7055555,-0.127 0.7055555,-0.28222 z m -70.4274098,-2.01232 c 0.100481,-0.26185 -0.04599,-0.66589 -0.325501,-0.89786 -0.27951,-0.23197 -0.508198,-0.31162 -0.508198,-0.17699 0,0.13464 -0.257023,-0.0122 -0.571165,-0.32637 -0.314138,-0.31415 -0.666728,-0.4756 -0.783533,-0.3588 -0.116801,0.1168 -0.005,0.34055 0.248518,0.49721 0.253488,0.15667 0.43919,0.42585 0.412676,0.59818 -0.02653,0.17234 0.02459,0.59181 0.113608,0.93216 0.180118,0.68876 1.114489,0.51193 1.413595,-0.26753 z m 73.70462706,-1.58601 c 0.14675908,-0.56121 0.0108303,-0.70556 -0.66441106,-0.70556 -0.93227169,0 -1.07713635,0.33623 -0.42558404,0.98778 0.5998492,0.59985 0.87817322,0.52778 1.0899951,-0.28222 z m 3.42556034,-1.53283 c 0,-0.26097 0.3174999,-0.76182 0.7055555,-1.11301 0.9619579,-0.87056 0.8917022,-1.5875 -0.1555679,-1.5875 -1.0075439,0 -1.0861322,0.10385 -1.4015826,1.85209 -0.1914419,1.06096 -0.1307641,1.32291 0.306444,1.32291 0.2998328,0 0.545151,-0.21352 0.545151,-0.47449 z m -82.7263864,-3.05328 c 0,-0.28573 -0.277812,-0.57301 -0.617361,-0.6384 -0.433158,-0.0834 -0.617361,0.10706 -0.617361,0.6384 0,0.53133 0.184203,0.72181 0.617361,0.63839 0.339549,-0.0654 0.617361,-0.35267 0.617361,-0.63839 z m 63.790726,-2.25857 c 0.220528,-0.57469 -0.07576,-0.98191 -0.516322,-0.70964 -0.400731,0.24767 -0.391626,1.20432 0.01146,1.20432 0.17327,0 0.400456,-0.22261 0.50486,-0.49468 z m -42.865212,-1.84852 c -0.06806,-0.56827 -0.407867,-1.04075 -0.870606,-1.21049 -0.602668,-0.22107 -0.735368,-0.15625 -0.644352,0.31472 0.06305,0.32623 0.126774,0.87095 0.141619,1.21049 0.01662,0.38009 0.307171,0.61737 0.755978,0.61737 0.581025,0 0.706332,-0.18919 0.617361,-0.93209 z m 67.632857,-0.51416 c 0.405253,-1.27684 -0.3827711,-1.56559 -1.4258785,-0.52248 -0.7548915,0.75488 -0.8572077,1.03994 -0.5193842,1.44699 0.534095,0.64354 1.609852,0.13228 1.9452627,-0.92451 z M -82.915375,174.419 c 0,-0.81773 -0.633285,-1.29253 -1.100635,-0.82518 -0.442849,0.44285 -0.01231,1.50992 0.609212,1.50992 0.270281,0 0.491423,-0.30813 0.491423,-0.68474 z m 73.0249977,-0.72637 c 0,-0.19403 -0.070005,-0.35278 -0.1555677,-0.35278 -0.08556,0 -0.253683,0.15875 -0.373599,0.35278 -0.119916,0.19403 -0.04991,0.35278 0.155568,0.35278 0.205479,0 0.3735987,-0.15875 0.3735987,-0.35278 z m -1.7638887,-1.61417 c 0,-0.28205 -0.218461,-0.39652 -0.529167,-0.2773 -0.291041,0.11169 -0.529166,0.41922 -0.529166,0.68342 0,0.28204 0.218461,0.39652 0.529166,0.27729 0.291042,-0.11169 0.529167,-0.41922 0.529167,-0.68341 z m -73.730553,-2.09841 c 0,-0.86942 -0.906748,-1.60184 -1.651258,-1.33378 -0.289581,0.10427 -0.198416,0.51966 0.299121,1.36292 0.779413,1.32101 1.352137,1.30867 1.352137,-0.0291 z m 99.306941,-1.16751 c 0,-0.61443 -0.08426,-1.11713 -0.18724,-1.11713 -0.300264,0 -0.991299,2.05525 -0.76659,2.27996 0.469254,0.46926 0.95383,-0.1215 0.95383,-1.16283 z m -96.837497,-1.11713 c 0,-0.19403 -0.15875,-0.35278 -0.352778,-0.35278 -0.194027,0 -0.352777,0.15875 -0.352777,0.35278 0,0.19402 0.15875,0.35277 0.352777,0.35277 0.194028,0 0.352778,-0.15875 0.352778,-0.35277 z m 20.999845,-1.3222 c -0.315257,-1.25608 -0.503672,-1.41931 -0.905292,-0.78425 -0.582997,0.92185 -0.390987,1.75367 0.404802,1.75367 0.635124,0 0.708251,-0.14164 0.50049,-0.96942 z m 75.661263,-1.67642 c 0,-0.29104 -0.1905,-0.52916 -0.423333,-0.52916 -0.329258,0 -0.329258,-0.0941 0,-0.42334 0.517807,-0.5178 0.562236,-2.04611 0.05949,-2.04611 -0.569725,0 -0.793425,0.94949 -0.540875,2.29572 0.227309,1.21165 0.904723,1.73795 0.904723,0.70289 z m 3.007049,-1.61408 c 0.264355,-0.83291 0.04006,-1.21238 -0.514134,-0.86987 -0.4627,0.28597 -0.501509,1.60201 -0.04724,1.60201 0.180954,0 0.433574,-0.32946 0.561378,-0.73214 z M -88.451555,159.8461 c 0.110444,-0.72998 0.05198,-1.32292 -0.130443,-1.32292 -0.181829,0 -0.330599,0.16812 -0.330599,0.3736 0,0.20548 -0.119062,0.30007 -0.264583,0.2102 -0.22581,-0.13945 -0.312117,1.32316 -0.14145,2.39718 0.111369,0.70085 0.672536,-0.37224 0.867075,-1.65806 z m -1.749033,-5.20488 c 0.03926,-1.23459 -0.0731,-1.65633 -0.427352,-1.60403 -0.802873,0.11852 -1.092235,1.05617 -0.942477,3.05398 0.07845,1.04656 0.159286,1.98222 0.179631,2.07924 0.02036,0.097 0.28448,-0.2805 0.586962,-0.83891 0.302482,-0.55841 0.573937,-1.76904 0.603236,-2.69028 z m 26.682589,-1.61549 c 0.0057,-1.8947 -0.161325,-2.31274 -0.82284,-2.05933 -0.395428,0.15147 -0.406103,3.21772 -0.0152,4.3719 0.332108,0.98063 0.832298,-0.39961 0.838062,-2.31257 z m 83.260954,-3.32199 c 0,-0.19403 -0.15875,-0.35278 -0.352778,-0.35278 -0.194027,0 -0.352777,0.15875 -0.352777,0.35278 0,0.19403 0.15875,0.35278 0.352777,0.35278 0.194028,0 0.352778,-0.15875 0.352778,-0.35278 z m -82.656501,-4.59281 c -0.07796,-0.77962 -0.225516,-1.50125 -0.3279,-1.60363 -0.305237,-0.30524 -0.669134,2.84593 -0.407412,3.52797 0.402325,1.04844 0.901859,-0.25887 0.735312,-1.92434 z m 53.7287243,0.41827 c 0,-0.45934 -0.4193717,-0.76483 -0.7605148,-0.554 -0.3648495,0.2255 -0.050253,0.84798 0.4285579,0.84798 0.1825766,0 0.3319569,-0.13229 0.3319569,-0.29398 z m -56.4041763,-2.45602 c -0.216175,-0.0721 -0.393044,-0.6034 -0.393044,-1.18077 0,-0.57737 0.143944,-0.96079 0.319878,-0.85206 0.175934,0.10873 0.228639,-0.15121 0.117122,-0.57765 -0.193492,-0.73992 -0.215036,-0.74397 -0.471473,-0.0887 -0.442631,1.13108 -0.362099,3.61142 0.122667,3.77813 0.242535,0.0834 0.498779,-0.0958 0.569433,-0.39815 0.07065,-0.30239 -0.04841,-0.60876 -0.264583,-0.68082 z m 84.979175,0.45695 c 0,-0.48507 -0.15875,-0.88195 -0.352777,-0.88195 -0.194028,0 -0.352778,0.39688 -0.352778,0.88195 0,0.48507 0.15875,0.88194 0.352778,0.88194 0.194027,0 0.352777,-0.39687 0.352777,-0.88194 z m 2.180915,-3.138 c 0.06467,-0.58898 -0.07453,-1.08677 -0.328831,-1.17592 -0.308205,-0.10806 -0.440973,0.30035 -0.440973,1.35647 0,1.66855 0.581756,1.53211 0.769804,-0.18055 z m -83.319801,-0.037 c 0,-0.26814 -0.15875,-0.58564 -0.352778,-0.70556 -0.200871,-0.12414 -0.352777,0.17967 -0.352777,0.70556 0,0.52589 0.151906,0.8297 0.352777,0.70555 0.194028,-0.11991 0.352778,-0.43741 0.352778,-0.70555 z m -32.102776,-0.15557 c 0,-0.3766 -0.15875,-0.78285 -0.352778,-0.90277 -0.200082,-0.12365 -0.352778,0.17273 -0.352778,0.68474 0,0.49652 0.15875,0.90276 0.352778,0.90276 0.194028,0 0.352778,-0.30813 0.352778,-0.68473 z m 113.241662,-6.70278 c 0,-4.50403 -0.297727,-6.17855 -0.84498,-4.75244 -0.291073,0.75853 -0.271678,9.14182 0.02184,9.43532 0.672034,0.67204 0.823147,-0.18764 0.823147,-4.68288 z m 2.549426,2.18404 c -0.202984,-2.04803 -0.374251,-2.19725 -0.404907,-0.35278 -0.01531,0.92164 0.09902,1.6757 0.254088,1.6757 0.155067,0 0.222934,-0.59531 0.150819,-1.32292 z m -116.253464,-1.05833 c -0.08873,-0.33955 -0.161336,-0.0617 -0.161336,0.61736 0,0.6791 0.0726,0.95691 0.161336,0.61736 0.08873,-0.33955 0.08873,-0.89517 0,-1.23472 z m 81.46922,-0.629 c -0.109227,-0.28464 -0.362324,-0.51753 -0.562444,-0.51753 -0.519398,0 -0.451668,1.32187 0.07713,1.50519 0.530817,0.18401 0.757731,-0.27777 0.485319,-0.98766 z m -46.258404,-3.88542 c -0.805557,-1.38901 -1.359383,-1.5761 -1.525168,-0.51521 -0.14279,0.91371 1.369321,2.59137 1.877946,2.08355 0.234893,-0.23452 0.117119,-0.75811 -0.352778,-1.56834 z m 4.939058,-6.86266 c 0.119916,-0.19403 0.04991,-0.35278 -0.155568,-0.35278 -0.205479,0 -0.373598,0.15875 -0.373598,0.35278 0,0.19402 0.07001,0.35277 0.155567,0.35277 0.08556,0 0.253683,-0.15875 0.373599,-0.35277 z m 0.881945,-2.51109 c 0,-0.19402 -0.15875,-0.25466 -0.352778,-0.13475 -0.194028,0.11992 -0.352778,0.37678 -0.352778,0.57081 0,0.19403 0.15875,0.25466 0.352778,0.13475 0.194028,-0.11992 0.352778,-0.37678 0.352778,-0.57081 z m -35.122788,-4.78259 c -0.08966,-1.99626 -0.160842,-2.26935 -0.531727,-2.04013 -0.343366,0.21221 -0.389203,2.43175 -0.06356,3.07775 0.278758,0.553 0.638566,-0.0742 0.595287,-1.03762 z m -3.482618,-1.02036 c 0.03468,-0.68146 -0.01746,-1.15846 -0.115905,-1.06002 -0.09845,0.0984 -0.244528,0.77369 -0.324626,1.50055 -0.0801,0.72686 -0.02794,1.20387 0.115905,1.06002 0.143848,-0.14385 0.28993,-0.81909 0.324626,-1.50055 z m 46.93155,-2.68011 c 0.26573,-0.42996 -0.517797,-1.35308 -1.148468,-1.35308 -0.591249,0 -0.980962,0.8556 -0.710611,1.56012 0.202674,0.52816 1.493548,0.3844 1.859079,-0.20704 z m -38.11405,-1.97802 c -0.118251,-0.11825 -0.489035,0.0719 -0.823965,0.42257 -0.582161,0.60951 -0.5727,0.61897 0.215004,0.215 0.453178,-0.23241 0.727212,-0.51932 0.608961,-0.63757 z m 95.142918,-0.23198 c -0.105851,-0.55371 -0.338194,-0.79001 -0.656636,-0.66781 -0.849182,0.32586 -0.535456,1.52473 0.398996,1.52473 0.256039,0 0.357159,-0.33632 0.25764,-0.85692 z m -53.208489,-1.31701 c 0.626431,-1.25571 0.522481,-1.56124 -0.401447,-1.17996 -0.396618,0.16366 -0.475481,0.32002 -0.211424,0.41915 0.460058,0.17271 0.209028,1.19253 -0.395421,1.60643 -0.260121,0.17811 -0.248666,0.26086 0.03663,0.26458 0.228325,0.003 0.665575,-0.49662 0.971667,-1.1102 z m 1.082643,-0.29551 c 0.119916,-0.19403 0.05928,-0.35278 -0.134751,-0.35278 -0.194028,0 -0.450889,0.15875 -0.570805,0.35278 -0.119916,0.19403 -0.05928,0.35278 0.134751,0.35278 0.194028,0 0.450889,-0.15875 0.570805,-0.35278 z m -42.566786,-1.37324 c 0.110052,-0.77848 0.03041,-0.82629 -1.02471,-0.61527 -2.374322,0.47487 -2.850194,1.73107 -0.593919,1.56782 1.27526,-0.0923 1.517138,-0.23461 1.618629,-0.95255 z m 49.79873,0.88715 c 0,-0.55752 -1.144499,-2.68891 -1.443877,-2.68891 -0.34538,0 -0.149906,1.84171 0.271459,2.55764 0.156683,0.26621 1.172418,0.37994 1.172418,0.13127 z m -27.516666,-2.93277 c 0,-0.60075 -2.253904,-0.61774 -2.748012,-0.0207 -0.282123,0.34088 -0.01168,0.44567 1.191525,0.46169 1.057818,0.0141 1.556487,-0.12719 1.556487,-0.44097 z m 50.094443,-0.10892 c 0,-0.19599 -0.940742,-0.35278 -2.116667,-0.35278 -1.175924,0 -2.116666,0.15679 -2.116666,0.35278 0,0.19599 0.940742,0.35278 2.116666,0.35278 1.175925,0 2.116667,-0.15679 2.116667,-0.35278 z m 10.40694405,-1.05833 c 0.12414603,-0.20087 -0.17966618,-0.35278 -0.70555553,-0.35278 -0.52588932,0 -0.82970152,0.15191 -0.70555552,0.35278 0.1199162,0.19403 0.4374162,0.35278 0.70555552,0.35278 0.26813933,0 0.58563932,-0.15875 0.70555553,-0.35278 z M -66.511209,102.43155 c 0.257881,-0.41726 -0.08732,-0.41726 -1.058333,0 -0.68024,0.29231 -0.67782,0.30407 0.06737,0.32798 0.425111,0.0136 0.871043,-0.13396 0.990959,-0.32798 z m 1.940278,-0.35278 c 0,-0.19403 -0.14938,-0.35278 -0.331957,-0.35278 -0.182576,0 -0.430071,0.15875 -0.549987,0.35278 -0.119917,0.19403 0.02946,0.35278 0.331956,0.35278 0.302493,0 0.549988,-0.15875 0.549988,-0.35278 z m 3.785013,-0.56592 c -0.117225,-0.11722 -0.421499,-0.12975 -0.676159,-0.0278 -0.281421,0.11261 -0.197831,0.19621 0.213138,0.21313 0.371884,0.0153 0.580245,-0.0681 0.463021,-0.18528 z m -15.073901,2.00679 c 0.291041,-0.16586 1.084791,-0.39717 1.763888,-0.51403 l 1.234723,-0.21247 -1.058334,0.50885 c -1.172312,0.56364 -2.884424,0.7557 -1.940277,0.21765 z m 43.656248,-4.143953 c 0.242535,-0.09786 0.63941,-0.09786 0.881944,0 0.242535,0.09786 0.0441,0.177938 -0.440972,0.177938 -0.485069,0 -0.683507,-0.08007 -0.440972,-0.177938 z"
         style="fill:#3d3123;stroke-width:1.24568" />
    </g>
  </g>
</svg>
