<?xml version="1.0" encoding="UTF-8" standalone="no"?>
<svg
   xmlns:dc="http://purl.org/dc/elements/1.1/"
   xmlns:cc="http://creativecommons.org/ns#"
   xmlns:rdf="http://www.w3.org/1999/02/22-rdf-syntax-ns#"
   xmlns:svg="http://www.w3.org/2000/svg"
   xmlns="http://www.w3.org/2000/svg"
   xmlns:xlink="http://www.w3.org/1999/xlink"
   xmlns:sodipodi="http://sodipodi.sourceforge.net/DTD/sodipodi-0.dtd"
   xmlns:inkscape="http://www.inkscape.org/namespaces/inkscape"
   inkscape:version="1.0 (4035a4fb49, 2020-05-01)"
   sodipodi:docname="RainbowWavesBackground-01.svg"
   id="svg954"
   xml:space="preserve"
   enable-background="new 0 0 1700 1090"
   viewBox="0 0 1700 1090"
   y="0px"
   x="0px"
   version="1.0"><metadata
   id="metadata960"><rdf:RDF><cc:Work
       rdf:about=""><dc:format>image/svg+xml</dc:format><dc:type
         rdf:resource="http://purl.org/dc/dcmitype/StillImage" /></cc:Work></rdf:RDF></metadata><defs
   id="defs958"><rect
     id="rect1793"
     height="245.65672"
     width="318.86567"
     y="13.014925"
     x="53.686567" /><rect
     id="rect1787"
     height="56.940299"
     width="157.80597"
     y="138.28358"
     x="318.86567" /></defs><sodipodi:namedview
   inkscape:current-layer="svg954"
   inkscape:window-maximized="1"
   inkscape:window-y="-8"
   inkscape:window-x="-8"
   inkscape:cy="935.44776"
   inkscape:cx="850"
   inkscape:zoom="0.6146789"
   showgrid="false"
   id="namedview956"
   inkscape:window-height="837"
   inkscape:window-width="1600"
   inkscape:pageshadow="2"
   inkscape:pageopacity="0"
   guidetolerance="10"
   gridtolerance="10"
   objecttolerance="10"
   borderopacity="1"
   bordercolor="#666666"
   pagecolor="#ffffff" />
<pattern
   overflow="visible"
   viewBox="0 -490.25 490.25 490.25"
   id="Unnamed_Pattern_2"
   patternUnits="userSpaceOnUse"
   height="490.25"
   width="490.25"
   y="-571"
   x="-1586.169">
	<g
   id="g258">
		<polygon
   id="polygon2"
   points="0,-490.25 490.25,-490.25 490.25,0 0,0   "
   fill="none" />
		<path
   id="path4"
   d="M180.657-490.25c0.304,0.519,0.681,1.01,0.886,1.565c0.152,0.41,0.223,1.246,0.085,1.303    c-0.673,0.279-1.429,0.475-2.151,0.46c-0.311-0.007-0.827-0.566-0.871-0.922c-0.098-0.786,0.046-1.602,0.091-2.405    C179.35-490.25,180.004-490.25,180.657-490.25z" />
		<path
   id="path6"
   d="M490.25-102.707c-0.335-0.131-0.813-0.167-0.974-0.412c-0.318-0.485-0.461-1.085-0.677-1.638    c0.55-0.134,1.101-0.268,1.65-0.401C490.25-104.342,490.25-103.524,490.25-102.707z" />
		<path
   id="path8"
   d="M0-105.403c0.848-0.12,1.334,0.227,1.283,1.103c-0.043,0.766-0.346,1.33-1.283,1.104C0-103.933,0-104.668,0-105.403z" />
		<path
   id="path10"
   d="M122.806-163.377c0.86,0.5,1.727,0.993,2.577,1.511c0.117,0.072,0.214,0.268,0.225,0.413    c0.067,0.964,0.178,1.932,0.141,2.893c-0.038,0.976-1.816,2.096-2.861,1.89c-1.742-0.342-2.334-1.189-2.083-2.917    c0.036-0.25-0.088-0.527-0.154-0.788c-0.144-0.568-0.597-1.338-0.381-1.655c0.347-0.51,1.126-0.736,1.741-1.042    c0.164-0.081,0.4-0.013,0.604-0.013C122.678-163.183,122.742-163.279,122.806-163.377z" />
		<path
   id="path12"
   d="M167.349-262.934c-0.956-0.623-1.721-1.074-2.429-1.602c-0.348-0.258-0.54-0.73-0.893-0.979    c-0.873-0.615-0.873-1.548-0.346-2.115c0.387-0.416,1.371-0.461,2.048-0.367c0.626,0.088,1.36,0.443,1.754,0.922    c0.669,0.81,1.22,1.773,1.553,2.764C169.109-264.094,168.063-263.5,167.349-262.934z" />
		<path
   id="path14"
   d="M410.513-22.612c1.121-0.018,2.189,0.022,2.251,1.564c0.007,0.172,0.281,0.372,0.474,0.492    c0.997,0.623,1.104,1.115,0.436,2.149c-0.414,0.639-1.569,0.878-2.161,0.328c-0.915-0.851-1.772-1.773-2.577-2.729    c-0.272-0.323-0.544-0.974-0.396-1.239c0.179-0.319,0.797-0.416,1.242-0.553C410.006-22.669,410.268-22.612,410.513-22.612z" />
		<path
   id="path16"
   d="M27.67-87.161c0.293-0.686,0.409-1.738,0.914-1.979c1.074-0.514,1.621,0.482,2.099,1.323    c0.136,0.239,0.392,0.407,0.583,0.616c0.494,0.542,0.549,1.066-0.07,1.563c-0.185,0.149-0.414,0.284-0.519,0.481    c-0.264,0.488-0.197,1.402-1.123,1.037c-0.848-0.334-1.797-0.705-1.631-1.955c0.042-0.319,0.006-0.649,0.006-0.976    C27.842-87.088,27.756-87.125,27.67-87.161z" />
		<path
   id="path18"
   d="M104.574-192.588c1.413-0.172,2.057,0.931,2.736,1.685c0.734,0.816,0.029,2.153-1.076,2.211    c-1.15,0.06-2.502,0.36-2.563-1.495c-0.003-0.075-0.043-0.171-0.099-0.219c-0.495-0.436-1.15-0.938-0.599-1.599    C103.29-192.382,104.027-192.405,104.574-192.588z" />
		<path
   id="path20"
   d="M423.967-244.215c1.028-0.854,2.244-0.602,2.81,0.684c0.504,1.146-0.786,1.342-1.208,1.991    c-0.112,0.174-0.918,0.158-1.143-0.052c-0.697-0.651-1.293-1.421-1.867-2.189c-0.113-0.15,0.042-0.501,0.074-0.76    C423.03-244.443,423.428-244.347,423.967-244.215z" />
		<path
   id="path22"
   d="M276.11-331.125c-0.345,0.37-0.82,1.166-1.521,1.549c-0.677,0.369-0.959-0.373-0.998-0.968    c-0.051-0.759,0.079-1.534-0.807-1.979c-0.155-0.078-0.224-0.662-0.099-0.875c0.15-0.259,0.535-0.486,0.845-0.525    C274.495-334.043,276.075-332.563,276.11-331.125z" />
		<path
   id="path24"
   d="M40.781-440.727c1.05,0.757,1.999,1.38,2.854,2.112c0.152,0.13-0.024,1.015-0.158,1.043    c-0.596,0.128-1.258,0.185-1.848,0.052c-0.623-0.141-1.241-0.456-1.766-0.831c-0.329-0.235-0.759-0.923-0.661-1.057    C39.54-439.871,40.088-440.181,40.781-440.727z" />
		<path
   id="path26"
   d="M80.258-430.222c0.479,0.422,1.311,0.804,1.363,1.273c0.111,0.993-0.942,1.761-1.912,1.732    c-1.049-0.03-1.298-0.671-1.266-1.55C78.482-429.81,79.163-430.023,80.258-430.222z" />
		<path
   id="path28"
   d="M211.65-380.598c0.994-0.689,2.104-1.123,3.329-0.756c0.306,0.092,0.573,0.813,0.57,1.244    c-0.001,0.254-0.613,0.76-0.871,0.713c-1.018-0.184-2.007-0.542-3.006-0.836C211.665-380.353,211.658-380.476,211.65-380.598z" />
		<path
   id="path30"
   d="M262.654-238.313c0.579,0.546,1.329,1.16,1.284,1.224c-0.456,0.658-1.041,1.227-1.59,1.819    c-0.485-0.58-0.971-1.16-1.456-1.74C261.409-237.393,261.927-237.775,262.654-238.313z" />
		<path
   id="path32"
   d="M115.78-108.964c0.603,0.625,1.187,0.958,1.296,1.406c0.178,0.731-0.751,1.758-1.382,1.722    c-1.03-0.06-1.316-0.895-1.239-1.642C114.502-107.929,115.172-108.314,115.78-108.964z" />
		<path
   id="path34"
   d="M6.304-485.897c0.179-0.39,0.313-1.103,0.743-1.464c0.248-0.209,1.07,0.015,1.461,0.289    c0.569,0.397,1.307,0.941,0.809,1.789c-0.145,0.245-0.84,0.326-1.223,0.234C7.529-485.185,7.02-485.543,6.304-485.897z" />
		<path
   id="path36"
   d="M253.243-241.965c0.325,0,0.713-0.111,0.962,0.027c0.335,0.186,0.778,0.567,0.775,0.862    c-0.002,0.296-0.448,0.752-0.781,0.844c-0.531,0.146-1.159,0.16-1.691,0.022c-0.417-0.109-0.994-0.477-1.076-0.827    c-0.169-0.727,0.434-0.945,1.078-0.95c0.244-0.001,0.489,0,0.733,0C253.243-241.979,253.243-241.973,253.243-241.965z" />
		<path
   id="path38"
   d="M246.364-348.585c-0.35,0.389-0.638,1.006-1.061,1.117c-0.825,0.218-1.079-0.485-1.173-1.175    c-0.038-0.277-0.121-0.617-0.005-0.832c0.263-0.486,0.636-0.912,0.965-1.363c0.316,0.438,0.659,0.859,0.933,1.321    c0.112,0.191,0.074,0.472,0.104,0.713C246.206-348.73,246.285-348.658,246.364-348.585z" />
		<path
   id="path40"
   d="M49.4-431.242c0.036,0.713-2.192,2.207-2.75,1.919c-0.2-0.104-0.51-0.432-0.485-0.469c0.475-0.718,0.903-1.513,1.544-2.05    c0.26-0.217,1.01,0.127,1.523,0.262C49.33-431.555,49.371-431.309,49.4-431.242z" />
		<path
   id="path42"
   d="M49.857-426.449c-0.145,1.076-0.215,1.818-0.365,2.546c-0.031,0.148-0.381,0.346-0.551,0.317    c-0.162-0.026-0.32-0.299-0.411-0.496c-0.212-0.463-0.423-0.933-0.56-1.42c-0.135-0.476-0.314-1.017-0.198-1.455    c0.058-0.218,0.816-0.471,1.114-0.352C49.338-427.128,49.662-426.635,49.857-426.449z" />
		<path
   id="path44"
   d="M164.088-260.299c-0.166,0.142-0.744,0.74-0.824,0.68c-0.667-0.505-1.242-1.131-1.846-1.72    c0.405-0.291,0.791-0.79,1.219-0.829C163.625-262.259,164.117-261.652,164.088-260.299z" />
		<path
   id="path46"
   d="M136.045-395.851c-1.227-0.041-1.99-0.792-1.88-1.681c0.042-0.336,0.457-0.625,0.702-0.936    c0.643,0.585,1.303,1.154,1.886,1.793C136.788-396.635,136.201-396.029,136.045-395.851z" />
		<path
   id="path48"
   d="M285.331-195.644c0.747,0.662,1.444,1.218,2.041,1.865c0.107,0.117-0.114,0.795-0.327,0.889    c-0.292,0.129-0.766,0.035-1.08-0.124c-0.401-0.204-0.746-0.544-1.068-0.872c-0.23-0.235-0.585-0.609-0.523-0.81    C284.469-195.005,284.873-195.218,285.331-195.644z" />
		<path
   id="path50"
   d="M18.756-483.176c-0.089,2.184-0.915,2.897-2.259,2.279c-0.645-0.297-0.946-0.881-0.314-1.297    C16.9-482.664,17.815-482.834,18.756-483.176z" />
		<path
   id="path52"
   d="M408.542-14.519c-1.066-0.225-1.647-0.606-1.508-1.46c0.071-0.438,0.564-0.808,0.865-1.209    c0.576,0.508,1.152,1.015,1.729,1.523C409.266-15.283,408.903-14.901,408.542-14.519z" />
		<path
   id="path54"
   d="M397.072-210.63c0.172,0.177,0.645,0.459,0.787,0.859c0.192,0.538-1.045,1.581-1.887,1.565    c-0.271-0.006-0.722-0.385-0.768-0.649C395.081-209.564,396.052-210.589,397.072-210.63z" />
		<path
   id="path56"
   d="M115.83-226.777c0.473,0.56,1.01,1.079,1.389,1.695c0.176,0.285,0.145,0.799,0.01,1.129    c-0.057,0.142-0.757,0.231-0.92,0.08c-0.459-0.425-0.898-0.942-1.132-1.512c-0.146-0.356,0.093-0.871,0.159-1.315    C115.5-226.726,115.666-226.752,115.83-226.777z" />
		<path
   id="path58"
   d="M459.269-133.65c-0.728-0.6-1.238-1.021-1.749-1.442c0.36-0.315,0.722-0.891,1.082-0.891    c0.654,0.001,1.62-0.018,1.622,1.009C460.224-134.614,459.724-134.254,459.269-133.65z" />
		<path
   id="path60"
   d="M117.318-285.939c0.566,0.629,1.166,0.988,1.207,1.403c0.089,0.881-0.683,0.93-1.358,0.928    c-0.677-0.002-1.333-0.213-1.167-0.988C116.092-285.021,116.698-285.336,117.318-285.939z" />
		<path
   id="path62"
   d="M203.846-377.535c0.709,0.83,1.205,1.35,1.582,1.945c0.039,0.063-0.863,0.88-0.934,0.826    c-0.526-0.398-1.018-0.888-1.369-1.445C203.029-376.361,203.453-376.84,203.846-377.535z" />
		<path
   id="path64"
   d="M385.129-331.648c-0.707,0.618-1.103,0.965-1.501,1.311c-0.313-0.435-0.845-0.857-0.871-1.31    c-0.023-0.381,0.542-0.797,0.847-1.197C384.009-332.525,384.414-332.208,385.129-331.648z" />
		<path
   id="path66"
   d="M383.805-301.449c-0.46-0.57-0.746-0.926-1.032-1.281c0.385-0.309,0.782-0.875,1.152-0.857    c0.408,0.019,0.792,0.573,1.186,0.895C384.743-302.342,384.375-301.992,383.805-301.449z" />
		<path
   id="path68"
   d="M381.859-151.628c-0.579,0.538-0.939,0.871-1.298,1.205c-0.287-0.411-0.8-0.822-0.799-1.232    c0.001-0.4,0.526-0.801,0.821-1.2C380.938-152.516,381.29-152.176,381.859-151.628z" />
		<path
   id="path70"
   d="M287.8-309.379c-0.549,0.543-0.878,0.868-1.207,1.193c-0.289-0.406-0.778-0.799-0.807-1.224    c-0.024-0.355,0.489-0.745,0.765-1.12C286.906-310.202,287.262-309.875,287.8-309.379z" />
		<path
   id="path72"
   d="M362.642-352.016c-0.573,0.494-0.929,0.801-1.285,1.108c-0.289-0.46-0.697-0.895-0.809-1.396    c-0.045-0.198,0.621-0.811,0.869-0.761C361.803-352.986,362.107-352.504,362.642-352.016z" />
		<path
   id="path74"
   d="M73.533-99.747c-0.551,0.45-0.947,1.006-1.239,0.955c-0.354-0.062-0.901-0.669-0.86-0.974    c0.056-0.431,0.574-0.801,0.895-1.196C72.661-100.627,72.994-100.291,73.533-99.747z" />
		<path
   id="path76"
   d="M361.338-469.227c-0.579-0.58-0.933-0.935-1.286-1.289c0.36-0.304,0.747-0.872,1.076-0.841    c0.398,0.038,0.848,0.531,1.067,0.939C362.276-470.268,361.765-469.799,361.338-469.227z" />
		<path
   id="path78"
   d="M123.262-190.374c-0.48-0.516-0.794-0.853-1.107-1.189c0.383-0.273,0.769-0.764,1.147-0.759    c0.383,0.005,0.759,0.502,1.138,0.783C124.108-191.211,123.777-190.883,123.262-190.374z" />
		<path
   id="path80"
   d="M222.621-414.696c-0.482-0.564-0.785-0.92-1.088-1.275c0.413-0.288,0.813-0.768,1.244-0.799    c0.3-0.021,0.9,0.577,0.897,0.894C223.672-415.541,223.112-415.211,222.621-414.696z" />
		<path
   id="path82"
   d="M177.556-392.487c-0.41-0.565-0.661-0.911-0.911-1.257c0.418-0.277,0.836-0.766,1.256-0.769    c0.348-0.002,0.699,0.567,1.049,0.884C178.555-393.306,178.159-392.982,177.556-392.487z" />
		<path
   id="path84"
   d="M111.823-124.538c-0.458-0.624-0.928-0.988-0.924-1.348c0.003-0.287,0.611-0.82,0.902-0.789    c0.401,0.043,0.756,0.515,1.13,0.803C112.637-125.517,112.34-125.16,111.823-124.538z" />
		<path
   id="path86"
   d="M226.35-323.859c-0.482,0.58-0.965,1.161-1.447,1.741c-0.274-0.235-0.775-0.46-0.787-0.708    c-0.063-1.346,1.213-0.925,1.836-1.391C226.084-324.098,226.217-323.978,226.35-323.859z" />
		<path
   id="path88"
   d="M337.273-482.493c-0.403-0.546-0.908-0.95-0.842-1.208c0.086-0.331,0.654-0.783,0.968-0.75    c0.401,0.043,0.757,0.52,1.132,0.809C338.182-483.324,337.833-483.005,337.273-482.493z" />
		<path
   id="path90"
   d="M368.735-240.026c-0.605,0.514-0.938,1.008-1.31,1.04c-0.267,0.023-0.843-0.594-0.817-0.887    c0.031-0.374,0.472-0.871,0.846-1C367.688-240.953,368.121-240.454,368.735-240.026z" />
		<path
   id="path92"
   d="M224.033-473.25c-0.508,0.512-0.832,0.839-1.157,1.166c-0.262-0.348-0.744-0.706-0.728-1.04    c0.02-0.386,0.479-0.75,0.746-1.124C223.211-473.97,223.528-473.691,224.033-473.25z" />
		<path
   id="path94"
   d="M230.19-35.191c0.225,0.407,0.634,0.822,0.617,1.219c-0.015,0.33-0.53,0.638-0.825,0.956    c-0.297-0.308-0.813-0.599-0.837-0.927c-0.03-0.397,0.355-0.825,0.56-1.24C229.867-35.187,230.028-35.188,230.19-35.191z" />
		<path
   id="path96"
   d="M481.976-294.908c-0.596,0.513-0.916,0.992-1.297,1.047c-0.262,0.037-0.607-0.518-0.915-0.808    c0.354-0.304,0.671-0.697,1.08-0.87C481.025-295.616,481.395-295.248,481.976-294.908z" />
		<path
   id="path98"
   d="M210.063-109.647c-0.672,0.4-1.082,0.837-1.376,0.769c-0.33-0.075-0.783-0.626-0.76-0.937    c0.025-0.321,0.547-0.819,0.875-0.838C209.111-110.672,209.449-110.166,210.063-109.647z" />
		<path
   id="path100"
   d="M255.035-405.848c-0.222-0.352-0.646-0.725-0.611-1.049c0.039-0.348,0.51-0.648,0.791-0.971    c0.301,0.308,0.792,0.585,0.847,0.932c0.051,0.32-0.364,0.716-0.573,1.078C255.337-405.853,255.186-405.851,255.035-405.848z" />
		<path
   id="path102"
   d="M225.824-245.811c-0.447-0.666-0.908-1.057-0.854-1.352c0.062-0.336,0.584-0.811,0.906-0.811    c0.301-0.002,0.802,0.518,0.843,0.854C226.758-246.817,226.291-246.453,225.824-245.811z" />
		<path
   id="path104"
   d="M239.98-436.855c-0.378-0.691-0.758-1.076-0.721-1.415c0.031-0.291,0.539-0.53,0.836-0.792    c0.281,0.318,0.73,0.611,0.789,0.967C240.928-437.832,240.464-437.484,239.98-436.855z" />
		<path
   id="path106"
   d="M468.53-226.237c0.421,0.663,0.828,1.023,0.811,1.363c-0.014,0.291-0.583,0.829-0.781,0.777    c-0.355-0.094-0.776-0.51-0.858-0.863C467.642-225.216,468.086-225.589,468.53-226.237z" />
		<path
   id="path108"
   d="M193.822-249.078c-0.634,0.368-1.001,0.755-1.295,0.706c-0.316-0.053-0.564-0.515-0.843-0.798    c0.318-0.281,0.608-0.726,0.965-0.788C192.904-250.003,193.248-249.533,193.822-249.078z" />
		<path
   id="path110"
   d="M422.334-224.769c-0.702,0.351-1.099,0.715-1.439,0.667c-0.286-0.04-0.768-0.655-0.697-0.844    c0.127-0.343,0.578-0.726,0.934-0.77C421.398-225.747,421.727-225.272,422.334-224.769z" />
		<path
   id="path112"
   d="M197.625-361.176c-0.351,0.223-0.707,0.623-1.049,0.611c-0.285-0.009-0.77-0.498-0.774-0.78    c-0.004-0.3,0.434-0.821,0.718-0.851c0.341-0.034,0.726,0.35,1.091,0.553C197.615-361.486,197.62-361.332,197.625-361.176z" />
		<path
   id="path114"
   d="M146.33-155.113c-0.604,0.398-0.982,0.833-1.238,0.77c-0.355-0.087-0.618-0.549-0.92-0.85    c0.324-0.276,0.622-0.715,0.982-0.774C145.416-156.011,145.76-155.551,146.33-155.113z" />
		<path
   id="path116"
   d="M109.698-187.323c-0.35,0.23-0.703,0.643-1.048,0.635c-0.289-0.006-0.773-0.487-0.793-0.781    c-0.018-0.283,0.428-0.807,0.716-0.843c0.341-0.042,0.733,0.326,1.103,0.517C109.684-187.639,109.69-187.48,109.698-187.323z" />
		<path
   id="path118"
   d="M201.967-116.637c-0.682,0.375-1.092,0.778-1.344,0.696c-0.342-0.112-0.719-0.569-0.775-0.927    c-0.032-0.204,0.554-0.719,0.843-0.704C201.03-117.556,201.35-117.117,201.967-116.637z" />
		<path
   id="path120"
   d="M247.479-113.649c-0.692,0.394-1.072,0.78-1.416,0.751c-0.285-0.024-0.789-0.615-0.73-0.82    c0.1-0.343,0.543-0.746,0.895-0.805C246.493-114.568,246.843-114.117,247.479-113.649z" />
		<path
   id="path122"
   d="M372.832-110.747c-0.693,0.453-1.046,0.858-1.392,0.853c-0.275-0.004-0.542-0.512-0.813-0.796    c0.313-0.287,0.59-0.712,0.955-0.813C371.817-111.569,372.185-111.16,372.832-110.747z" />
		<path
   id="path124"
   d="M36.125-104.607c-0.596,0.405-0.961,0.843-1.23,0.79c-0.356-0.069-0.638-0.523-0.951-0.812    c0.32-0.279,0.613-0.722,0.971-0.783C35.186-105.458,35.54-105.019,36.125-104.607z" />
		<path
   id="path126"
   d="M289.611-33.606c-0.42-0.578-0.87-0.935-0.82-1.195c0.068-0.356,0.517-0.642,0.802-0.957    c0.292,0.311,0.745,0.587,0.82,0.944C290.468-34.556,290.021-34.191,289.611-33.606z" />
		<path
   id="path128"
   d="M318.214-345.087c-0.683,0.38-1.092,0.786-1.344,0.704c-0.345-0.111-0.571-0.592-0.849-0.914    c0.303-0.26,0.613-0.733,0.906-0.723C317.268-346.006,317.591-345.566,318.214-345.087z" />
		<path
   id="path130"
   d="M154.151-343.428c0.409,0.578,0.852,0.938,0.799,1.195c-0.075,0.355-0.521,0.634-0.81,0.945    c-0.289-0.313-0.741-0.592-0.814-0.949C153.273-342.49,153.729-342.85,154.151-343.428z" />
		<path
   id="path132"
   d="M47.958-319.599c-0.399-0.691-0.791-1.067-0.759-1.404c0.027-0.294,0.53-0.544,0.823-0.814    c0.284,0.315,0.729,0.6,0.798,0.958C48.869-320.599,48.423-320.243,47.958-319.599z" />
		<path
   id="path134"
   d="M114.643-222.146c0.434,0.603,0.856,0.938,0.868,1.286c0.009,0.265-0.505,0.547-0.787,0.821    c-0.285-0.321-0.681-0.605-0.811-0.98C113.847-221.213,114.252-221.569,114.643-222.146z" />
		<path
   id="path136"
   d="M412.847-353.043c-0.376-0.615-0.801-1.017-0.725-1.258c0.109-0.342,0.588-0.567,0.908-0.843    c0.244,0.308,0.672,0.61,0.682,0.926C413.722-353.922,413.291-353.611,412.847-353.043z" />
		<path
   id="path138"
   d="M423.049-147.77c-0.438-0.658-0.855-1.011-0.842-1.349c0.01-0.295,0.503-0.573,0.782-0.858    c0.301,0.3,0.76,0.562,0.849,0.914C423.901-148.807,423.474-148.428,423.049-147.77z" />
		<path
   id="path140"
   d="M140.004-86.165c-0.363,0.203-0.744,0.587-1.087,0.555c-0.289-0.027-0.743-0.538-0.738-0.83    c0.005-0.287,0.482-0.78,0.771-0.796c0.344-0.018,0.707,0.38,1.063,0.597C140.01-86.481,140.007-86.323,140.004-86.165z" />
		<path
   id="path142"
   d="M363.406-38.745c-0.344,0.238-0.688,0.657-1.032,0.656c-0.286,0-0.779-0.476-0.8-0.771    c-0.021-0.286,0.411-0.819,0.697-0.858c0.34-0.047,0.735,0.318,1.107,0.505C363.388-39.057,363.397-38.9,363.406-38.745z" />
		<path
   id="path144"
   d="M481.961-304.648c-0.685,0.377-1.099,0.782-1.347,0.699c-0.345-0.117-0.567-0.6-0.842-0.926    c0.306-0.256,0.62-0.727,0.913-0.713C481.024-305.572,481.344-305.131,481.961-304.648z" />
		<path
   id="path146"
   d="M484.62-208.487c-0.37-0.608-0.76-0.965-0.719-1.26c0.045-0.311,0.501-0.563,0.777-0.842    c0.288,0.307,0.743,0.583,0.808,0.932C485.534-209.404,485.064-209.056,484.62-208.487z" />
		<path
   id="path148"
   d="M284.544-183.224c-0.411-0.589-0.86-0.964-0.798-1.208c0.088-0.345,0.555-0.594,0.859-0.884    c0.261,0.291,0.704,0.566,0.731,0.879C285.363-184.143,284.951-183.81,284.544-183.224z" />
		<path
   id="path150"
   d="M246.137-432.895c0.588,0.692,1.058,1.247,1.528,1.801c-0.173,0.127-0.46,0.395-0.503,0.359    c-0.541-0.436-1.058-0.904-1.539-1.405C245.59-432.176,245.881-432.524,246.137-432.895z" />
		<path
   id="path152"
   d="M73.499-440.874c-0.313,0.138-0.67,0.439-0.931,0.371c-0.349-0.09-0.624-0.466-0.931-0.72    c0.269-0.235,0.556-0.682,0.8-0.66c0.385,0.035,0.74,0.387,1.109,0.603C73.531-441.145,73.515-441.009,73.499-440.874z" />
		<path
   id="path154"
   d="M345.292-253.451c0.366,0.642,0.755,1.018,0.697,1.305c-0.063,0.305-0.56,0.742-0.841,0.723    c-0.278-0.019-0.712-0.522-0.729-0.833C344.403-252.549,344.84-252.867,345.292-253.451z" />
		<path
   id="path156"
   d="M83.476-417.195c0.374,0.611,0.801,1.016,0.722,1.25c-0.113,0.34-0.592,0.558-0.914,0.828    c-0.244-0.307-0.668-0.608-0.677-0.922C82.598-416.332,83.031-416.637,83.476-417.195z" />
		<path
   id="path158"
   d="M476.855-279.386c-0.67,0.374-1.061,0.767-1.329,0.697c-0.303-0.079-0.642-0.561-0.68-0.899    c-0.023-0.205,0.503-0.67,0.768-0.658C475.934-280.233,476.237-279.84,476.855-279.386z" />
		<path
   id="path160"
   d="M214.052-387.592c-0.642,0.383-1.008,0.777-1.295,0.727c-0.309-0.057-0.763-0.542-0.747-0.818    c0.016-0.284,0.502-0.728,0.815-0.757C213.115-388.467,213.445-388.036,214.052-387.592z" />
		<path
   id="path162"
   d="M53.063-14.393c-0.406-0.654-0.811-1.019-0.76-1.3c0.056-0.303,0.512-0.675,0.843-0.733    c0.199-0.035,0.689,0.468,0.694,0.735C53.848-15.369,53.477-15.041,53.063-14.393z" />
		<path
   id="path164"
   d="M293.905-164.266c-0.65,0.411-1.012,0.817-1.292,0.768c-0.304-0.054-0.676-0.506-0.738-0.837    c-0.036-0.196,0.462-0.688,0.73-0.695C292.925-165.04,293.255-164.673,293.905-164.266z" />
		<path
   id="path166"
   d="M41.653-455.156c-0.128-0.375-0.409-0.782-0.342-1.119c0.063-0.322,0.486-0.789,0.758-0.794    c0.298-0.005,0.603,0.448,0.903,0.7c-0.23,0.275-0.461,0.551-0.691,0.825C42.072-455.414,41.862-455.285,41.653-455.156z" />
		<path
   id="path168"
   d="M412.003-370.411c-0.512,0.339-0.832,0.716-1.103,0.683c-0.286-0.033-0.524-0.459-0.783-0.715    c0.284-0.268,0.537-0.686,0.863-0.754C411.201-371.244,411.525-370.799,412.003-370.411z" />
		<path
   id="path170"
   d="M438.341-4.482c-0.572,0.337-0.91,0.692-1.223,0.671c-0.259-0.018-0.487-0.479-0.729-0.743    c0.285-0.261,0.544-0.671,0.867-0.731C437.486-5.329,437.805-4.901,438.341-4.482z" />
		<path
   id="path172"
   d="M365.484-261.327c-0.477,0.366-0.805,0.794-1.024,0.745c-0.319-0.072-0.559-0.488-0.834-0.759    c0.262-0.244,0.508-0.657,0.789-0.683C364.685-262.049,364.991-261.67,365.484-261.327z" />
		<path
   id="path174"
   d="M243.049-467.685c-0.235-0.488-0.483-0.854-0.427-0.909c0.475-0.466,1.003-0.878,1.532-1.282    c0.017-0.013,0.362,0.336,0.344,0.361C244.086-468.958,243.645-468.422,243.049-467.685z" />
		<path
   id="path176"
   d="M239.13-397.704c-0.5,0.329-0.857,0.73-1.07,0.663c-0.312-0.096-0.52-0.527-0.771-0.815    c0.276-0.225,0.55-0.617,0.831-0.622C238.388-398.481,238.663-398.083,239.13-397.704z" />
		<path
   id="path178"
   d="M43.037-423.131c0.32,0.549,0.681,0.891,0.632,1.157c-0.05,0.278-0.497,0.483-0.77,0.721    c-0.235-0.275-0.643-0.544-0.654-0.827C42.236-422.352,42.642-422.637,43.037-423.131z" />
		<path
   id="path180"
   d="M127.791-355.935c-0.41,0.35-0.684,0.582-0.957,0.814c-0.218-0.336-0.579-0.662-0.604-1.011    c-0.016-0.226,0.463-0.486,0.719-0.731C127.19-356.597,127.432-356.33,127.791-355.935z" />
		<path
   id="path182"
   d="M51.006-88.38c-0.336-0.52-0.705-0.84-0.667-1.1c0.04-0.274,0.47-0.491,0.729-0.732c0.242,0.26,0.652,0.507,0.674,0.785    C51.764-89.166,51.374-88.872,51.006-88.38z" />
		<path
   id="path184"
   d="M322.919-466.225c0.338,0.605,0.645,0.904,0.613,1.162c-0.04,0.326-0.357,0.617-0.555,0.924    c-0.209-0.252-0.569-0.493-0.588-0.76C322.366-465.217,322.634-465.557,322.919-466.225z" />
		<path
   id="path186"
   d="M409.947-276.387c-0.379-0.512-0.733-0.783-0.751-1.076c-0.015-0.235,0.414-0.721,0.583-0.695    c0.307,0.049,0.736,0.357,0.796,0.628C410.63-277.279,410.27-276.935,409.947-276.387z" />
		<path
   id="path188"
   d="M78.396-218.671c-0.371-0.541-0.749-0.85-0.722-1.116c0.029-0.276,0.449-0.513,0.699-0.767    c0.23,0.231,0.639,0.455,0.648,0.695C79.033-219.558,78.719-219.244,78.396-218.671z" />
		<path
   id="path190"
   d="M80.338-204.679c0.34,0.442,0.732,0.749,0.684,0.941c-0.076,0.297-0.455,0.516-0.707,0.767    c-0.219-0.241-0.59-0.47-0.613-0.73C79.68-203.945,80.022-204.223,80.338-204.679z" />
		<path
   id="path192"
   d="M238.084-442.253c0.316,0.501,0.648,0.8,0.641,1.09c-0.006,0.226-0.512,0.66-0.664,0.609    c-0.293-0.099-0.627-0.446-0.688-0.743C237.331-441.501,237.723-441.793,238.084-442.253z" />
		<path
   id="path194"
   d="M370.484-327.032c-0.465,0.362-0.761,0.756-0.965,0.713c-0.299-0.063-0.642-0.401-0.744-0.698    c-0.05-0.147,0.392-0.654,0.617-0.658C369.685-327.682,369.984-327.349,370.484-327.032z" />
		<path
   id="path196"
   d="M90.469-236.551c0.365-0.371,0.73-0.741,1.096-1.112c0.178,0.187,0.524,0.521,0.51,0.539    c-0.342,0.387-0.722,0.74-1.096,1.099C90.809-236.2,90.639-236.376,90.469-236.551z" />
		<path
   id="path198"
   d="M221.221-486.795c-0.341-0.314-0.682-0.63-1.023-0.945c0.233-0.217,0.466-0.433,0.699-0.649    c0.291,0.371,0.582,0.741,0.873,1.112C221.586-487.116,221.404-486.955,221.221-486.795z" />
		<path
   id="path200"
   d="M436.136-154.184c-0.404,0.341-0.684,0.745-0.887,0.709c-0.299-0.052-0.543-0.418-0.811-0.65    c0.252-0.25,0.471-0.631,0.766-0.703C435.404-154.878,435.711-154.495,436.136-154.184z" />
		<path
   id="path202"
   d="M235.1-215.726c-0.584,0.311-0.908,0.622-1.197,0.593c-0.227-0.022-0.582-0.478-0.566-0.72    c0.014-0.236,0.436-0.635,0.662-0.624C234.29-216.464,234.566-216.113,235.1-215.726z" />
		<path
   id="path204"
   d="M325.541-183.378c-0.61,0.241-0.938,0.493-1.211,0.443c-0.257-0.047-0.456-0.411-0.682-0.635    c0.295-0.152,0.585-0.408,0.887-0.424C324.769-184.005,325.018-183.715,325.541-183.378z" />
		<path
   id="path206"
   d="M160.244-305.761c0.316,0.459,0.659,0.739,0.636,0.983c-0.024,0.26-0.398,0.485-0.618,0.727    c-0.25-0.253-0.629-0.474-0.703-0.77C159.511-305.015,159.904-305.318,160.244-305.761z" />
		<path
   id="path208"
   d="M244.109-475.578c-0.457,0.322-0.775,0.703-0.969,0.647c-0.293-0.084-0.499-0.473-0.742-0.733    c0.251-0.211,0.493-0.573,0.755-0.588C243.398-476.268,243.664-475.912,244.109-475.578z" />
		<path
   id="path210"
   d="M61.142-19.691c0.333,0.437,0.69,0.702,0.679,0.949c-0.012,0.26-0.379,0.503-0.592,0.753    c-0.26-0.243-0.65-0.448-0.735-0.741C60.438-18.924,60.822-19.244,61.142-19.691z" />
		<path
   id="path212"
   d="M231.904-481.65c0.365,0.43,0.775,0.715,0.736,0.91c-0.059,0.299-0.43,0.537-0.668,0.801    c-0.232-0.229-0.617-0.438-0.654-0.693C231.283-480.879,231.611-481.176,231.904-481.65z" />
		<path
   id="path214"
   d="M37.885-26.853c-0.42,0.358-0.709,0.772-0.904,0.732c-0.3-0.062-0.534-0.437-0.796-0.679    c0.231-0.233,0.441-0.623,0.698-0.657C37.129-27.487,37.423-27.149,37.885-26.853z" />
		<path
   id="path216"
   d="M444.33-189.509c0.287,0.466,0.648,0.807,0.581,0.998c-0.101,0.286-0.501,0.467-0.774,0.692    c-0.196-0.262-0.549-0.525-0.546-0.785C443.595-188.85,443.969-189.091,444.33-189.509z" />
		<path
   id="path218"
   d="M256.17-283.552c-0.291-0.495-0.614-0.801-0.57-1.038c0.048-0.251,0.443-0.438,0.687-0.652    c0.214,0.246,0.584,0.484,0.596,0.739C256.895-284.262,256.529-284.004,256.17-283.552z" />
		<path
   id="path220"
   d="M219.848-75.366c-0.293-0.436-0.631-0.72-0.6-0.954c0.033-0.248,0.488-0.67,0.637-0.623    c0.294,0.091,0.629,0.422,0.701,0.714C220.629-76.055,220.205-75.765,219.848-75.366z" />
		<path
   id="path222"
   d="M474.503-55.907c-0.365,0.234-0.656,0.523-0.758,0.467c-0.306-0.167-0.537-0.47-0.798-0.72    c0.227-0.186,0.503-0.558,0.67-0.514C473.901-56.6,474.117-56.264,474.503-55.907z" />
		<path
   id="path224"
   d="M47.287-50.263c-0.365,0.678-0.521,1.146-0.83,1.466c-0.158,0.165-0.592,0.066-0.9,0.087    c0.063-0.277,0.032-0.673,0.205-0.808C46.117-49.796,46.582-49.935,47.287-50.263z" />
		<path
   id="path226"
   d="M24.705-46.036c-0.286-0.452-0.613-0.74-0.58-0.979c0.035-0.253,0.412-0.458,0.641-0.684    c0.24,0.256,0.609,0.484,0.674,0.778C25.48-46.734,25.066-46.449,24.705-46.036z" />
		<path
   id="path228"
   d="M158.174-194.658c-0.449,0.359-0.709,0.727-0.949,0.716c-0.254-0.014-0.666-0.378-0.682-0.61    c-0.015-0.228,0.355-0.635,0.608-0.681C157.388-195.275,157.691-194.948,158.174-194.658z" />
		<path
   id="path230"
   d="M398.748-1.479c-0.498,0.308-0.768,0.603-1.036,0.599c-0.207-0.003-0.604-0.425-0.568-0.579    c0.063-0.273,0.369-0.641,0.617-0.678C397.986-2.17,398.27-1.817,398.748-1.479z" />
		<path
   id="path232"
   d="M176.607-486.566c0.309,0.422,0.492,0.674,0.678,0.926c-0.268,0.18-0.527,0.479-0.806,0.498    c-0.193,0.014-0.604-0.392-0.577-0.551C175.947-485.958,176.268-486.175,176.607-486.566z" />
		<path
   id="path234"
   d="M56.086-287.559c-0.5,0.313-0.803,0.648-1.029,0.604c-0.247-0.05-0.531-0.428-0.59-0.707    c-0.029-0.145,0.396-0.547,0.609-0.541C55.342-288.195,55.6-287.889,56.086-287.559z" />
		<path
   id="path236"
   d="M25.755-336.053c-0.509,0.297-0.821,0.625-1.048,0.574c-0.245-0.056-0.517-0.447-0.566-0.729    c-0.025-0.147,0.414-0.537,0.624-0.523C25.031-336.713,25.28-336.398,25.755-336.053z" />
		<path
   id="path238"
   d="M2.454-212.764c0.354,0.47,0.674,0.712,0.696,0.978c0.018,0.211-0.364,0.658-0.51,0.635    c-0.284-0.046-0.682-0.308-0.742-0.554C1.842-211.929,2.165-212.249,2.454-212.764z" />
		<path
   id="path240"
   d="M484.653-212.861c-0.453,0.359-0.716,0.726-0.946,0.706c-0.247-0.021-0.574-0.373-0.65-0.642    c-0.043-0.153,0.334-0.594,0.542-0.607C483.864-213.423,484.149-213.14,484.653-212.861z" />
		<path
   id="path242"
   d="M394.665-452.385c-0.295-0.473-0.627-0.771-0.585-1.002c0.046-0.248,0.448-0.607,0.681-0.597    c0.226,0.011,0.589,0.421,0.602,0.671C395.374-453.076,395.011-452.819,394.665-452.385z" />
		<path
   id="path244"
   d="M294.643-75.328c-0.489,0.335-0.776,0.683-1.005,0.647c-0.249-0.04-0.549-0.407-0.616-0.684    c-0.035-0.146,0.373-0.564,0.583-0.566C293.872-75.934,294.143-75.639,294.643-75.328z" />
		<path
   id="path246"
   d="M52.005-475.432c-0.286-0.535-0.584-0.84-0.544-1.089c0.041-0.256,0.414-0.458,0.641-0.683    c0.199,0.248,0.543,0.492,0.555,0.748C52.667-476.199,52.342-475.93,52.005-475.432z" />
		<path
   id="path248"
   d="M456.295-342.1c0.357,0.404,0.723,0.646,0.696,0.829c-0.041,0.274-0.315,0.601-0.575,0.72    c-0.122,0.057-0.612-0.304-0.63-0.503C455.763-341.317,456.038-341.608,456.295-342.1z" />
		<path
   id="path250"
   d="M436.101-308.757c-0.477,0.277-0.753,0.563-1.016,0.552c-0.2-0.01-0.582-0.478-0.532-0.6    c0.107-0.265,0.415-0.556,0.687-0.609C435.42-309.449,435.679-309.096,436.101-308.757z" />
		<path
   id="path252"
   d="M214.73-397.716c-0.451,0.29-0.737,0.608-0.916,0.558c-0.262-0.077-0.446-0.418-0.664-0.645    c0.207-0.195,0.424-0.556,0.621-0.546C214.033-398.336,214.281-398.033,214.73-397.716z" />
		<path
   id="path254"
   d="M388.675-282.559c-0.32-0.477-0.66-0.762-0.627-0.992c0.035-0.242,0.402-0.538,0.673-0.602    c0.145-0.034,0.557,0.371,0.556,0.576C389.274-283.31,388.981-283.045,388.675-282.559z" />
		<path
   id="path256"
   d="M381.474-217.894c-0.286-0.492-0.613-0.808-0.556-1.022c0.063-0.24,0.463-0.497,0.742-0.53    c0.156-0.019,0.532,0.416,0.511,0.615C382.143-218.567,381.823-218.335,381.474-217.894z" />
	</g>
</pattern>
<pattern
   overflow="visible"
   viewBox="0 -490.25 490.25 490.25"
   id="Unnamed_Pattern_8"
   patternUnits="userSpaceOnUse"
   height="490.25"
   width="490.25"
   y="-571"
   x="-1586.169">
	<g
   id="g517">
		<polygon
   id="polygon261"
   points="0,-490.25 490.25,-490.25 490.25,0 0,0   "
   fill="none" />
		<path
   id="path263"
   d="M180.657-490.25c0.304,0.519,0.681,1.01,0.886,1.565c0.152,0.41,0.223,1.246,0.085,1.303    c-0.673,0.279-1.429,0.475-2.151,0.46c-0.311-0.007-0.827-0.566-0.871-0.922c-0.098-0.786,0.046-1.602,0.091-2.405    C179.35-490.25,180.004-490.25,180.657-490.25z"
   fill="#FFFFFF" />
		<path
   id="path265"
   d="M490.25-102.707c-0.335-0.131-0.813-0.167-0.974-0.412c-0.318-0.485-0.461-1.085-0.677-1.638    c0.55-0.134,1.101-0.268,1.65-0.401C490.25-104.342,490.25-103.524,490.25-102.707z"
   fill="#FFFFFF" />
		<path
   id="path267"
   d="M0-105.403c0.848-0.12,1.334,0.227,1.283,1.103c-0.043,0.766-0.345,1.33-1.283,1.104    C0-103.933,0-104.668,0-105.403z"
   fill="#FFFFFF" />
		<path
   id="path269"
   d="M122.806-163.377c0.861,0.5,1.727,0.993,2.577,1.511c0.118,0.072,0.214,0.268,0.224,0.413    c0.068,0.964,0.178,1.932,0.141,2.893c-0.038,0.976-1.816,2.096-2.861,1.89c-1.742-0.342-2.335-1.189-2.084-2.917    c0.036-0.25-0.088-0.527-0.154-0.788c-0.144-0.568-0.597-1.338-0.381-1.655c0.347-0.51,1.125-0.736,1.742-1.042    c0.163-0.081,0.4-0.013,0.603-0.013C122.677-163.183,122.742-163.279,122.806-163.377z"
   fill="#FFFFFF" />
		<path
   id="path271"
   d="M167.349-262.934c-0.956-0.623-1.721-1.074-2.429-1.602c-0.348-0.258-0.54-0.73-0.893-0.979    c-0.873-0.615-0.873-1.548-0.346-2.115c0.387-0.416,1.371-0.461,2.048-0.367c0.626,0.088,1.36,0.443,1.754,0.922    c0.669,0.81,1.22,1.773,1.553,2.764C169.109-264.094,168.063-263.5,167.349-262.934z"
   fill="#FFFFFF" />
		<path
   id="path273"
   d="M410.513-22.612c1.121-0.018,2.189,0.022,2.251,1.564c0.007,0.172,0.281,0.372,0.474,0.492    c0.997,0.623,1.104,1.115,0.436,2.149c-0.414,0.639-1.569,0.878-2.161,0.328c-0.915-0.851-1.772-1.773-2.577-2.729    c-0.272-0.323-0.544-0.974-0.396-1.239c0.179-0.319,0.797-0.416,1.242-0.553C410.006-22.669,410.268-22.612,410.513-22.612z"
   fill="#FFFFFF" />
		<path
   id="path275"
   d="M27.67-87.161c0.292-0.686,0.409-1.738,0.914-1.979c1.074-0.514,1.621,0.482,2.099,1.323    c0.135,0.239,0.392,0.407,0.583,0.616c0.494,0.542,0.549,1.066-0.07,1.563c-0.185,0.149-0.413,0.284-0.519,0.481    c-0.264,0.488-0.196,1.402-1.123,1.037c-0.848-0.334-1.797-0.705-1.631-1.955c0.042-0.319,0.006-0.649,0.006-0.976    C27.842-87.088,27.756-87.125,27.67-87.161z"
   fill="#FFFFFF" />
		<path
   id="path277"
   d="M104.574-192.588c1.414-0.172,2.057,0.931,2.737,1.685c0.734,0.816,0.03,2.153-1.077,2.211    c-1.149,0.06-2.501,0.36-2.563-1.495c-0.002-0.075-0.042-0.171-0.098-0.219c-0.496-0.436-1.15-0.938-0.598-1.599    C103.29-192.382,104.027-192.405,104.574-192.588z"
   fill="#FFFFFF" />
		<path
   id="path279"
   d="M423.967-244.215c1.028-0.854,2.244-0.602,2.81,0.684c0.504,1.146-0.786,1.342-1.208,1.991    c-0.112,0.174-0.918,0.158-1.143-0.052c-0.697-0.651-1.293-1.421-1.867-2.189c-0.113-0.15,0.042-0.501,0.074-0.76    C423.03-244.443,423.428-244.347,423.967-244.215z"
   fill="#FFFFFF" />
		<path
   id="path281"
   d="M276.11-331.125c-0.345,0.37-0.82,1.166-1.521,1.549c-0.677,0.369-0.959-0.373-0.998-0.968    c-0.051-0.759,0.079-1.534-0.807-1.979c-0.155-0.078-0.224-0.662-0.099-0.875c0.15-0.259,0.535-0.486,0.845-0.525    C274.495-334.043,276.075-332.563,276.11-331.125z"
   fill="#FFFFFF" />
		<path
   id="path283"
   d="M40.781-440.727c1.05,0.757,1.999,1.38,2.854,2.112c0.152,0.13-0.025,1.015-0.158,1.043    c-0.597,0.128-1.258,0.185-1.848,0.052c-0.623-0.141-1.242-0.456-1.766-0.831c-0.33-0.235-0.759-0.923-0.662-1.057    C39.54-439.871,40.088-440.181,40.781-440.727z"
   fill="#FFFFFF" />
		<path
   id="path285"
   d="M80.258-430.222c0.479,0.422,1.311,0.804,1.363,1.273c0.111,0.993-0.943,1.761-1.913,1.732    c-1.048-0.03-1.298-0.671-1.266-1.55C78.482-429.81,79.163-430.023,80.258-430.222z"
   fill="#FFFFFF" />
		<path
   id="path287"
   d="M211.65-380.598c0.994-0.689,2.104-1.123,3.329-0.756c0.306,0.092,0.573,0.813,0.57,1.244    c-0.001,0.254-0.613,0.76-0.871,0.713c-1.018-0.184-2.007-0.542-3.006-0.836C211.665-380.353,211.658-380.476,211.65-380.598z"
   fill="#FFFFFF" />
		<path
   id="path289"
   d="M262.654-238.313c0.579,0.546,1.329,1.16,1.284,1.224c-0.456,0.658-1.041,1.227-1.59,1.819    c-0.485-0.58-0.971-1.16-1.456-1.74C261.409-237.393,261.927-237.775,262.654-238.313z"
   fill="#FFFFFF" />
		<path
   id="path291"
   d="M115.78-108.964c0.603,0.625,1.187,0.958,1.296,1.406c0.177,0.731-0.752,1.758-1.382,1.722    c-1.031-0.06-1.316-0.895-1.239-1.642C114.502-107.929,115.171-108.314,115.78-108.964z"
   fill="#FFFFFF" />
		<path
   id="path293"
   d="M6.304-485.897c0.179-0.39,0.313-1.103,0.744-1.464c0.248-0.209,1.069,0.015,1.461,0.289    c0.569,0.397,1.306,0.941,0.808,1.789c-0.145,0.245-0.839,0.326-1.223,0.234C7.53-485.185,7.02-485.543,6.304-485.897z"
   fill="#FFFFFF" />
		<path
   id="path295"
   d="M253.243-241.965c0.325,0,0.713-0.111,0.962,0.027c0.335,0.186,0.778,0.567,0.775,0.862    c-0.002,0.296-0.448,0.752-0.781,0.844c-0.531,0.146-1.159,0.16-1.691,0.022c-0.417-0.109-0.994-0.477-1.076-0.827    c-0.169-0.727,0.434-0.945,1.078-0.95c0.244-0.001,0.489,0,0.733,0C253.243-241.979,253.243-241.973,253.243-241.965z"
   fill="#FFFFFF" />
		<path
   id="path297"
   d="M246.364-348.585c-0.35,0.389-0.638,1.006-1.061,1.117c-0.825,0.218-1.079-0.485-1.173-1.175    c-0.038-0.277-0.121-0.617-0.005-0.832c0.263-0.486,0.636-0.912,0.965-1.363c0.316,0.438,0.659,0.859,0.933,1.321    c0.112,0.191,0.074,0.472,0.104,0.713C246.206-348.73,246.285-348.658,246.364-348.585z"
   fill="#FFFFFF" />
		<path
   id="path299"
   d="M49.401-431.242c0.036,0.713-2.193,2.207-2.75,1.919c-0.201-0.104-0.511-0.432-0.486-0.469    c0.475-0.718,0.903-1.513,1.544-2.05c0.26-0.217,1.009,0.127,1.523,0.262C49.331-431.555,49.371-431.309,49.401-431.242z"
   fill="#FFFFFF" />
		<path
   id="path301"
   d="M49.857-426.449c-0.143,1.076-0.214,1.818-0.365,2.546c-0.031,0.148-0.381,0.346-0.551,0.317    c-0.162-0.026-0.32-0.299-0.411-0.496c-0.212-0.463-0.423-0.933-0.56-1.42c-0.134-0.476-0.314-1.017-0.198-1.455    c0.058-0.218,0.816-0.471,1.115-0.352C49.338-427.128,49.663-426.635,49.857-426.449z"
   fill="#FFFFFF" />
		<path
   id="path303"
   d="M164.088-260.299c-0.166,0.142-0.744,0.74-0.824,0.68c-0.667-0.505-1.242-1.131-1.846-1.72    c0.405-0.291,0.791-0.79,1.219-0.829C163.625-262.259,164.117-261.652,164.088-260.299z"
   fill="#FFFFFF" />
		<path
   id="path305"
   d="M136.045-395.851c-1.228-0.041-1.991-0.792-1.88-1.681c0.042-0.336,0.457-0.625,0.702-0.936    c0.643,0.585,1.303,1.154,1.886,1.793C136.788-396.635,136.202-396.029,136.045-395.851z"
   fill="#FFFFFF" />
		<path
   id="path307"
   d="M285.331-195.644c0.747,0.662,1.444,1.218,2.041,1.865c0.107,0.117-0.114,0.795-0.327,0.889    c-0.292,0.129-0.766,0.035-1.08-0.124c-0.401-0.204-0.746-0.544-1.068-0.872c-0.23-0.235-0.585-0.609-0.523-0.81    C284.469-195.005,284.873-195.218,285.331-195.644z"
   fill="#FFFFFF" />
		<path
   id="path309"
   d="M18.756-483.176c-0.089,2.184-0.916,2.897-2.259,2.279c-0.645-0.297-0.947-0.881-0.314-1.297    C16.9-482.664,17.815-482.834,18.756-483.176z"
   fill="#FFFFFF" />
		<path
   id="path311"
   d="M408.542-14.519c-1.066-0.225-1.647-0.606-1.508-1.46c0.071-0.438,0.564-0.808,0.865-1.209    c0.576,0.508,1.152,1.015,1.729,1.523C409.266-15.283,408.903-14.901,408.542-14.519z"
   fill="#FFFFFF" />
		<path
   id="path313"
   d="M397.072-210.63c0.172,0.177,0.645,0.459,0.787,0.859c0.192,0.538-1.045,1.581-1.887,1.565    c-0.271-0.006-0.722-0.385-0.768-0.649C395.081-209.564,396.052-210.589,397.072-210.63z"
   fill="#FFFFFF" />
		<path
   id="path315"
   d="M115.831-226.777c0.473,0.56,1.009,1.079,1.389,1.695c0.176,0.285,0.144,0.799,0.009,1.129    c-0.057,0.142-0.757,0.231-0.919,0.08c-0.459-0.425-0.899-0.942-1.132-1.512c-0.146-0.356,0.093-0.871,0.159-1.315    C115.5-226.726,115.665-226.752,115.831-226.777z"
   fill="#FFFFFF" />
		<path
   id="path317"
   d="M459.269-133.65c-0.728-0.6-1.238-1.021-1.749-1.442c0.36-0.315,0.722-0.891,1.082-0.891    c0.654,0.001,1.62-0.018,1.622,1.009C460.224-134.614,459.724-134.254,459.269-133.65z"
   fill="#FFFFFF" />
		<path
   id="path319"
   d="M117.318-285.939c0.567,0.629,1.165,0.988,1.207,1.403c0.089,0.881-0.683,0.93-1.358,0.928    c-0.676-0.002-1.334-0.213-1.167-0.988C116.092-285.021,116.698-285.336,117.318-285.939z"
   fill="#FFFFFF" />
		<path
   id="path321"
   d="M203.846-377.535c0.709,0.83,1.205,1.35,1.582,1.945c0.039,0.063-0.863,0.88-0.934,0.826    c-0.526-0.398-1.018-0.888-1.369-1.445C203.029-376.361,203.453-376.84,203.846-377.535z"
   fill="#FFFFFF" />
		<path
   id="path323"
   d="M385.129-331.648c-0.707,0.618-1.103,0.965-1.501,1.311c-0.313-0.435-0.845-0.857-0.871-1.31    c-0.023-0.381,0.542-0.797,0.847-1.197C384.009-332.525,384.414-332.208,385.129-331.648z"
   fill="#FFFFFF" />
		<path
   id="path325"
   d="M383.805-301.449c-0.46-0.57-0.746-0.926-1.032-1.281c0.385-0.309,0.782-0.875,1.152-0.857    c0.408,0.019,0.792,0.573,1.186,0.895C384.743-302.342,384.375-301.992,383.805-301.449z"
   fill="#FFFFFF" />
		<path
   id="path327"
   d="M381.859-151.628c-0.579,0.538-0.939,0.871-1.298,1.205c-0.287-0.411-0.8-0.822-0.799-1.232    c0.001-0.4,0.526-0.801,0.821-1.2C380.938-152.516,381.29-152.176,381.859-151.628z"
   fill="#FFFFFF" />
		<path
   id="path329"
   d="M287.8-309.379c-0.549,0.543-0.878,0.868-1.207,1.193c-0.289-0.406-0.778-0.799-0.807-1.224    c-0.024-0.355,0.489-0.745,0.765-1.12C286.906-310.202,287.262-309.875,287.8-309.379z"
   fill="#FFFFFF" />
		<path
   id="path331"
   d="M362.642-352.016c-0.573,0.494-0.929,0.801-1.285,1.108c-0.289-0.46-0.697-0.895-0.809-1.396    c-0.045-0.198,0.621-0.811,0.869-0.761C361.803-352.986,362.107-352.504,362.642-352.016z"
   fill="#FFFFFF" />
		<path
   id="path333"
   d="M73.533-99.747c-0.55,0.45-0.946,1.006-1.239,0.955c-0.355-0.062-0.901-0.669-0.861-0.974    c0.056-0.431,0.574-0.801,0.895-1.196C72.661-100.627,72.994-100.291,73.533-99.747z"
   fill="#FFFFFF" />
		<path
   id="path335"
   d="M361.338-469.227c-0.579-0.58-0.933-0.935-1.286-1.289c0.36-0.304,0.747-0.872,1.076-0.841    c0.398,0.038,0.848,0.531,1.067,0.939C362.276-470.268,361.765-469.799,361.338-469.227z"
   fill="#FFFFFF" />
		<path
   id="path337"
   d="M123.262-190.374c-0.48-0.516-0.794-0.853-1.108-1.189c0.383-0.273,0.769-0.764,1.147-0.759    c0.383,0.005,0.759,0.502,1.138,0.783C124.108-191.211,123.777-190.883,123.262-190.374z"
   fill="#FFFFFF" />
		<path
   id="path339"
   d="M222.621-414.696c-0.482-0.564-0.785-0.92-1.088-1.275c0.413-0.288,0.813-0.768,1.244-0.799    c0.3-0.021,0.9,0.577,0.897,0.894C223.672-415.541,223.112-415.211,222.621-414.696z"
   fill="#FFFFFF" />
		<path
   id="path341"
   d="M177.556-392.487c-0.41-0.565-0.661-0.911-0.911-1.257c0.418-0.277,0.836-0.766,1.256-0.769    c0.348-0.002,0.699,0.567,1.049,0.884C178.555-393.306,178.159-392.982,177.556-392.487z"
   fill="#FFFFFF" />
		<path
   id="path343"
   d="M111.823-124.538c-0.457-0.624-0.928-0.988-0.924-1.348c0.003-0.287,0.611-0.82,0.902-0.789    c0.401,0.043,0.756,0.515,1.13,0.803C112.636-125.517,112.34-125.16,111.823-124.538z"
   fill="#FFFFFF" />
		<path
   id="path345"
   d="M226.35-323.859c-0.482,0.58-0.965,1.161-1.447,1.741c-0.274-0.235-0.775-0.46-0.787-0.708    c-0.063-1.346,1.213-0.925,1.836-1.391C226.084-324.098,226.217-323.978,226.35-323.859z"
   fill="#FFFFFF" />
		<path
   id="path347"
   d="M337.273-482.493c-0.403-0.546-0.908-0.95-0.842-1.208c0.086-0.331,0.654-0.783,0.968-0.75    c0.401,0.043,0.757,0.52,1.132,0.809C338.182-483.324,337.833-483.005,337.273-482.493z"
   fill="#FFFFFF" />
		<path
   id="path349"
   d="M368.735-240.026c-0.605,0.514-0.938,1.008-1.31,1.04c-0.267,0.023-0.843-0.594-0.817-0.887    c0.031-0.374,0.472-0.871,0.846-1C367.688-240.953,368.121-240.454,368.735-240.026z"
   fill="#FFFFFF" />
		<path
   id="path351"
   d="M224.033-473.25c-0.508,0.512-0.832,0.839-1.157,1.166c-0.262-0.348-0.744-0.706-0.728-1.04    c0.02-0.386,0.479-0.75,0.746-1.124C223.211-473.97,223.528-473.691,224.033-473.25z"
   fill="#FFFFFF" />
		<path
   id="path353"
   d="M230.19-35.191c0.225,0.407,0.634,0.822,0.617,1.219c-0.015,0.33-0.53,0.638-0.825,0.956    c-0.297-0.308-0.813-0.599-0.837-0.927c-0.03-0.397,0.355-0.825,0.56-1.24C229.867-35.187,230.028-35.188,230.19-35.191z"
   fill="#FFFFFF" />
		<path
   id="path355"
   d="M481.976-294.908c-0.596,0.513-0.916,0.992-1.297,1.047c-0.262,0.037-0.607-0.518-0.915-0.808    c0.354-0.304,0.671-0.697,1.08-0.87C481.025-295.616,481.395-295.248,481.976-294.908z"
   fill="#FFFFFF" />
		<path
   id="path357"
   d="M210.063-109.647c-0.672,0.4-1.082,0.837-1.376,0.769c-0.33-0.075-0.783-0.626-0.76-0.937    c0.025-0.321,0.547-0.819,0.875-0.838C209.111-110.672,209.449-110.166,210.063-109.647z"
   fill="#FFFFFF" />
		<path
   id="path359"
   d="M255.035-405.848c-0.222-0.352-0.646-0.725-0.611-1.049c0.039-0.348,0.51-0.648,0.791-0.971    c0.301,0.308,0.792,0.585,0.847,0.932c0.051,0.32-0.364,0.716-0.573,1.078C255.337-405.853,255.186-405.851,255.035-405.848z"
   fill="#FFFFFF" />
		<path
   id="path361"
   d="M225.824-245.811c-0.447-0.666-0.908-1.057-0.854-1.352c0.062-0.336,0.584-0.811,0.906-0.811    c0.301-0.002,0.802,0.518,0.843,0.854C226.758-246.817,226.291-246.453,225.824-245.811z"
   fill="#FFFFFF" />
		<path
   id="path363"
   d="M239.98-436.855c-0.378-0.691-0.758-1.076-0.721-1.415c0.031-0.291,0.539-0.53,0.836-0.792    c0.281,0.318,0.73,0.611,0.789,0.967C240.928-437.832,240.464-437.484,239.98-436.855z"
   fill="#FFFFFF" />
		<path
   id="path365"
   d="M468.53-226.237c0.421,0.663,0.828,1.023,0.811,1.363c-0.014,0.291-0.583,0.829-0.781,0.777    c-0.355-0.094-0.776-0.51-0.858-0.863C467.642-225.216,468.086-225.589,468.53-226.237z"
   fill="#FFFFFF" />
		<path
   id="path367"
   d="M193.822-249.078c-0.634,0.368-1.001,0.755-1.295,0.706c-0.316-0.053-0.564-0.515-0.843-0.798    c0.318-0.281,0.608-0.726,0.965-0.788C192.904-250.003,193.248-249.533,193.822-249.078z"
   fill="#FFFFFF" />
		<path
   id="path369"
   d="M422.334-224.769c-0.702,0.351-1.099,0.715-1.439,0.667c-0.286-0.04-0.768-0.655-0.697-0.844    c0.127-0.343,0.578-0.726,0.934-0.77C421.398-225.747,421.727-225.272,422.334-224.769z"
   fill="#FFFFFF" />
		<path
   id="path371"
   d="M197.625-361.176c-0.351,0.223-0.707,0.623-1.049,0.611c-0.285-0.009-0.77-0.498-0.774-0.78    c-0.004-0.3,0.434-0.821,0.718-0.851c0.341-0.034,0.726,0.35,1.091,0.553C197.615-361.486,197.62-361.332,197.625-361.176z"
   fill="#FFFFFF" />
		<path
   id="path373"
   d="M146.33-155.113c-0.604,0.398-0.982,0.833-1.238,0.77c-0.355-0.087-0.618-0.549-0.92-0.85    c0.325-0.276,0.622-0.715,0.983-0.774C145.415-156.011,145.759-155.551,146.33-155.113z"
   fill="#FFFFFF" />
		<path
   id="path375"
   d="M109.698-187.323c-0.35,0.23-0.703,0.643-1.047,0.635c-0.29-0.006-0.774-0.487-0.793-0.781    c-0.018-0.283,0.427-0.807,0.715-0.843c0.341-0.042,0.733,0.326,1.102,0.517C109.683-187.639,109.69-187.48,109.698-187.323z"
   fill="#FFFFFF" />
		<path
   id="path377"
   d="M201.967-116.637c-0.682,0.375-1.092,0.778-1.344,0.696c-0.342-0.112-0.719-0.569-0.775-0.927    c-0.032-0.204,0.554-0.719,0.843-0.704C201.03-117.556,201.35-117.117,201.967-116.637z"
   fill="#FFFFFF" />
		<path
   id="path379"
   d="M247.479-113.649c-0.692,0.394-1.072,0.78-1.416,0.751c-0.285-0.024-0.789-0.615-0.73-0.82    c0.1-0.343,0.543-0.746,0.895-0.805C246.493-114.568,246.843-114.117,247.479-113.649z"
   fill="#FFFFFF" />
		<path
   id="path381"
   d="M372.832-110.747c-0.693,0.453-1.046,0.858-1.392,0.853c-0.275-0.004-0.542-0.512-0.813-0.796    c0.313-0.287,0.59-0.712,0.955-0.813C371.817-111.569,372.185-111.16,372.832-110.747z"
   fill="#FFFFFF" />
		<path
   id="path383"
   d="M36.125-104.607c-0.596,0.405-0.961,0.843-1.23,0.79c-0.357-0.069-0.638-0.523-0.952-0.812    c0.32-0.279,0.613-0.722,0.971-0.783C35.186-105.458,35.54-105.019,36.125-104.607z"
   fill="#FFFFFF" />
		<path
   id="path385"
   d="M289.611-33.606c-0.42-0.578-0.87-0.935-0.82-1.195c0.068-0.356,0.517-0.642,0.802-0.957    c0.292,0.311,0.745,0.587,0.82,0.944C290.468-34.556,290.021-34.191,289.611-33.606z"
   fill="#FFFFFF" />
		<path
   id="path387"
   d="M318.214-345.087c-0.683,0.38-1.092,0.786-1.344,0.704c-0.345-0.111-0.571-0.592-0.849-0.914    c0.303-0.26,0.613-0.733,0.906-0.723C317.268-346.006,317.591-345.566,318.214-345.087z"
   fill="#FFFFFF" />
		<path
   id="path389"
   d="M154.151-343.428c0.409,0.578,0.852,0.938,0.799,1.195c-0.075,0.355-0.521,0.634-0.81,0.945    c-0.289-0.313-0.741-0.592-0.814-0.949C153.273-342.49,153.729-342.85,154.151-343.428z"
   fill="#FFFFFF" />
		<path
   id="path391"
   d="M47.958-319.599c-0.4-0.691-0.791-1.067-0.759-1.404c0.028-0.294,0.531-0.544,0.824-0.814    c0.284,0.315,0.729,0.6,0.797,0.958C48.87-320.599,48.423-320.243,47.958-319.599z"
   fill="#FFFFFF" />
		<path
   id="path393"
   d="M114.643-222.146c0.434,0.603,0.856,0.938,0.868,1.286c0.009,0.265-0.505,0.547-0.787,0.821    c-0.285-0.321-0.681-0.605-0.811-0.98C113.847-221.213,114.252-221.569,114.643-222.146z"
   fill="#FFFFFF" />
		<path
   id="path395"
   d="M412.847-353.043c-0.376-0.615-0.801-1.017-0.725-1.258c0.109-0.342,0.588-0.567,0.908-0.843    c0.244,0.308,0.672,0.61,0.682,0.926C413.722-353.922,413.291-353.611,412.847-353.043z"
   fill="#FFFFFF" />
		<path
   id="path397"
   d="M423.049-147.77c-0.438-0.658-0.855-1.011-0.842-1.349c0.01-0.295,0.503-0.573,0.782-0.858    c0.301,0.3,0.76,0.562,0.849,0.914C423.901-148.807,423.474-148.428,423.049-147.77z"
   fill="#FFFFFF" />
		<path
   id="path399"
   d="M140.004-86.165c-0.364,0.203-0.745,0.587-1.087,0.555c-0.289-0.027-0.743-0.538-0.738-0.83    c0.004-0.287,0.481-0.78,0.771-0.796c0.343-0.018,0.707,0.38,1.063,0.597C140.009-86.481,140.007-86.323,140.004-86.165z"
   fill="#FFFFFF" />
		<path
   id="path401"
   d="M363.406-38.745c-0.344,0.238-0.688,0.657-1.032,0.656c-0.286,0-0.779-0.476-0.8-0.771    c-0.021-0.286,0.411-0.819,0.697-0.858c0.34-0.047,0.735,0.318,1.107,0.505C363.388-39.057,363.397-38.9,363.406-38.745z"
   fill="#FFFFFF" />
		<path
   id="path403"
   d="M481.961-304.648c-0.685,0.377-1.099,0.782-1.347,0.699c-0.345-0.117-0.567-0.6-0.842-0.926    c0.306-0.256,0.62-0.727,0.913-0.713C481.024-305.572,481.344-305.131,481.961-304.648z"
   fill="#FFFFFF" />
		<path
   id="path405"
   d="M484.62-208.487c-0.37-0.608-0.76-0.965-0.719-1.26c0.045-0.311,0.501-0.563,0.777-0.842    c0.288,0.307,0.743,0.583,0.808,0.932C485.534-209.404,485.064-209.056,484.62-208.487z"
   fill="#FFFFFF" />
		<path
   id="path407"
   d="M284.544-183.224c-0.411-0.589-0.86-0.964-0.798-1.208c0.088-0.345,0.555-0.594,0.859-0.884    c0.261,0.291,0.704,0.566,0.731,0.879C285.363-184.143,284.951-183.81,284.544-183.224z"
   fill="#FFFFFF" />
		<path
   id="path409"
   d="M246.137-432.895c0.588,0.692,1.058,1.247,1.528,1.801c-0.173,0.127-0.46,0.395-0.503,0.359    c-0.541-0.436-1.058-0.904-1.539-1.405C245.59-432.176,245.881-432.524,246.137-432.895z"
   fill="#FFFFFF" />
		<path
   id="path411"
   d="M73.499-440.874c-0.313,0.138-0.67,0.439-0.931,0.371c-0.349-0.09-0.624-0.466-0.931-0.72    c0.268-0.235,0.556-0.682,0.8-0.66c0.385,0.035,0.74,0.387,1.108,0.603C73.531-441.145,73.515-441.009,73.499-440.874z"
   fill="#FFFFFF" />
		<path
   id="path413"
   d="M345.292-253.451c0.366,0.642,0.755,1.018,0.697,1.305c-0.063,0.305-0.56,0.742-0.841,0.723    c-0.278-0.019-0.712-0.522-0.729-0.833C344.403-252.549,344.84-252.867,345.292-253.451z"
   fill="#FFFFFF" />
		<path
   id="path415"
   d="M83.476-417.195c0.374,0.611,0.801,1.016,0.722,1.25c-0.114,0.34-0.592,0.558-0.915,0.828    c-0.243-0.307-0.668-0.608-0.676-0.922C82.598-416.332,83.031-416.637,83.476-417.195z"
   fill="#FFFFFF" />
		<path
   id="path417"
   d="M476.855-279.386c-0.67,0.374-1.061,0.767-1.329,0.697c-0.303-0.079-0.642-0.561-0.68-0.899    c-0.023-0.205,0.503-0.67,0.768-0.658C475.934-280.233,476.237-279.84,476.855-279.386z"
   fill="#FFFFFF" />
		<path
   id="path419"
   d="M214.052-387.592c-0.642,0.383-1.008,0.777-1.295,0.727c-0.309-0.057-0.763-0.542-0.747-0.818    c0.016-0.284,0.502-0.728,0.815-0.757C213.115-388.467,213.445-388.036,214.052-387.592z"
   fill="#FFFFFF" />
		<path
   id="path421"
   d="M53.062-14.393c-0.406-0.654-0.81-1.019-0.759-1.3c0.055-0.303,0.511-0.675,0.842-0.733    c0.199-0.035,0.689,0.468,0.695,0.735C53.847-15.369,53.476-15.041,53.062-14.393z"
   fill="#FFFFFF" />
		<path
   id="path423"
   d="M293.905-164.266c-0.65,0.411-1.012,0.817-1.292,0.768c-0.304-0.054-0.676-0.506-0.738-0.837    c-0.036-0.196,0.462-0.688,0.73-0.695C292.925-165.04,293.255-164.673,293.905-164.266z"
   fill="#FFFFFF" />
		<path
   id="path425"
   d="M41.653-455.156c-0.128-0.375-0.409-0.782-0.342-1.119c0.063-0.322,0.486-0.789,0.758-0.794    c0.297-0.005,0.602,0.448,0.904,0.7c-0.23,0.275-0.461,0.551-0.692,0.825C42.072-455.414,41.862-455.285,41.653-455.156z"
   fill="#FFFFFF" />
		<path
   id="path427"
   d="M412.003-370.411c-0.512,0.339-0.832,0.716-1.103,0.683c-0.286-0.033-0.524-0.459-0.783-0.715    c0.284-0.268,0.537-0.686,0.863-0.754C411.201-371.244,411.525-370.799,412.003-370.411z"
   fill="#FFFFFF" />
		<path
   id="path429"
   d="M438.341-4.482c-0.572,0.337-0.91,0.692-1.223,0.671c-0.259-0.018-0.487-0.479-0.729-0.743    c0.285-0.261,0.544-0.671,0.867-0.731C437.486-5.329,437.805-4.901,438.341-4.482z"
   fill="#FFFFFF" />
		<path
   id="path431"
   d="M365.484-261.327c-0.477,0.366-0.805,0.794-1.024,0.745c-0.319-0.072-0.559-0.488-0.834-0.759    c0.262-0.244,0.508-0.657,0.789-0.683C364.685-262.049,364.991-261.67,365.484-261.327z"
   fill="#FFFFFF" />
		<path
   id="path433"
   d="M243.049-467.685c-0.235-0.488-0.483-0.854-0.427-0.909c0.475-0.466,1.003-0.878,1.532-1.282    c0.017-0.013,0.362,0.336,0.344,0.361C244.086-468.958,243.645-468.422,243.049-467.685z"
   fill="#FFFFFF" />
		<path
   id="path435"
   d="M239.13-397.704c-0.5,0.329-0.857,0.73-1.07,0.663c-0.312-0.096-0.52-0.527-0.771-0.815    c0.276-0.225,0.55-0.617,0.831-0.622C238.388-398.481,238.663-398.083,239.13-397.704z"
   fill="#FFFFFF" />
		<path
   id="path437"
   d="M43.038-423.131c0.32,0.549,0.68,0.891,0.631,1.157c-0.05,0.278-0.496,0.483-0.77,0.721    c-0.235-0.275-0.644-0.544-0.654-0.827C42.236-422.352,42.642-422.637,43.038-423.131z"
   fill="#FFFFFF" />
		<path
   id="path439"
   d="M127.791-355.935c-0.41,0.35-0.684,0.582-0.957,0.814c-0.218-0.336-0.58-0.662-0.603-1.011    c-0.016-0.226,0.462-0.486,0.718-0.731C127.19-356.597,127.432-356.33,127.791-355.935z"
   fill="#FFFFFF" />
		<path
   id="path441"
   d="M51.005-88.38c-0.336-0.52-0.705-0.84-0.667-1.1c0.04-0.274,0.47-0.491,0.73-0.732    c0.241,0.26,0.652,0.507,0.674,0.785C51.764-89.166,51.374-88.872,51.005-88.38z"
   fill="#FFFFFF" />
		<path
   id="path443"
   d="M322.919-466.225c0.338,0.605,0.645,0.904,0.613,1.162c-0.04,0.326-0.357,0.617-0.555,0.924    c-0.209-0.252-0.569-0.493-0.588-0.76C322.366-465.217,322.634-465.557,322.919-466.225z"
   fill="#FFFFFF" />
		<path
   id="path445"
   d="M409.947-276.387c-0.379-0.512-0.733-0.783-0.751-1.076c-0.015-0.235,0.414-0.721,0.583-0.695    c0.307,0.049,0.736,0.357,0.796,0.628C410.63-277.279,410.27-276.935,409.947-276.387z"
   fill="#FFFFFF" />
		<path
   id="path447"
   d="M78.396-218.671c-0.371-0.541-0.748-0.85-0.721-1.116c0.028-0.276,0.449-0.513,0.699-0.767    c0.231,0.231,0.638,0.455,0.648,0.695C79.033-219.558,78.718-219.244,78.396-218.671z"
   fill="#FFFFFF" />
		<path
   id="path449"
   d="M80.338-204.679c0.339,0.442,0.732,0.749,0.683,0.941c-0.076,0.297-0.456,0.516-0.707,0.767    c-0.219-0.241-0.59-0.47-0.614-0.73C79.679-203.945,80.022-204.223,80.338-204.679z"
   fill="#FFFFFF" />
		<path
   id="path451"
   d="M238.084-442.253c0.316,0.501,0.648,0.8,0.641,1.09c-0.006,0.226-0.512,0.66-0.664,0.609    c-0.293-0.099-0.627-0.446-0.688-0.743C237.331-441.501,237.723-441.793,238.084-442.253z"
   fill="#FFFFFF" />
		<path
   id="path453"
   d="M370.484-327.032c-0.465,0.362-0.761,0.756-0.965,0.713c-0.299-0.063-0.642-0.401-0.744-0.698    c-0.05-0.147,0.392-0.654,0.617-0.658C369.685-327.682,369.984-327.349,370.484-327.032z"
   fill="#FFFFFF" />
		<path
   id="path455"
   d="M90.469-236.551c0.365-0.371,0.73-0.741,1.096-1.112c0.178,0.187,0.524,0.521,0.51,0.539    c-0.341,0.387-0.722,0.74-1.095,1.099C90.809-236.2,90.639-236.376,90.469-236.551z"
   fill="#FFFFFF" />
		<path
   id="path457"
   d="M221.221-486.795c-0.341-0.314-0.682-0.63-1.023-0.945c0.233-0.217,0.466-0.433,0.699-0.649    c0.291,0.371,0.582,0.741,0.873,1.112C221.586-487.116,221.404-486.955,221.221-486.795z"
   fill="#FFFFFF" />
		<path
   id="path459"
   d="M436.136-154.184c-0.404,0.341-0.684,0.745-0.887,0.709c-0.299-0.052-0.543-0.418-0.811-0.65    c0.252-0.25,0.471-0.631,0.766-0.703C435.404-154.878,435.711-154.495,436.136-154.184z"
   fill="#FFFFFF" />
		<path
   id="path461"
   d="M235.1-215.726c-0.584,0.311-0.908,0.622-1.197,0.593c-0.227-0.022-0.582-0.478-0.566-0.72    c0.014-0.236,0.436-0.635,0.662-0.624C234.29-216.464,234.566-216.113,235.1-215.726z"
   fill="#FFFFFF" />
		<path
   id="path463"
   d="M325.541-183.378c-0.61,0.241-0.938,0.493-1.211,0.443c-0.257-0.047-0.456-0.411-0.682-0.635    c0.295-0.152,0.585-0.408,0.887-0.424C324.769-184.005,325.018-183.715,325.541-183.378z"
   fill="#FFFFFF" />
		<path
   id="path465"
   d="M160.244-305.761c0.316,0.459,0.659,0.739,0.636,0.983c-0.024,0.26-0.398,0.485-0.618,0.727    c-0.25-0.253-0.629-0.474-0.703-0.77C159.511-305.015,159.904-305.318,160.244-305.761z"
   fill="#FFFFFF" />
		<path
   id="path467"
   d="M244.109-475.578c-0.457,0.322-0.775,0.703-0.969,0.647c-0.293-0.084-0.499-0.473-0.742-0.733    c0.251-0.211,0.493-0.573,0.755-0.588C243.398-476.268,243.664-475.912,244.109-475.578z"
   fill="#FFFFFF" />
		<path
   id="path469"
   d="M61.142-19.691c0.332,0.437,0.691,0.702,0.679,0.949c-0.012,0.26-0.379,0.503-0.592,0.753    c-0.261-0.243-0.651-0.448-0.736-0.741C60.438-18.924,60.823-19.244,61.142-19.691z"
   fill="#FFFFFF" />
		<path
   id="path471"
   d="M231.904-481.65c0.365,0.43,0.775,0.715,0.736,0.91c-0.059,0.299-0.43,0.537-0.668,0.801    c-0.232-0.229-0.617-0.438-0.654-0.693C231.283-480.879,231.611-481.176,231.904-481.65z"
   fill="#FFFFFF" />
		<path
   id="path473"
   d="M37.885-26.853c-0.42,0.358-0.709,0.772-0.905,0.732c-0.299-0.062-0.534-0.437-0.795-0.679    c0.231-0.233,0.441-0.623,0.699-0.657C37.129-27.487,37.423-27.149,37.885-26.853z"
   fill="#FFFFFF" />
		<path
   id="path475"
   d="M444.33-189.509c0.287,0.466,0.648,0.807,0.581,0.998c-0.101,0.286-0.501,0.467-0.774,0.692    c-0.196-0.262-0.549-0.525-0.546-0.785C443.595-188.85,443.969-189.091,444.33-189.509z"
   fill="#FFFFFF" />
		<path
   id="path477"
   d="M256.17-283.552c-0.291-0.495-0.614-0.801-0.57-1.038c0.048-0.251,0.443-0.438,0.687-0.652    c0.214,0.246,0.584,0.484,0.596,0.739C256.895-284.262,256.529-284.004,256.17-283.552z"
   fill="#FFFFFF" />
		<path
   id="path479"
   d="M219.848-75.366c-0.293-0.436-0.631-0.72-0.6-0.954c0.033-0.248,0.488-0.67,0.637-0.623    c0.294,0.091,0.629,0.422,0.701,0.714C220.629-76.055,220.205-75.765,219.848-75.366z"
   fill="#FFFFFF" />
		<path
   id="path481"
   d="M474.503-55.907c-0.365,0.234-0.656,0.523-0.758,0.467c-0.306-0.167-0.537-0.47-0.798-0.72    c0.227-0.186,0.503-0.558,0.67-0.514C473.901-56.6,474.117-56.264,474.503-55.907z"
   fill="#FFFFFF" />
		<path
   id="path483"
   d="M47.287-50.263c-0.365,0.678-0.521,1.146-0.83,1.466c-0.159,0.165-0.592,0.066-0.9,0.087    c0.062-0.277,0.032-0.673,0.205-0.808C46.118-49.796,46.582-49.935,47.287-50.263z"
   fill="#FFFFFF" />
		<path
   id="path485"
   d="M24.705-46.036c-0.286-0.452-0.614-0.74-0.581-0.979c0.035-0.253,0.413-0.458,0.641-0.684    c0.24,0.256,0.609,0.484,0.674,0.778C25.48-46.734,25.066-46.449,24.705-46.036z"
   fill="#FFFFFF" />
		<path
   id="path487"
   d="M158.174-194.658c-0.449,0.359-0.709,0.727-0.949,0.716c-0.254-0.014-0.666-0.378-0.682-0.61    c-0.015-0.228,0.355-0.635,0.608-0.681C157.388-195.275,157.691-194.948,158.174-194.658z"
   fill="#FFFFFF" />
		<path
   id="path489"
   d="M398.748-1.479c-0.498,0.308-0.768,0.603-1.036,0.599c-0.207-0.003-0.604-0.425-0.568-0.579    c0.063-0.273,0.369-0.641,0.617-0.678C397.986-2.17,398.27-1.817,398.748-1.479z"
   fill="#FFFFFF" />
		<path
   id="path491"
   d="M176.607-486.566c0.309,0.422,0.492,0.674,0.678,0.926c-0.268,0.18-0.527,0.479-0.806,0.498    c-0.193,0.014-0.604-0.392-0.577-0.551C175.947-485.958,176.268-486.175,176.607-486.566z"
   fill="#FFFFFF" />
		<path
   id="path493"
   d="M56.085-287.559c-0.5,0.313-0.802,0.648-1.028,0.604c-0.247-0.05-0.532-0.428-0.59-0.707    c-0.03-0.145,0.396-0.547,0.609-0.541C55.342-288.195,55.599-287.889,56.085-287.559z"
   fill="#FFFFFF" />
		<path
   id="path495"
   d="M25.755-336.053c-0.508,0.297-0.821,0.625-1.048,0.574c-0.245-0.056-0.517-0.447-0.566-0.729    c-0.025-0.147,0.414-0.537,0.624-0.523C25.032-336.713,25.28-336.398,25.755-336.053z"
   fill="#FFFFFF" />
		<path
   id="path497"
   d="M2.454-212.764c0.355,0.47,0.674,0.712,0.696,0.978c0.018,0.211-0.364,0.658-0.51,0.635    c-0.284-0.046-0.681-0.308-0.743-0.554C1.841-211.929,2.165-212.249,2.454-212.764z"
   fill="#FFFFFF" />
		<path
   id="path499"
   d="M484.653-212.861c-0.453,0.359-0.716,0.726-0.946,0.706c-0.247-0.021-0.574-0.373-0.65-0.642    c-0.043-0.153,0.334-0.594,0.542-0.607C483.864-213.423,484.149-213.14,484.653-212.861z"
   fill="#FFFFFF" />
		<path
   id="path501"
   d="M394.665-452.385c-0.295-0.473-0.627-0.771-0.585-1.002c0.046-0.248,0.448-0.607,0.681-0.597    c0.226,0.011,0.589,0.421,0.602,0.671C395.374-453.076,395.011-452.819,394.665-452.385z"
   fill="#FFFFFF" />
		<path
   id="path503"
   d="M294.643-75.328c-0.489,0.335-0.776,0.683-1.005,0.647c-0.249-0.04-0.549-0.407-0.616-0.684    c-0.035-0.146,0.373-0.564,0.583-0.566C293.872-75.934,294.143-75.639,294.643-75.328z"
   fill="#FFFFFF" />
		<path
   id="path505"
   d="M52.005-475.432c-0.286-0.535-0.584-0.84-0.544-1.089c0.041-0.256,0.414-0.458,0.641-0.683    c0.199,0.248,0.543,0.492,0.554,0.748C52.667-476.199,52.342-475.93,52.005-475.432z"
   fill="#FFFFFF" />
		<path
   id="path507"
   d="M456.295-342.1c0.357,0.404,0.723,0.646,0.696,0.829c-0.041,0.274-0.315,0.601-0.575,0.72    c-0.122,0.057-0.612-0.304-0.63-0.503C455.763-341.317,456.038-341.608,456.295-342.1z"
   fill="#FFFFFF" />
		<path
   id="path509"
   d="M436.101-308.757c-0.477,0.277-0.753,0.563-1.016,0.552c-0.2-0.01-0.582-0.478-0.532-0.6    c0.107-0.265,0.415-0.556,0.687-0.609C435.42-309.449,435.679-309.096,436.101-308.757z"
   fill="#FFFFFF" />
		<path
   id="path511"
   d="M214.73-397.716c-0.451,0.29-0.737,0.608-0.916,0.558c-0.262-0.077-0.446-0.418-0.664-0.645    c0.207-0.195,0.424-0.556,0.621-0.546C214.033-398.336,214.281-398.033,214.73-397.716z"
   fill="#FFFFFF" />
		<path
   id="path513"
   d="M388.675-282.559c-0.32-0.477-0.66-0.762-0.627-0.992c0.035-0.242,0.402-0.538,0.673-0.602    c0.145-0.034,0.557,0.371,0.556,0.576C389.274-283.31,388.981-283.045,388.675-282.559z"
   fill="#FFFFFF" />
		<path
   id="path515"
   d="M381.474-217.894c-0.286-0.492-0.613-0.808-0.556-1.022c0.063-0.24,0.463-0.497,0.742-0.53    c0.156-0.019,0.532,0.416,0.511,0.615C382.143-218.567,381.823-218.335,381.474-217.894z"
   fill="#FFFFFF" />
	</g>
</pattern>
<g
   id="background">
	<g
   id="g863">
		<defs
   id="defs521">
			<rect
   height="1120"
   width="1721.873"
   y="-12"
   x="-12.676"
   id="SVGID_1_" />
		</defs>
		<clipPath
   id="SVGID_2_">
			<use
   id="use523"
   overflow="visible"
   xlink:href="#SVGID_1_" />
		</clipPath>
		<radialGradient
   gradientUnits="userSpaceOnUse"
   r="771.7219"
   cy="759.7219"
   cx="613.3572"
   id="SVGID_3_">
			<stop
   id="stop526"
   style="stop-color:#FFF254"
   offset="0" />
			<stop
   id="stop528"
   style="stop-color:#FFFFFF;stop-opacity:0"
   offset="1" />
		</radialGradient>
		<circle
   id="circle531"
   r="771.722"
   cy="759.722"
   cx="613.357"
   fill="url(#SVGID_3_)"
   clip-path="url(#SVGID_2_)"
   opacity="0.6" />
		<linearGradient
   y2="718.3058"
   x2="1019.5305"
   y1="921.8233"
   x1="-525.9295"
   gradientUnits="userSpaceOnUse"
   id="SVGID_4_">
			<stop
   id="stop533"
   style="stop-color:#005A90;stop-opacity:0"
   offset="0" />
			<stop
   id="stop535"
   style="stop-color:#005B91;stop-opacity:0.0119"
   offset="0.0119" />
			<stop
   id="stop537"
   style="stop-color:#00A4D7;stop-opacity:0.6868"
   offset="0.6868" />
			<stop
   id="stop539"
   style="stop-color:#00C0F2"
   offset="1" />
		</linearGradient>
		<path
   id="path542"
   d="M1130.417,1293.867c0,0,31.271-247.831-68.795-440.029    C886.229,516.96,381.578,143.616-351.806,317.711c0,465.317,0,986.982,0,986.982L1130.417,1293.867z"
   fill="url(#SVGID_4_)"
   clip-path="url(#SVGID_2_)"
   opacity="0.46" />
		<linearGradient
   y2="1227.0405"
   x2="1418.1351"
   y1="1460.8293"
   x1="-357.1982"
   gradientUnits="userSpaceOnUse"
   id="SVGID_5_">
			<stop
   id="stop544"
   style="stop-color:#005A90;stop-opacity:0"
   offset="0" />
			<stop
   id="stop546"
   style="stop-color:#005B91;stop-opacity:0.0119"
   offset="0.0119" />
			<stop
   id="stop548"
   style="stop-color:#00A4D7;stop-opacity:0.6868"
   offset="0.6868" />
			<stop
   id="stop550"
   style="stop-color:#00C0F2"
   offset="1" />
		</linearGradient>
		<path
   id="path553"
   d="M1545.515,1888.211c0,0,35.922-284.694-79.028-505.479    C1265.006,995.746,685.293,566.871-157.175,766.86c0,534.529,0,1133.787,0,1133.787L1545.515,1888.211z"
   fill="url(#SVGID_5_)"
   clip-path="url(#SVGID_2_)" />
		<linearGradient
   y2="833.0482"
   x2="1886.6586"
   y1="833.0482"
   x1="-157.1738"
   gradientUnits="userSpaceOnUse"
   id="SVGID_6_">
			<stop
   id="stop555"
   style="stop-color:#EC008C"
   offset="0" />
			<stop
   id="stop557"
   style="stop-color:#CB148C;stop-opacity:0.7"
   offset="1" />
		</linearGradient>
		<path
   id="path560"
   d="M-157.174,279.353    c0,0,482.149,1402.235,2043.832,779.736v306.382c0,0-1121.537,21.272-1134.303,21.272c-12.766,0-909.529-212.762-909.529-212.762    V279.353z"
   fill="url(#SVGID_6_)"
   clip-path="url(#SVGID_2_)"
   opacity="0.7" />
		<linearGradient
   y2="1052.1569"
   x2="1890.1445"
   y1="1052.1569"
   x1="-160.6597"
   gradientUnits="userSpaceOnUse"
   id="SVGID_7_">
			<stop
   id="stop562"
   style="stop-color:#F07F78"
   offset="0.2829" />
			<stop
   id="stop564"
   style="stop-color:#F4A069"
   offset="0.4169" />
			<stop
   id="stop566"
   style="stop-color:#F8C359"
   offset="0.5828" />
			<stop
   id="stop568"
   style="stop-color:#FBDC4E"
   offset="0.74" />
			<stop
   id="stop570"
   style="stop-color:#FDEB47"
   offset="0.8832" />
			<stop
   id="stop572"
   style="stop-color:#FEF045"
   offset="1" />
		</linearGradient>
		<path
   id="path575"
   d="M-153.688,617.728c0,0,381.871,609.705,1246.65,659.474    c513.268,18.662,797.182-164.869,797.182-164.869v374.254H-160.66L-153.688,617.728z"
   fill="url(#SVGID_7_)"
   clip-path="url(#SVGID_2_)" />
		<linearGradient
   y2="1308.5751"
   x2="1096.3126"
   y1="947.7397"
   x1="2234.761"
   gradientUnits="userSpaceOnUse"
   id="SVGID_8_">
			<stop
   id="stop577"
   style="stop-color:#00A461;stop-opacity:0"
   offset="0.0049" />
			<stop
   id="stop579"
   style="stop-color:#6DBF43;stop-opacity:0.4834"
   offset="0.4859" />
			<stop
   id="stop581"
   style="stop-color:#B5D12F;stop-opacity:0.837"
   offset="0.8378" />
			<stop
   id="stop583"
   style="stop-color:#D2D827"
   offset="1" />
		</linearGradient>
		<path
   id="path586"
   d="M1933.714,868.677c0,0-696.253-266.754-970.092,223.437    c-116.927,215.393,18.738,371.633,18.738,371.633h944.262L1933.714,868.677z"
   fill="url(#SVGID_8_)"
   clip-path="url(#SVGID_2_)" />
		<linearGradient
   y2="1318.3989"
   x2="1129.8065"
   y1="980.6473"
   x1="2195.425"
   gradientUnits="userSpaceOnUse"
   id="SVGID_9_">
			<stop
   id="stop588"
   style="stop-color:#005A90;stop-opacity:0"
   offset="0.0049" />
			<stop
   id="stop590"
   style="stop-color:#3A9B86;stop-opacity:0.6595"
   offset="0.6612" />
			<stop
   id="stop592"
   style="stop-color:#53B782"
   offset="1" />
		</linearGradient>
		<path
   id="path595"
   d="M1911.363,899.467c0,0-648.766-256.845-903.928,215.137    c-108.952,207.392,17.461,357.828,17.461,357.828h879.86L1911.363,899.467z"
   fill="url(#SVGID_9_)"
   clip-path="url(#SVGID_2_)" />
		<linearGradient
   y2="1609.2584"
   x2="854.5488"
   y1="1169.0956"
   x1="2243.2783"
   gradientUnits="userSpaceOnUse"
   id="SVGID_10_">
			<stop
   id="stop597"
   style="stop-color:#005A90;stop-opacity:0"
   offset="0.0049" />
			<stop
   id="stop599"
   style="stop-color:#3A9B86;stop-opacity:0.6595"
   offset="0.6612" />
			<stop
   id="stop601"
   style="stop-color:#53B782"
   offset="1" />
		</linearGradient>
		<path
   id="path604"
   d="M1873.084,1063.3c0,0-845.481-334.724-1178.012,280.369    c-141.988,270.276,22.755,466.327,22.755,466.327h1146.646L1873.084,1063.3z"
   fill="url(#SVGID_10_)"
   clip-path="url(#SVGID_2_)" />
		<linearGradient
   y2="851.3678"
   x2="1963.8632"
   y1="988.3326"
   x1="-178.6264"
   gradientUnits="userSpaceOnUse"
   id="SVGID_11_">
			<stop
   id="stop606"
   style="stop-color:#EF486C"
   offset="0.0049" />
			<stop
   id="stop608"
   style="stop-color:#EF4D6A"
   offset="0.1637" />
			<stop
   id="stop610"
   style="stop-color:#F05B63"
   offset="0.3463" />
			<stop
   id="stop612"
   style="stop-color:#F17258"
   offset="0.5406" />
			<stop
   id="stop614"
   style="stop-color:#F39249"
   offset="0.7432" />
			<stop
   id="stop616"
   style="stop-color:#F4BB35"
   offset="0.9501" />
			<stop
   id="stop618"
   style="stop-color:#F5C630"
   offset="1" />
		</linearGradient>
		<path
   id="path621"
   d="M-175.714,1033.883c0,0,80.095,39.164,246.834,97.926    c637.691,224.734,885.981-68.238,1038.133-169.97c417.902-279.424,846.3-58.128,846.3-58.128l5.398-97.893    c0,0-80.094-39.165-246.833-97.927c-637.691-224.733-885.982,68.238-1038.133,169.971    c-417.902,279.424-846.301,58.127-846.301,58.127L-175.714,1033.883z"
   fill="url(#SVGID_11_)"
   clip-path="url(#SVGID_2_)" />
		<path
   id="path623"
   d="M-190.132,709.135c0,0,82.13-34.695,251.85-84.187    C710.815,435.663,942.6,741.86,1088.92,851.816c401.885,302.008,841.817,104.633,841.817,104.633v98.042    c0,0-82.13,34.697-251.85,84.19c-649.097,189.282-880.881-116.913-1027.201-226.87    C249.801,609.802-190.132,807.177-190.132,807.177V709.135z"
   fill="#EC3D53"
   clip-path="url(#SVGID_2_)" />
		<g
   id="g649"
   clip-path="url(#SVGID_2_)">
			<path
   id="path625"
   d="M-242.216,911.641c0,0,437.111-196.107,836.419,103.964     c145.38,109.25,375.679,413.483,1020.613,225.414c168.632-49.177,464.599-324.302,464.599-324.302"
   stroke-miterlimit="10"
   stroke="#FFFFFF"
   fill="none" />
			<path
   id="path627"
   d="M-243.636,898.986c0,0,458.019-216.395,857.327,83.676     c145.381,109.251,375.679,413.483,1020.613,225.414c168.632-49.177,445.111-302.424,445.111-302.424"
   stroke-miterlimit="10"
   stroke="#FFFFFF"
   fill="none" />
			<path
   id="path629"
   d="M-245.056,886.33c0,0,478.927-236.682,878.234,63.389     c145.381,109.25,375.679,413.483,1020.613,225.414c168.633-49.176,425.624-280.546,425.624-280.546"
   stroke-miterlimit="10"
   stroke="#FFFFFF"
   fill="none" />
			<path
   id="path631"
   d="M-246.476,873.675c0,0,499.834-256.97,899.142,43.101     c145.381,109.25,375.679,413.483,1020.613,225.414c168.633-49.176,406.136-258.668,406.136-258.668"
   stroke-miterlimit="10"
   stroke="#FFFFFF"
   fill="none" />
			<path
   id="path633"
   d="M-247.896,861.02c0,0,520.742-277.257,920.049,22.814     c145.381,109.251,375.679,413.483,1020.613,225.414c168.633-49.176,386.648-236.791,386.648-236.791"
   stroke-miterlimit="10"
   stroke="#FFFFFF"
   fill="none" />
			<path
   id="path635"
   d="M-249.316,848.364c0,0,541.65-297.545,940.957,2.526     c145.381,109.25,375.679,413.483,1020.613,225.413c168.633-49.176,367.161-214.913,367.161-214.913"
   stroke-miterlimit="10"
   stroke="#FFFFFF"
   fill="none" />
			<path
   id="path637"
   d="M-250.736,835.709c0,0,562.557-317.832,961.865-17.761     c145.381,109.25,375.679,413.483,1020.613,225.413c168.633-49.175,347.673-193.035,347.673-193.035"
   stroke-miterlimit="10"
   stroke="#FFFFFF"
   fill="none" />
			<path
   id="path639"
   d="M-252.155,823.053c0,0,583.465-338.12,982.772-38.049     c145.381,109.25,375.679,413.483,1020.613,225.413c168.633-49.175,328.185-171.157,328.185-171.157"
   stroke-miterlimit="10"
   stroke="#FFFFFF"
   fill="none" />
			<path
   id="path641"
   d="M-253.575,810.398c0,0,604.373-358.408,1003.68-58.337     c145.381,109.251,375.679,413.483,1020.613,225.413c168.633-49.175,308.698-149.28,308.698-149.28"
   stroke-miterlimit="10"
   stroke="#FFFFFF"
   fill="none" />
			<path
   id="path643"
   d="M-254.995,797.743c0,0,625.28-378.695,1024.587-78.624     c145.381,109.25,375.679,413.483,1020.613,225.412c168.633-49.175,289.21-127.402,289.21-127.402"
   stroke-miterlimit="10"
   stroke="#FFFFFF"
   fill="none" />
			<path
   id="path645"
   d="M-256.415,785.087c0,0,646.188-398.983,1045.495-98.912     c145.382,109.25,375.679,413.483,1020.613,225.412c168.633-49.174,269.723-105.524,269.723-105.524"
   stroke-miterlimit="10"
   stroke="#FFFFFF"
   fill="none" />
			<path
   id="path647"
   d="M-257.835,772.432c0,0,667.096-419.27,1066.403-119.199     c145.382,109.25,375.679,413.483,1020.613,225.412c168.633-49.174,250.235-83.646,250.235-83.646"
   stroke-miterlimit="10"
   stroke="#FFFFFF"
   fill="none" />
		</g>
		<g
   id="g861"
   clip-path="url(#SVGID_2_)"
   opacity="0.35">
			
				<radialGradient
   gradientUnits="userSpaceOnUse"
   gradientTransform="matrix(0.998 -0.0638 0.0638 0.998 8.1823 124.2892)"
   r="124.4087"
   cy="830.7643"
   cx="1145.4492"
   id="SVGID_12_">
				<stop
   id="stop651"
   style="stop-color:#FFFF9A;stop-opacity:0.9561"
   offset="0.7415" />
				<stop
   id="stop653"
   style="stop-color:#FFFF9A;stop-opacity:0"
   offset="0.9512" />
			</radialGradient>
			<path
   id="path656"
   d="M1318.395,929.96c-27.423,62.982-100.719,91.827-163.704,64.399     c-62.985-27.415-91.819-100.704-64.392-163.696c27.411-62.977,100.703-91.822,163.697-64.403     C1316.982,793.683,1345.809,866.973,1318.395,929.96z"
   fill="url(#SVGID_12_)"
   opacity="0.6" />
			
				<radialGradient
   gradientUnits="userSpaceOnUse"
   gradientTransform="matrix(0.998 -0.0638 0.0638 0.998 8.1823 124.2892)"
   r="124.4086"
   cy="932.1993"
   cx="1045.4056"
   id="SVGID_13_">
				<stop
   id="stop658"
   style="stop-color:#FFFF28;stop-opacity:0.9561"
   offset="0.7415" />
				<stop
   id="stop660"
   style="stop-color:#FFFF9A;stop-opacity:0"
   offset="0.9512" />
			</radialGradient>
			<path
   id="path663"
   d="M1225.021,1037.575c-27.422,62.982-100.719,91.827-163.702,64.399     c-62.985-27.413-91.82-100.704-64.393-163.696c27.411-62.977,100.703-91.821,163.696-64.402     C1223.611,901.298,1252.438,974.589,1225.021,1037.575z"
   fill="url(#SVGID_13_)"
   opacity="0.6" />
			
				<radialGradient
   gradientUnits="userSpaceOnUse"
   gradientTransform="matrix(0.998 -0.0638 0.0638 0.998 8.1823 124.2892)"
   r="124.4085"
   cy="787.783"
   cx="879.9569"
   id="SVGID_14_">
				<stop
   id="stop665"
   style="stop-color:#FFFF9A;stop-opacity:0.9561"
   offset="0.7415" />
				<stop
   id="stop667"
   style="stop-color:#FFFF9A;stop-opacity:0"
   offset="0.9512" />
			</radialGradient>
			<path
   id="path670"
   d="M1050.69,904.002c-27.421,62.982-100.719,91.829-163.703,64.399     c-62.983-27.413-91.819-100.704-64.391-163.695c27.411-62.979,100.702-91.823,163.696-64.402     C1049.279,767.728,1078.106,841.016,1050.69,904.002z"
   fill="url(#SVGID_14_)"
   opacity="0.3" />
			
				<radialGradient
   gradientUnits="userSpaceOnUse"
   gradientTransform="matrix(0.998 -0.0638 0.0638 0.998 8.1823 124.2892)"
   r="124.4089"
   cy="1040.0729"
   cx="552.7533"
   id="SVGID_15_">
				<stop
   id="stop672"
   style="stop-color:#FFFF9A;stop-opacity:0.9561"
   offset="0.8927" />
				<stop
   id="stop674"
   style="stop-color:#FFFF9A;stop-opacity:0"
   offset="0.9512" />
			</radialGradient>
			<path
   id="path677"
   d="M740.239,1176.663c-27.424,62.984-100.721,91.827-163.706,64.4     c-62.983-27.416-91.818-100.703-64.39-163.696c27.411-62.978,100.702-91.823,163.696-64.403     C738.825,1040.388,767.653,1113.678,740.239,1176.663z"
   fill="url(#SVGID_15_)"
   opacity="0.6" />
			
				<radialGradient
   gradientUnits="userSpaceOnUse"
   gradientTransform="matrix(0.998 -0.0638 0.0638 0.998 8.1823 124.2892)"
   r="124.4086"
   cy="917.614"
   cx="452.9016"
   id="SVGID_16_">
				<stop
   id="stop679"
   style="stop-color:#FFFF9A;stop-opacity:0.9561"
   offset="0.7415" />
				<stop
   id="stop681"
   style="stop-color:#FFFF9A;stop-opacity:0"
   offset="0.9512" />
			</radialGradient>
			<path
   id="path684"
   d="M632.773,1060.821c-27.423,62.98-100.72,91.827-163.706,64.397     c-62.983-27.413-91.818-100.704-64.39-163.696c27.411-62.976,100.702-91.821,163.696-64.401     C631.361,924.542,660.188,997.833,632.773,1060.821z"
   fill="url(#SVGID_16_)"
   opacity="0.3" />
			
				<radialGradient
   gradientUnits="userSpaceOnUse"
   gradientTransform="matrix(0.998 -0.0638 0.0638 0.998 8.1823 124.2892)"
   r="124.4087"
   cy="994.2003"
   cx="170.431"
   id="SVGID_17_">
				<stop
   id="stop686"
   style="stop-color:#FFFF9A;stop-opacity:0.9561"
   offset="0.8537" />
				<stop
   id="stop688"
   style="stop-color:#FFFF9A;stop-opacity:0"
   offset="0.9512" />
			</radialGradient>
			<path
   id="path691"
   d="M355.753,1155.276c-27.425,62.982-100.719,91.826-163.705,64.397     c-62.983-27.413-91.818-100.704-64.391-163.695c27.412-62.977,100.702-91.822,163.695-64.401     C354.34,1019,383.169,1092.288,355.753,1155.276z"
   fill="url(#SVGID_17_)"
   opacity="0.6" />
			
				<radialGradient
   gradientUnits="userSpaceOnUse"
   gradientTransform="matrix(0.998 -0.0638 0.0638 0.998 8.1823 124.2892)"
   r="124.4085"
   cy="748.4999"
   cx="411.069"
   id="SVGID_18_">
				<stop
   id="stop693"
   style="stop-color:#FFFF28;stop-opacity:0.9561"
   offset="0.7415" />
				<stop
   id="stop695"
   style="stop-color:#FFFF9A;stop-opacity:0"
   offset="0.9512" />
			</radialGradient>
			<path
   id="path698"
   d="M580.233,894.714c-27.422,62.982-100.717,91.826-163.703,64.398     c-62.984-27.414-91.819-100.705-64.392-163.696c27.412-62.978,100.704-91.822,163.696-64.401     C578.823,758.437,607.65,831.726,580.233,894.714z"
   fill="url(#SVGID_18_)"
   opacity="0.6" />
			
				<radialGradient
   gradientUnits="userSpaceOnUse"
   gradientTransform="matrix(0.998 -0.0638 0.0638 0.998 8.1823 124.2892)"
   r="124.4086"
   cy="876.8915"
   cx="29.5711"
   id="SVGID_19_">
				<stop
   id="stop700"
   style="stop-color:#FFFF9A;stop-opacity:0.9561"
   offset="0.7415" />
				<stop
   id="stop702"
   style="stop-color:#FFFF9A;stop-opacity:0"
   offset="0.9512" />
			</radialGradient>
			<path
   id="path705"
   d="M207.69,1047.187c-27.422,62.983-100.718,91.828-163.703,64.399     c-62.985-27.415-91.819-100.704-64.392-163.696c27.409-62.977,100.701-91.822,163.696-64.402     C206.279,910.911,235.106,984.2,207.69,1047.187z"
   fill="url(#SVGID_19_)"
   opacity="0.2" />
			
				<radialGradient
   gradientUnits="userSpaceOnUse"
   gradientTransform="matrix(0.998 -0.0638 0.0638 0.998 8.1823 124.2892)"
   r="124.4083"
   cy="645.5923"
   cx="104.1796"
   id="SVGID_20_">
				<stop
   id="stop707"
   style="stop-color:#FFFF9A;stop-opacity:0.9561"
   offset="0.878" />
				<stop
   id="stop709"
   style="stop-color:#FFFF9A;stop-opacity:0"
   offset="0.9512" />
			</radialGradient>
			<path
   id="path712"
   d="M267.392,811.592c-27.422,62.981-100.717,91.824-163.702,64.397     c-62.984-27.414-91.819-100.705-64.392-163.696c27.41-62.977,100.702-91.821,163.696-64.401     C265.982,675.314,294.809,748.604,267.392,811.592z"
   fill="url(#SVGID_20_)"
   opacity="0.6" />
			
				<radialGradient
   gradientUnits="userSpaceOnUse"
   gradientTransform="matrix(0.998 -0.0638 0.0638 0.998 8.1823 124.2892)"
   r="124.4086"
   cy="432.2346"
   cx="402.2631"
   id="SVGID_21_">
				<stop
   id="stop714"
   style="stop-color:#FFFF9A;stop-opacity:0.9561"
   offset="0.878" />
				<stop
   id="stop716"
   style="stop-color:#FFFF9A;stop-opacity:0"
   offset="0.9512" />
			</radialGradient>
			<path
   id="path719"
   d="M551.267,579.643c-27.421,62.982-100.718,91.827-163.703,64.397     c-62.984-27.414-91.818-100.702-64.392-163.696c27.41-62.976,100.702-91.82,163.696-64.401     C549.856,443.367,578.684,516.656,551.267,579.643z"
   fill="url(#SVGID_21_)"
   opacity="0.3" />
			
				<radialGradient
   gradientUnits="userSpaceOnUse"
   gradientTransform="matrix(0.998 -0.0638 0.0638 0.998 8.1823 124.2892)"
   r="91.78"
   cy="458.8309"
   cx="818.2982"
   id="SVGID_22_">
				<stop
   id="stop721"
   style="stop-color:#FFFF9A;stop-opacity:0.9561"
   offset="0.878" />
				<stop
   id="stop723"
   style="stop-color:#FFFF9A;stop-opacity:0"
   offset="0.9512" />
			</radialGradient>
			<path
   id="path726"
   d="M938.256,566.622c-20.23,46.464-74.304,67.744-120.77,47.508     c-46.466-20.223-67.737-74.291-47.503-120.764c20.221-46.458,74.29-67.738,120.763-47.51     C937.216,466.086,958.48,520.154,938.256,566.622z"
   fill="url(#SVGID_22_)"
   opacity="0.6" />
			
				<radialGradient
   gradientUnits="userSpaceOnUse"
   gradientTransform="matrix(0.998 -0.0638 0.0638 0.998 8.1823 124.2892)"
   r="124.4086"
   cy="966.2974"
   cx="574.4562"
   id="SVGID_23_">
				<stop
   id="stop728"
   style="stop-color:#FFFF9A;stop-opacity:0.9561"
   offset="0.7415" />
				<stop
   id="stop730"
   style="stop-color:#FFFF9A;stop-opacity:0"
   offset="0.9512" />
			</radialGradient>
			<path
   id="path733"
   d="M757.19,1101.652c-27.42,62.981-100.718,91.826-163.704,64.399     c-62.983-27.415-91.819-100.705-64.391-163.696c27.411-62.978,100.702-91.822,163.696-64.401     C755.778,965.375,784.606,1038.664,757.19,1101.652z"
   fill="url(#SVGID_23_)"
   opacity="0.2" />
			
				<radialGradient
   gradientUnits="userSpaceOnUse"
   gradientTransform="matrix(0.998 -0.0638 0.0638 0.998 8.1823 124.2892)"
   r="124.4088"
   cy="1092.5325"
   cx="1128.715"
   id="SVGID_24_">
				<stop
   id="stop735"
   style="stop-color:#FFFF9A;stop-opacity:0.9561"
   offset="0.7415" />
				<stop
   id="stop737"
   style="stop-color:#FFFF9A;stop-opacity:0"
   offset="0.9512" />
			</radialGradient>
			<path
   id="path740"
   d="M1318.395,1192.272c-27.423,62.982-100.719,91.827-163.704,64.399     c-62.985-27.416-91.819-100.704-64.392-163.697c27.411-62.978,100.703-91.822,163.697-64.401     C1316.982,1055.996,1345.809,1129.284,1318.395,1192.272z"
   fill="url(#SVGID_24_)"
   opacity="0.8" />
			
				<radialGradient
   gradientUnits="userSpaceOnUse"
   gradientTransform="matrix(0.998 -0.0638 0.0638 0.998 8.1823 124.2892)"
   r="124.4085"
   cy="451.2246"
   cx="267.5943"
   id="SVGID_25_">
				<stop
   id="stop742"
   style="stop-color:#FF459A;stop-opacity:0.9561"
   offset="0.7415" />
				<stop
   id="stop744"
   style="stop-color:#FFFF9A;stop-opacity:0"
   offset="0.9512" />
			</radialGradient>
			<path
   id="path747"
   d="M418.08,607.186c-27.423,62.982-100.719,91.827-163.705,64.399     c-62.983-27.414-91.817-100.703-64.391-163.696c27.412-62.977,100.704-91.822,163.695-64.402     C416.667,470.911,445.496,544.201,418.08,607.186z"
   fill="url(#SVGID_25_)"
   opacity="0.3" />
			
				<radialGradient
   gradientUnits="userSpaceOnUse"
   gradientTransform="matrix(0.998 -0.0638 0.0638 0.998 8.1823 124.2892)"
   r="124.4087"
   cy="571.3371"
   cx="475.0383"
   id="SVGID_26_">
				<stop
   id="stop749"
   style="stop-color:#FF459A;stop-opacity:0.9561"
   offset="0.7415" />
				<stop
   id="stop751"
   style="stop-color:#FFFF9A;stop-opacity:0"
   offset="0.9512" />
			</radialGradient>
			<path
   id="path754"
   d="M632.773,713.825c-27.423,62.982-100.72,91.825-163.705,64.397     c-62.983-27.413-91.819-100.704-64.391-163.696c27.411-62.976,100.702-91.823,163.696-64.401     C631.361,577.547,660.188,650.837,632.773,713.825z"
   fill="url(#SVGID_26_)"
   opacity="0.3" />
			
				<radialGradient
   gradientUnits="userSpaceOnUse"
   gradientTransform="matrix(0.998 -0.0638 0.0638 0.998 8.1823 124.2892)"
   r="124.4083"
   cy="470.4817"
   cx="530.9463"
   id="SVGID_27_">
				<stop
   id="stop756"
   style="stop-color:#FF459A;stop-opacity:0.9561"
   offset="0.7415" />
				<stop
   id="stop758"
   style="stop-color:#FFFF9A;stop-opacity:0"
   offset="0.9512" />
			</radialGradient>
			<path
   id="path761"
   d="M682.134,609.604c-27.421,62.983-100.718,91.825-163.704,64.397     c-62.983-27.413-91.818-100.704-64.391-163.694c27.411-62.977,100.703-91.824,163.696-64.401     C680.722,473.326,709.55,546.616,682.134,609.604z"
   fill="url(#SVGID_27_)"
   opacity="0.2" />
			
				<radialGradient
   gradientUnits="userSpaceOnUse"
   gradientTransform="matrix(0.998 -0.0638 0.0638 0.998 8.1823 124.2892)"
   r="124.4083"
   cy="1122.1136"
   cx="858.5839"
   id="SVGID_28_">
				<stop
   id="stop763"
   style="stop-color:#FFFF9A;stop-opacity:0.9561"
   offset="0.7415" />
				<stop
   id="stop765"
   style="stop-color:#FFFF9A;stop-opacity:0"
   offset="0.9512" />
			</radialGradient>
			<path
   id="path768"
   d="M1050.69,1239.029c-27.421,62.982-100.719,91.825-163.703,64.397     c-62.983-27.415-91.819-100.705-64.391-163.695c27.411-62.976,100.702-91.822,163.696-64.4     C1049.279,1102.751,1078.106,1176.04,1050.69,1239.029z"
   fill="url(#SVGID_28_)"
   opacity="0.2" />
			
				<radialGradient
   gradientUnits="userSpaceOnUse"
   gradientTransform="matrix(0.998 -0.0638 0.0638 0.998 8.1823 124.2892)"
   r="124.4087"
   cy="599.1531"
   cx="631.4278"
   id="SVGID_29_">
				<stop
   id="stop770"
   style="stop-color:#FFFF9A;stop-opacity:0.9561"
   offset="0.7415" />
				<stop
   id="stop772"
   style="stop-color:#FFFF9A;stop-opacity:0"
   offset="0.9512" />
			</radialGradient>
			<path
   id="path775"
   d="M790.625,731.606c-27.423,62.982-100.72,91.828-163.706,64.399     c-62.982-27.415-91.817-100.704-64.391-163.697c27.412-62.975,100.704-91.82,163.698-64.401     C789.211,595.329,818.039,668.618,790.625,731.606z"
   fill="url(#SVGID_29_)"
   opacity="0.2" />
			
				<radialGradient
   gradientUnits="userSpaceOnUse"
   gradientTransform="matrix(0.998 -0.0638 0.0638 0.998 8.1823 124.2892)"
   r="124.4086"
   cy="644.4546"
   cx="764.4521"
   id="SVGID_30_">
				<stop
   id="stop777"
   style="stop-color:#FFFF9A;stop-opacity:0.9561"
   offset="0.8927" />
				<stop
   id="stop779"
   style="stop-color:#FFFF9A;stop-opacity:0"
   offset="0.9512" />
			</radialGradient>
			<path
   id="path782"
   d="M926.273,768.331c-27.422,62.982-100.72,91.827-163.704,64.397     c-62.983-27.414-91.818-100.703-64.392-163.695c27.411-62.978,100.704-91.823,163.695-64.403     C924.86,632.054,953.687,705.344,926.273,768.331z"
   fill="url(#SVGID_30_)"
   opacity="0.6" />
			
				<radialGradient
   gradientUnits="userSpaceOnUse"
   gradientTransform="matrix(0.998 -0.0638 0.0638 0.998 8.1823 124.2892)"
   r="124.409"
   cy="1044.1971"
   cx="1433.3094"
   id="SVGID_31_">
				<stop
   id="stop784"
   style="stop-color:#FFFF9A;stop-opacity:0.9561"
   offset="0.878" />
				<stop
   id="stop786"
   style="stop-color:#FFFF9A;stop-opacity:0"
   offset="0.9512" />
			</radialGradient>
			<path
   id="path789"
   d="M1619.296,1124.602c-27.422,62.981-100.72,91.827-163.704,64.398     c-62.985-27.415-91.819-100.705-64.392-163.698c27.411-62.974,100.703-91.822,163.695-64.401     C1617.884,988.323,1646.711,1061.614,1619.296,1124.602z"
   fill="url(#SVGID_31_)"
   opacity="0.6" />
			
				<radialGradient
   gradientUnits="userSpaceOnUse"
   gradientTransform="matrix(0.998 -0.0638 0.0638 0.998 8.1823 124.2892)"
   r="124.4086"
   cy="638.386"
   cx="1523.8597"
   id="SVGID_32_">
				<stop
   id="stop791"
   style="stop-color:#FFFF28;stop-opacity:0.9561"
   offset="0.7415" />
				<stop
   id="stop793"
   style="stop-color:#FFFF9A;stop-opacity:0"
   offset="0.9512" />
			</radialGradient>
			<path
   id="path796"
   d="M1683.775,713.825c-27.422,62.982-100.719,91.825-163.705,64.397     c-62.984-27.413-91.818-100.704-64.391-163.696c27.411-62.976,100.702-91.821,163.695-64.401     C1682.362,577.547,1711.189,650.837,1683.775,713.825z"
   fill="url(#SVGID_32_)"
   opacity="0.6" />
			
				<radialGradient
   gradientUnits="userSpaceOnUse"
   gradientTransform="matrix(0.998 -0.0638 0.0638 0.998 8.1823 124.2892)"
   r="124.4088"
   cy="684.8933"
   cx="1331.6111"
   id="SVGID_33_">
				<stop
   id="stop798"
   style="stop-color:#FFFF9A;stop-opacity:0.9561"
   offset="0.7415" />
				<stop
   id="stop800"
   style="stop-color:#FFFF9A;stop-opacity:0"
   offset="0.9512" />
			</radialGradient>
			<path
   id="path803"
   d="M1494.879,772.504c-27.424,62.983-100.72,91.827-163.706,64.398     c-62.984-27.414-91.819-100.702-64.392-163.696c27.412-62.976,100.704-91.821,163.696-64.401     C1493.465,636.228,1522.292,709.519,1494.879,772.504z"
   fill="url(#SVGID_33_)"
   opacity="0.2" />
			
				<radialGradient
   gradientUnits="userSpaceOnUse"
   gradientTransform="matrix(0.998 -0.0638 0.0638 0.998 8.1823 124.2892)"
   r="124.4086"
   cy="476.2684"
   cx="1594.2832"
   id="SVGID_34_">
				<stop
   id="stop805"
   style="stop-color:#FFFF9A;stop-opacity:0.9561"
   offset="0.8829" />
				<stop
   id="stop807"
   style="stop-color:#FFFF9A;stop-opacity:0"
   offset="0.9512" />
			</radialGradient>
			<path
   id="path810"
   d="M1743.712,547.537c-27.421,62.982-100.717,91.827-163.703,64.399     c-62.983-27.415-91.818-100.705-64.391-163.696c27.411-62.978,100.703-91.823,163.696-64.401     C1742.303,411.26,1771.13,484.55,1743.712,547.537z"
   fill="url(#SVGID_34_)"
   opacity="0.6" />
			
				<radialGradient
   gradientUnits="userSpaceOnUse"
   gradientTransform="matrix(0.998 -0.0638 0.0638 0.998 8.1823 124.2892)"
   r="124.4087"
   cy="942.0071"
   cx="1504.45"
   id="SVGID_35_">
				<stop
   id="stop812"
   style="stop-color:#FFFF9A;stop-opacity:0.9561"
   offset="0.7415" />
				<stop
   id="stop814"
   style="stop-color:#FFFF9A;stop-opacity:0"
   offset="0.9512" />
			</radialGradient>
			<path
   id="path817"
   d="M1683.775,1018.076c-27.422,62.981-100.719,91.827-163.705,64.401     c-62.984-27.415-91.818-100.704-64.391-163.698c27.411-62.975,100.702-91.822,163.695-64.401     C1682.362,881.8,1711.189,955.09,1683.775,1018.076z"
   fill="url(#SVGID_35_)"
   opacity="0.3" />
			
				<radialGradient
   gradientUnits="userSpaceOnUse"
   gradientTransform="matrix(0.998 -0.0638 0.0638 0.998 8.1823 124.2892)"
   r="124.4086"
   cy="525.7726"
   cx="1040.2799"
   id="SVGID_36_">
				<stop
   id="stop819"
   style="stop-color:#FFFF28;stop-opacity:0.9561"
   offset="0.7415" />
				<stop
   id="stop821"
   style="stop-color:#FFFF9A;stop-opacity:0"
   offset="0.9512" />
			</radialGradient>
			<path
   id="path824"
   d="M1193.976,632.287c-27.42,62.982-100.719,91.829-163.703,64.399     c-62.983-27.415-91.82-100.704-64.391-163.697c27.41-62.974,100.702-91.82,163.696-64.4     C1192.564,496.011,1221.393,569.3,1193.976,632.287z"
   fill="url(#SVGID_36_)"
   opacity="0.3" />
			
				<radialGradient
   gradientUnits="userSpaceOnUse"
   gradientTransform="matrix(0.998 -0.0638 0.0638 0.998 8.1823 124.2892)"
   r="124.4086"
   cy="715.9621"
   cx="1204.9581"
   id="SVGID_37_">
				<stop
   id="stop826"
   style="stop-color:#FFFF9A;stop-opacity:0.9561"
   offset="0.878" />
				<stop
   id="stop828"
   style="stop-color:#FFFF9A;stop-opacity:0"
   offset="0.9512" />
			</radialGradient>
			<path
   id="path831"
   d="M1370.459,811.591c-27.421,62.983-100.719,91.826-163.703,64.399     c-62.984-27.414-91.819-100.705-64.391-163.696c27.409-62.977,100.703-91.824,163.696-64.401     C1369.048,675.314,1397.875,748.604,1370.459,811.591z"
   fill="url(#SVGID_37_)"
   opacity="0.6" />
			
				<radialGradient
   gradientUnits="userSpaceOnUse"
   gradientTransform="matrix(0.998 -0.0638 0.0638 0.998 8.1823 124.2892)"
   r="124.4085"
   cy="1011.6722"
   cx="-17.569"
   id="SVGID_38_">
				<stop
   id="stop833"
   style="stop-color:#FFFF28;stop-opacity:0.9561"
   offset="0.7415" />
				<stop
   id="stop835"
   style="stop-color:#FFFF9A;stop-opacity:0"
   offset="0.9512" />
			</radialGradient>
			<path
   id="path838"
   d="M169.244,1184.707c-27.421,62.98-100.718,91.828-163.703,64.398     c-62.985-27.414-91.819-100.705-64.393-163.696c27.411-62.977,100.703-91.822,163.696-64.402     C167.832,1048.432,196.659,1121.719,169.244,1184.707z"
   fill="url(#SVGID_38_)"
   opacity="0.6" />
			
				<radialGradient
   gradientUnits="userSpaceOnUse"
   gradientTransform="matrix(0.998 -0.0638 0.0638 0.998 8.1823 124.2892)"
   r="124.4085"
   cy="922.5046"
   cx="112.799"
   id="SVGID_39_">
				<stop
   id="stop840"
   style="stop-color:#FFFF9A;stop-opacity:0.9561"
   offset="0.7415" />
				<stop
   id="stop842"
   style="stop-color:#FFFF9A;stop-opacity:0"
   offset="0.9512" />
			</radialGradient>
			<path
   id="path845"
   d="M293.661,1087.4c-27.422,62.981-100.719,91.827-163.704,64.398     c-62.983-27.413-91.817-100.702-64.39-163.696c27.41-62.976,100.702-91.823,163.695-64.402     C292.251,951.124,321.078,1024.414,293.661,1087.4z"
   fill="url(#SVGID_39_)"
   opacity="0.6" />
			
				<radialGradient
   gradientUnits="userSpaceOnUse"
   gradientTransform="matrix(0.998 -0.0638 0.0638 0.998 8.1823 124.2892)"
   r="124.4088"
   cy="820.1123"
   cx="566.8149"
   id="SVGID_40_">
				<stop
   id="stop847"
   style="stop-color:#FFFF9A;stop-opacity:0.9561"
   offset="0.8537" />
				<stop
   id="stop849"
   style="stop-color:#FFFF9A;stop-opacity:0"
   offset="0.9512" />
			</radialGradient>
			<path
   id="path852"
   d="M740.239,956.245c-27.424,62.982-100.721,91.828-163.706,64.4     c-62.983-27.415-91.818-100.704-64.39-163.696c27.411-62.976,100.702-91.824,163.696-64.402     C738.825,819.969,767.653,893.26,740.239,956.245z"
   fill="url(#SVGID_40_)"
   opacity="0.6" />
			
				<radialGradient
   gradientUnits="userSpaceOnUse"
   gradientTransform="matrix(0.998 -0.0638 0.0638 0.998 8.1823 124.2892)"
   r="124.4087"
   cy="877.7344"
   cx="1615.9655"
   id="SVGID_41_">
				<stop
   id="stop854"
   style="stop-color:#FFFF9A;stop-opacity:0.9561"
   offset="0.878" />
				<stop
   id="stop856"
   style="stop-color:#FFFF9A;stop-opacity:0"
   offset="0.9512" />
			</radialGradient>
			<path
   id="path859"
   d="M1790.966,946.816c-27.422,62.983-100.72,91.829-163.705,64.401     c-62.984-27.415-91.818-100.704-64.389-163.697c27.409-62.977,100.701-91.823,163.694-64.402     C1789.555,810.541,1818.38,883.83,1790.966,946.816z"
   fill="url(#SVGID_41_)"
   opacity="0.6" />
		</g>
	</g>
	<g
   id="g873"
   opacity="0.17">
		<g
   id="g871">
			<pattern
   patternTransform="matrix(1.1007 0 0 1.3114 3302.1621 288.075)"
   xlink:href="#Unnamed_Pattern_8"
   id="SVGID_42_">
			</pattern>
			<rect
   id="rect866"
   height="1122.769"
   width="1721.873"
   fill="url(#SVGID_42_)"
   y="0"
   x="-12.676" />
			<pattern
   patternTransform="matrix(0 -1.2981 1.1121 0 3099.3037 -12904.5186)"
   xlink:href="#Unnamed_Pattern_2"
   id="SVGID_43_">
			</pattern>
			<rect
   id="rect869"
   height="1122.769"
   width="1721.873"
   fill="url(#SVGID_43_)"
   y="0"
   x="-12.676" />
		</g>
	</g>
	
	<rect
   id="rect877"
   height="177.695"
   width="582.986"
   fill="none"
   y="250.88"
   x="959.099" />
	
<text
   style="fill:black;fill-opacity:1;line-height:1.25;stroke:none;font-family:sans-serif;font-style:normal;font-weight:normal;font-size:40px;white-space:pre;shape-inside:url(#rect1787);"
   id="text1785"
   xml:space="preserve" /><text
   style="fill:black;fill-opacity:1;line-height:1.25;stroke:none;font-family:sans-serif;font-style:normal;font-weight:normal;font-size:40px;white-space:pre;shape-inside:url(#rect1793);"
   id="text1791"
   xml:space="preserve" /></g>

<g
   id="Layer_3">
</g>
</svg>
