<svg viewBox="-9 1 511 511.99993" xmlns="http://www.w3.org/2000/svg"><path d="m395.945312 274.699219c-13.308593 13.296875-14.617187 34.019531-2.929687 46.175781 1.929687 2.019531 7.886719 7.859375 15.964844 15.667969l.578125.566406c19.605468 19.6875 30.183594 45.386719 29.792968 72.378906-.378906 26.683594-11.496093 52.285157-31.300781 72.101563-19.613281 19.613281-45.746093 30.410156-73.570312 30.410156h-.179688c-27.859375-.039062-54.042969-10.90625-73.726562-30.589844-4.890625-4.890625-9.269531-10.597656-13.226563-16.734375-10.507812-16.308593-17.996094-35.703125-23.894531-50.988281l-.339844-.859375c-8.484375-21.933594-22.273437-29.070313-32.359375-31.199219-16.246094-3.429687-34.667968 3.238282-49.265625 17.835938-1.519531 1.519531-2.988281 3.117187-4.367187 4.757812-2.589844 3.058594-8.019532 8.9375-11.277344 12.316406l-.820312.828126c-13.617188 13.617187-31.890626 20.933593-51.425782 20.632812-19.375-.308594-37.65625-8.105469-51.492187-21.941406-13.898438-13.894532-21.574219-32.371094-21.605469-52.035156-.039062-19.703126 7.585938-38.199219 21.484375-52.09375 14.816406-14.816407 33.75-18.074219 50.453125-20.953126 2.109375-.363281 4.191406-.722656 6.25-1.101562 10.007812-1.839844 17.273438-5.46875 23.582031-11.777344 7.117188-7.117187 11.097657-17.195312 10.925781-27.660156-.179687-11.097656-4.765624-21.414062-12.914062-29.050781-4.628906-4.351563-8.648438-6.300781-14.207031-9.007813-.6875-.332031-1.378907-.660156-2.078125-1-4.699219-2.230468-10.546875-5.007812-17.117188-10.21875-8.214844-6.515625-13.632812-16.722656-14.484375-27.320312-1.058593-13.058594 3.6875-26.222656 12.6875-35.21875 18.582031-18.597656 44.355469-8.960938 52.824219-5.789063 10.238281 3.828125 18.0625 3.417969 22.652344-1.171875 2.988281-2.988281 4.359375-7.757812 3.488281-12.164062-6.207031-31.261719 4.730469-64.570313 29.253906-89.09375 19.613281-19.605469 45.734375-30.402344 73.566407-30.402344h.152343c.109375 0 .21875 0 .328125.0117188 27.753906.1171872 53.8125 10.9648432 73.417969 30.5781252 7 7 16.816406 18.457031 23.804687 33.300781 7.765626 16.515625 9.964844 33.269531 6.335938 48.445313-3.519531 14.828124 1.261719 19.605468 2.839844 21.183593 5.070312 5.070313 13.875 5.089844 21.425781.050781 33.4375-22.363281 71.699219-20.171874 97.449219 5.589844 28.730468 28.730469 28.792968 75.445313.109375 104.117188-12.875 12.886718-32.097657 20.726562-50.113281 20.523437-10.675782-.109375-19.15625 3.371094-26.671876 10.898438zm0 0" fill="#3aaaff"/><path d="m395.945312 274.699219c-13.308593 13.296875-14.617187 34.019531-2.929687 46.175781 1.929687 2.019531 7.886719 7.859375 15.964844 15.667969l.578125.566406c19.605468 19.6875 30.183594 45.386719 29.792968 72.378906-.378906 26.683594-11.496093 52.285157-31.300781 72.101563-19.613281 19.613281-45.746093 30.410156-73.570312 30.410156h-.179688c-27.859375-.039062-54.042969-10.90625-73.726562-30.589844-4.890625-4.890625-9.269531-10.597656-13.226563-16.734375v-464.6640622c27.753906.1171872 53.8125 10.9648432 73.417969 30.5781252 7 7 16.816406 18.457031 23.804687 33.300781 7.765626 16.515625 9.964844 33.269531 6.335938 48.445313-3.519531 14.828124 1.261719 19.605468 2.839844 21.183593 5.070312 5.070313 13.875 5.089844 21.425781.050781 33.4375-22.363281 71.699219-20.171874 97.449219 5.589844 28.730468 28.730469 28.792968 75.445313.109375 104.117188-12.875 12.886718-32.097657 20.726562-50.113281 20.523437-10.675782-.109375-19.15625 3.371094-26.671876 10.898438zm0 0" fill="#0095ff"/></svg>